<?xml version="1.0" standalone="no"?>
<!DOCTYPE svg PUBLIC "-//W3C//DTD SVG 20010904//EN"
 "http://www.w3.org/TR/2001/REC-SVG-20010904/DTD/svg10.dtd">
<svg version="1.0" xmlns="http://www.w3.org/2000/svg"
 width="700.000000pt" height="700.000000pt" viewBox="0 0 700.000000 700.000000"
 preserveAspectRatio="xMidYMid meet">
<metadata>
Created by potrace 1.11, written by Peter Selinger 2001-2013
</metadata>
<g transform="translate(0.000000,700.000000) scale(0.100000,-0.100000)"
fill="#000000" stroke="none">
<path d="M0 3500 l0 -3500 3500 0 3500 0 0 3500 0 3500 -3500 0 -3500 0 0
-3500z m2022 2716 c40 -8 98 -24 128 -34 82 -30 3222 -1475 3288 -1514 31 -18
89 -64 128 -103 74 -73 103 -128 126 -240 15 -73 22 -1409 9 -1552 -19 -195
-64 -295 -172 -382 -43 -34 -402 -203 -1703 -802 -907 -417 -1683 -771 -1725
-786 -154 -54 -359 -31 -479 53 -67 48 -136 144 -164 228 l-23 71 0 2340 0
2340 23 68 c85 245 300 364 564 313z"/>
<path d="M5053 4031 c-56 -21 -118 -50 -137 -64 -19 -15 -81 -79 -138 -143
-125 -142 -216 -208 -345 -250 -86 -28 -94 -29 -303 -29 -198 0 -220 -2 -279
-23 -113 -41 -178 -94 -346 -287 -230 -263 -360 -371 -525 -434 -146 -56 -250
-61 -505 -21 -192 29 -227 32 -301 20 -143 -22 -281 -114 -333 -223 -50 -103
-51 -113 -51 -725 0 -494 2 -578 15 -610 30 -70 86 -112 151 -112 50 0 3256
1468 3314 1517 21 18 48 54 61 80 l24 48 0 595 c0 580 -1 596 -20 630 -46 79
-129 88 -282 31z"/>
</g>
</svg>
