<?xml version="1.0" encoding="UTF-8"?>
<svg width="182px" height="73px" viewBox="0 0 182 73" version="1.1" xmlns="http://www.w3.org/2000/svg" xmlns:xlink="http://www.w3.org/1999/xlink">
    <!-- Generator: Sketch 50.2 (55047) - http://www.bohemiancoding.com/sketch -->
    <title>Group</title>
    <desc>Created with Sketch.</desc>
    <defs></defs>
    <g id="desctop" stroke="none" stroke-width="1" fill="none" fill-rule="evenodd">
        <g id="d_404" transform="translate(-842.000000, -347.000000)" fill="#FFFFFF">
            <g id="404" transform="translate(0.000000, 141.000000)">
                <g transform="translate(575.500000, 196.082031)" id="Group">
                    <g transform="translate(267.000000, 10.000000)">
                        <path d="M37.25,71 C36.58333,71 36.0333355,70.7833355 35.6,70.35 C35.1666645,69.9166645 34.95,69.36667 34.95,68.7 L34.95,54.1 L2.45,54.1 C1.78333,54.1 1.2333355,53.8833355 0.8,53.45 C0.3666645,53.0166645 0.15,52.46667 0.15,51.8 L0.15,48.1 C0.15,47.166662 0.516663,46.166672 1.25,45.1 L31.35,2.7 C31.683335,2.166664 32.18333,1.7500015 32.85,1.45 C33.51667,1.1499985 34.249996,1 35.05,1 L41.85,1 C42.583337,1 43.149998,1.199998 43.55,1.6 C43.950002,2.000002 44.15,2.566663 44.15,3.3 L44.15,45.7 L53.25,45.7 C53.91667,45.7 54.4666645,45.9166645 54.9,46.35 C55.3333355,46.7833355 55.55,47.33333 55.55,48 L55.55,51.8 C55.55,52.46667 55.3333355,53.0166645 54.9,53.45 C54.4666645,53.8833355 53.91667,54.1 53.25,54.1 L44.15,54.1 L44.15,68.7 C44.15,69.36667 43.9333355,69.9166645 43.5,70.35 C43.0666645,70.7833355 42.51667,71 41.85,71 L37.25,71 Z M10.55,45.9 L35.05,45.9 L35.05,11.1 L10.55,45.9 Z M93.6000066,8.44637667 C93.5647445,8.4405369 93.5294087,8.43480093 93.4939994,8.42916878 C92.9885018,8.36111866 91.5491753,8.5059558 91.5491753,10 C91.5491753,12.0175212 91.5491753,14.0350425 91.5491753,16.0525637 C91.5491753,17.4106409 90.4482362,18.5115801 89.0901589,18.5115801 C87.7320817,18.5115801 86.6311425,17.4106409 86.6311425,16.0525637 C86.6311425,14.3683758 86.6311425,12.6841879 86.6311425,11 C86.6311425,9.64654976 86.088786,8.98318518 85.0040731,9.00990625 C84.9258962,9.03594064 84.8481702,9.06260269 84.7708953,9.08989239 C83.8252678,9.4656633 83.352454,10.2690325 83.352454,11.5 L83.352454,22.6099407 C83.352454,23.968018 82.2515149,25.0689571 80.8934376,25.0689571 C79.5353604,25.0689571 78.4344212,23.968018 78.4344212,22.6099407 C78.4344212,20.5732938 78.4344212,18.5366469 78.4344212,16.5 C78.4344212,15.5 77.5,15.5 77.1000061,16.5 C77.0932327,16.5 77.0865203,16.4998411 77.0798688,16.4995232 C75.6898373,19.5250936 74.9465529,23.2585677 74.85,27.7 L74.75,35.9 L74.85,44.2 C74.983334,50.400031 76.349987,55.199983 78.95,58.6 C81.550013,62.000017 85.383308,63.7 90.45,63.7 C95.583359,63.7 99.449987,62.000017 102.05,58.6 C104.650013,55.199983 106.016666,50.400031 106.15,44.2 C106.216667,42.266657 106.25,39.500018 106.25,35.9 C106.25,32.233315 106.216667,29.500009 106.15,27.7 C106.016666,21.566636 104.633347,16.7833505 102,13.35 C101.775509,13.0573097 101.542177,12.7770953 101.300003,12.509357 C100.5,11.8167725 99.7458966,11.8067627 99.7458966,13 C99.7458966,14.0175212 99.7458966,15.0350425 99.7458966,16.0525637 C99.7458966,17.4106409 98.6449575,18.5115801 97.2868802,18.5115801 C95.928803,18.5115801 94.8278638,17.4106409 94.8278638,16.0525637 C94.8278638,14.2017091 94.8278638,12.3508546 94.8278638,10.5 C94.8278638,9 94,8.52001953 93.6000061,8.45001221 C93.6000061,8.44880046 93.6000063,8.44758861 93.6000066,8.44637667 Z M90.45,72 C81.849957,72 75.5666865,69.4833585 71.6,64.45 C67.6333135,59.4166415 65.516668,52.833374 65.25,44.7 L65.15,36.1 L65.25,27.2 C65.450001,19.133293 67.5666465,12.5833585 71.6,7.55 C75.6333535,2.5166415 81.916624,0 90.45,0 C99.050043,0 105.366647,2.5166415 109.4,7.55 C113.433354,12.5833585 115.549999,19.133293 115.75,27.2 C115.816667,29.066676 115.85,32.033313 115.85,36.1 C115.85,40.033353 115.816667,42.899991 115.75,44.7 C115.483332,52.833374 113.366687,59.4166415 109.4,64.45 C105.433314,69.4833585 99.11671,72 90.45,72 Z M162.35,71 C161.68333,71 161.133336,70.7833355 160.7,70.35 C160.266665,69.9166645 160.05,69.36667 160.05,68.7 L160.05,54.1 L127.55,54.1 C126.88333,54.1 126.333336,53.8833355 125.9,53.45 C125.466665,53.0166645 125.25,52.46667 125.25,51.8 L125.25,48.1 C125.25,47.166662 125.616663,46.166672 126.35,45.1 L156.45,2.7 C156.783335,2.166664 157.28333,1.7500015 157.95,1.45 C158.61667,1.1499985 159.349996,1 160.15,1 L166.95,1 C167.683337,1 168.249998,1.199998 168.65,1.6 C169.050002,2.000002 169.25,2.566663 169.25,3.3 L169.25,45.7 L178.35,45.7 C179.01667,45.7 179.566665,45.9166645 180,46.35 C180.433336,46.7833355 180.65,47.33333 180.65,48 L180.65,51.8 C180.65,52.46667 180.433336,53.0166645 180,53.45 C179.566665,53.8833355 179.01667,54.1 178.35,54.1 L169.25,54.1 L169.25,68.7 C169.25,69.36667 169.033336,69.9166645 168.6,70.35 C168.166665,70.7833355 167.61667,71 166.95,71 L162.35,71 Z M135.65,45.9 L160.15,45.9 L160.15,11.1 L135.65,45.9 Z" id="404"></path>
                        <path d="M31.3968889,30.7765439 L31.3968889,34.6912325 C31.3968889,36.1956276 30.1773357,37.4151808 28.6729406,37.4151808 C27.1685455,37.4151808 25.9489924,36.1956276 25.9489924,34.6912325 L25.9489924,30.4391139 C25.8836197,30.0155219 25.5746362,28.8030793 24.1502055,28.8030793 C22.4069933,28.8030793 22.3343595,30.6189252 22.3343595,30.6189252 L22.3343595,34.214121 C22.3343595,34.214121 22.3289424,34.2058805 22.3068809,34.192246 C22.1867133,35.5855941 21.0176075,36.6790429 19.593113,36.6790429 C18.1941762,36.6790429 17.0415461,35.6244784 16.8868215,34.2669482 L16.8868215,34.5048356 C16.8868215,34.5048356 16.8868215,32.6889897 14.9983417,32.6889897 C14.9158948,32.6889897 14.8179873,32.6924507 14.7061263,32.6990705 L16.1513176,28.3742564 C16.2239515,24.9967828 18.8024528,23.7256906 18.7661358,23.7256906 C21.5988556,21.8735277 21.8116183,20.2704444 24.8116183,17.2704444 C27.8116183,14.2704444 33.7065021,2.60005711 37.5924126,4.4159031 C39.3356247,5.25119225 40.5704,6.0864814 41.1877876,7.32125667 C41.9504429,8.81025038 41.8778091,10.7350471 41.8778091,12.1877239 C41.8778091,13.2963554 41.9746445,16.9587744 42.0862027,21.150631 C40.5591463,21.2978816 40.4928193,22.9560552 40.4928193,22.9560552 L40.4928193,26.3331103 C40.4928193,26.3331103 40.3838686,29.0568793 37.7690503,29.0568793 C35.1542321,29.0568793 35.0452814,26.3331103 35.0452814,26.3331103 L35.0452814,26.7693317 C35.0452814,26.7693317 34.9726475,24.9534858 33.2294354,24.9534858 C31.4862232,24.9534858 31.4135894,26.7693317 31.4135894,26.7693317 L31.4135894,30.5825486 C31.4135894,30.5825486 31.4116545,30.6551091 31.3968889,30.7765439 Z" id="Combined-Shape" fill-rule="nonzero"></path>
                        <path d="M156.396889,30.7765439 L156.396889,32.6912325 C156.396889,34.1956276 155.177336,35.4151808 153.672941,35.4151808 C152.168546,35.4151808 150.948992,34.1956276 150.948992,32.6912325 L150.948992,30.4391139 C150.88362,30.0155219 150.574636,28.8030793 149.150205,28.8030793 C147.406993,28.8030793 147.334359,30.6189252 147.334359,30.6189252 L147.334359,34.214121 C147.334359,34.214121 147.330685,34.2692444 147.317061,34.3638074 L147.317061,36.9550946 C147.317061,38.4594897 146.097508,39.6790429 144.593113,39.6790429 C143.088718,39.6790429 141.869165,38.4594897 141.869165,36.9550946 L141.869165,34.2970227 C141.803009,33.8203421 141.488978,32.6889897 139.998342,32.6889897 C139.915895,32.6889897 139.817987,32.6924507 139.706126,32.6990705 L141.151318,28.3742564 C141.223951,24.9967828 143.802453,23.7256906 143.766136,23.7256906 C146.598856,21.8735277 146.811618,20.2704444 149.811618,17.2704444 C152.811618,14.2704444 158.706502,2.60005711 162.592413,4.4159031 C164.335625,5.25119225 165.5704,6.0864814 166.187788,7.32125667 C166.950443,8.81025038 166.877809,10.7350471 166.877809,12.1877239 C166.877809,13.2963554 166.974644,16.9587744 167.086203,21.150631 C165.559146,21.2978816 165.492819,22.9560552 165.492819,22.9560552 L165.492819,26.3331103 C165.492819,26.3331103 165.383869,29.0568793 162.76905,29.0568793 C160.154232,29.0568793 160.045281,26.3331103 160.045281,26.3331103 L160.045281,26.7693317 C160.045281,26.7693317 159.972648,24.9534858 158.229435,24.9534858 C156.486223,24.9534858 156.413589,26.7693317 156.413589,26.7693317 L156.413589,30.5825486 C156.413589,30.5825486 156.411654,30.6551091 156.396889,30.7765439 Z" id="Combined-Shape" fill-rule="nonzero"></path>
                        <path d="M97.0288199,29.6134465 C96.9647441,29.1734153 96.6582573,27.9534858 95.2294354,27.9534858 C93.4862232,27.9534858 93.4135894,29.7693317 93.4135894,29.7693317 L93.4135894,30.5825486 C93.4135894,30.5825486 93.4116545,30.6817488 93.3968889,30.847767 L93.3968889,33.6912325 C93.3968889,35.1956276 92.1773357,36.4151808 90.6729406,36.4151808 C89.1685455,36.4151808 87.9489924,35.1956276 87.9489924,33.6912325 L87.9489924,33.4391139 C87.8836197,33.0155219 87.5746362,31.8030793 86.1502055,31.8030793 C84.4069933,31.8030793 84.3343595,33.6189252 84.3343595,33.6189252 L84.3343595,37.214121 C84.3343595,37.214121 84.3306846,37.2692444 84.3170613,37.3638074 L84.3170613,39.9550946 C84.3170613,41.4594897 83.0975081,42.6790429 81.593113,42.6790429 C80.0887179,42.6790429 78.8691648,41.4594897 78.8691648,39.9550946 L78.8691648,37.2970227 C78.8030085,36.8203421 78.4889784,35.6889897 76.9983417,35.6889897 C75.1098619,35.6889897 75.1098619,37.5048356 75.1098619,37.5048356 L75.1098619,57.4770807 C74.6663777,57.3705732 74.2162568,57.2064822 73.7661358,56.9707046 C71.0060499,55.5180278 71.1513176,52.3221389 71.1513176,52.3221389 L71.1513176,12.3742564 C71.2239515,8.99678283 73.8024528,7.72569064 73.7661358,7.72569064 C76.5988556,5.87352774 80.8116183,8.27044444 80.8116183,8.27044444 C80.8116183,8.27044444 100.706502,5.60005711 104.592413,7.4159031 C106.335625,8.25119225 107.5704,9.0864814 108.187788,10.3212567 C108.950443,11.8102504 108.877809,13.7350471 108.877809,15.1877239 C108.877809,16.6411242 110.280037,21.55683 111.525685,26.4039801 C111.391812,27.1770798 110.871388,28.6797644 108.84828,28.6797644 C106.124511,28.6797644 106.124511,25.9559954 106.124511,25.9559954 C106.124511,25.9560552 106.051877,24.1402092 104.308665,24.1402092 C102.565453,24.1402092 102.492819,25.9560552 102.492819,25.9560552 L102.492819,29.3331103 C102.492819,29.3331103 102.490285,29.3964569 102.476716,29.5038291 L102.476716,35.6912325 C102.476716,37.1956276 101.257163,38.4151808 99.7527682,38.4151808 C98.2483731,38.4151808 97.0288199,37.1956276 97.0288199,35.6912325 L97.0288199,29.6134465 Z" id="Combined-Shape" fill-rule="nonzero"></path>
                    </g>
                </g>
            </g>
        </g>
    </g>
</svg>