<?xml version="1.0" encoding="UTF-8"?>
<svg width="24px" height="24px" viewBox="0 0 24 24" version="1.1" xmlns="http://www.w3.org/2000/svg" xmlns:xlink="http://www.w3.org/1999/xlink">
    <!-- Generator: Sketch 46.2 (44496) - http://www.bohemiancoding.com/sketch -->
    <title>icon-profile__param</title>
    <desc>Created with Sketch.</desc>
    <defs></defs>
    <g id="Symbols" stroke="none" stroke-width="1" fill="none" fill-rule="evenodd">
        <g id="param" fill-rule="nonzero">
            <g id="Group-2">
                <circle id="Combined-Shape" fill="#02CFB6" cx="12" cy="12" r="12"></circle>
                <path d="M16.4241884,12.6331528 L17.8110967,13.597975 C17.9317231,13.6582764 17.9317231,13.8391805 17.8714217,13.9597833 L16.6653939,16.0703319 C16.6050689,16.1909583 16.4241884,16.2512597 16.303562,16.1909583 L14.7960272,15.5879445 C14.4945203,15.82915 14.132712,16.0100542 13.7709036,16.1909583 L13.5296981,17.7587944 C13.5296981,17.8793736 13.3488176,18 13.2281911,18 L10.8161356,18 C10.6352314,18 10.5146286,17.8793972 10.5146286,17.7587944 L10.2734231,16.1909583 C9.91161476,16.0100542 9.54980643,15.82915 9.24829948,15.5879445 L7.74076476,16.1909583 C7.55983695,16.2512597 7.43925782,16.1909583 7.37895643,16.130657 L6.17292866,14.0201083 C6.11262727,13.8994819 6.11262727,13.7789028 6.23323005,13.6582764 L7.49955921,12.6331528 C7.43925782,12.4522486 7.43925782,12.2713444 7.43925782,12.0301389 C7.43925782,11.7889333 7.49955921,11.6080291 7.49955921,11.427125 L6.23323005,10.4623028 C6.11262727,10.3417 6.05232588,10.1607958 6.11262727,10.1004944 L7.31865504,7.98994583 C7.43928147,7.86934305 7.55988425,7.80904166 7.74078841,7.86934305 L9.18802174,8.47235694 C9.54983007,8.23115138 9.85133702,7.98994583 10.2131453,7.86934305 L10.4543509,6.24120555 C10.4543509,6.12060278 10.6352314,6 10.7558578,6 L13.1679134,6 C13.2884925,6 13.4694203,6.12060278 13.409119,6.30150694 L13.6503245,7.86934305 C14.0121328,8.05024722 14.3739412,8.23115138 14.6754481,8.47235694 L16.1829828,7.86934305 C16.3639106,7.80904166 16.4844898,7.86934305 16.5447912,7.92964444 L17.7508189,10.040193 C17.8111203,10.1607958 17.8111203,10.2813986 17.6905175,10.4020014 L16.4241884,11.427125 C16.4844898,11.6080291 16.4844898,11.7889333 16.4844898,12.0301389 C16.4844898,12.2713444 16.4241884,12.4522486 16.4241884,12.6331528 Z M13.902007,13.910432 C14.4288811,13.3835999 14.6922866,12.749566 14.6922866,12.0084986 C14.6922866,11.2671997 14.4288601,10.63325 13.902007,10.106439 C13.375175,9.57962802 12.7412042,9.31618042 11.9999895,9.31618042 C11.2587747,9.31618042 10.6247829,9.57956487 10.0979719,10.106439 C9.571182,10.6333131 9.30771336,11.2671997 9.30771336,12.0084986 C9.30771336,12.749566 9.5710978,13.3836631 10.0979719,13.910432 C10.6248461,14.4372851 11.2587537,14.7007748 11.9999895,14.7007748 C12.7412253,14.7007748 13.375175,14.4372851 13.902007,13.910432 Z M11.9999895,10.2777031 C12.4767042,10.2777031 12.8844207,10.4469991 13.2229496,10.7855701 C13.5614995,11.1241411 13.7307955,11.5317313 13.7307955,12.0085934 C13.7307955,12.4853081 13.5614995,12.8929404 13.2229496,13.2314903 C12.8843996,13.5699771 12.4767042,13.7392521 11.9999895,13.7392521 C11.5231906,13.7392521 11.1155583,13.5699771 10.7770083,13.2314903 C10.4384584,12.8929404 10.2691834,12.485287 10.2691834,12.0085934 C10.2691834,11.5317103 10.4384584,11.1241201 10.7770083,10.7855701 C11.1155583,10.4469781 11.5232116,10.2777031 11.9999895,10.2777031 Z" id="Combined-Shape" fill="#FFFFFF"></path>
            </g>
        </g>
    </g>
</svg>