<?xml version="1.0" encoding="UTF-8"?>
<svg width="64px" height="64px" viewBox="0 0 64 64" version="1.1" xmlns="http://www.w3.org/2000/svg" xmlns:xlink="http://www.w3.org/1999/xlink">
    <!-- Generator: sketchtool 52.3 (67297) - http://www.bohemiancoding.com/sketch -->
    <title>ED9F4912-8E17-418C-8629-43E75277A97F</title>
    <desc>Created with sketchtool.</desc>
    <defs>
        <path d="M30.87968,32.24848 C31.65088,32.24848 32.25568,32.86288 32.25568,33.64528 C32.25568,34.41648 31.65088,35.02128 30.87968,35.02128 L24.96448,35.02128 C24.18048,35.02128 23.56608,34.41648 23.56608,33.64528 C23.56608,32.87568 24.19328,32.24848 24.96448,32.24848 L30.87968,32.24848 Z M24.94304,28.85472 C24.17184,28.85472 23.56704,28.24992 23.56704,27.48032 C23.56704,26.70752 24.17184,26.10272 24.94304,26.10272 L39.57024,26.10272 C40.34144,26.10272 40.94624,26.70752 40.94624,27.48032 C40.94624,28.24992 40.34144,28.85472 39.57024,28.85472 L24.94304,28.85472 Z M49.29216,34.60464 L45.93696,37.86224 C45.39136,38.38864 44.50816,38.38864 43.96256,37.86224 C43.43296,37.34544 43.43456,36.43984 43.96256,35.92464 L44.91456,35.00144 L37.88576,35.00144 C37.13216,35.00144 36.51936,34.38864 36.51936,33.63664 C36.51936,32.88144 37.13216,32.26864 37.88576,32.26864 L44.91456,32.26864 L43.96256,31.34544 C43.69696,31.08784 43.55136,30.74384 43.55136,30.37904 L43.55136,30.37744 C43.55136,30.01104 43.69696,29.66704 43.96256,29.40784 C44.50816,28.88144 45.39136,28.88144 45.93536,29.40784 L49.29216,32.66704 C49.82336,33.18224 49.82336,34.08784 49.29216,34.60464 Z M46.10864,20.0296 C46.64144,20.5896 46.91184,21.2616 46.91184,22.0296 L46.91184,24.7128 C46.91184,25.4792 46.28944,26.1032 45.52144,26.1032 C44.75344,26.1032 44.13264,25.4808 44.13104,24.7128 L44.12784,22.4232 C44.12784,22.1544 43.91024,21.9368 43.64144,21.9368 L20.87024,21.9464 C20.60304,21.9464 20.38544,22.164 20.38544,22.4328 L20.37424,38.6104 C20.37424,38.8776 20.59024,39.0952 20.85904,39.0968 L31.85744,39.1304 L32.39184,39.4088 L36.61104,41.7896 L36.61104,39.836 C36.61104,39.436 36.93584,39.1112 37.33584,39.1096 L40.80784,39.1096 C41.57904,39.1096 42.18384,39.724 42.18384,40.5064 C42.18384,41.2776 41.57904,41.8824 40.80784,41.8824 L39.68784,41.8824 C39.50864,41.8824 39.36304,42.028 39.36304,42.2072 L39.36304,45.26 C39.36304,45.5192 39.23024,45.7512 39.00624,45.884 C38.89104,45.9512 38.76464,45.9864 38.63824,45.9864 C38.51824,45.9864 38.39824,45.9544 38.28624,45.8936 L31.14384,41.924 C31.09104,41.9096 31.04144,41.8968 30.98704,41.8824 L20.38704,41.8824 C19.59824,41.8824 18.93104,41.6104 18.40624,41.0744 C17.87184,40.5288 17.59984,39.8632 17.59984,39.0952 L17.59984,22.0296 C17.59984,21.26 17.87024,20.588 18.40464,20.0312 C18.93264,19.4792 19.59984,19.1992 20.38704,19.1992 L44.12464,19.1992 C44.91184,19.1992 45.57904,19.4792 46.10864,20.0296 Z" id="path-1"></path>
    </defs>
    <g id="desktop" stroke="none" stroke-width="1" fill="none" fill-rule="evenodd">
        <g id="mob1" transform="translate(-312.000000, -10.000000)">
            <g id="Group-2" transform="translate(312.000000, 10.000000)">
                <g id="icon-/-chat">
                    <mask id="mask-2" fill="white">
                        <use xlink:href="#path-1"></use>
                    </mask>
                    <use id="Mask" fill="#879EBB" fill-rule="evenodd" xlink:href="#path-1"></use>
                    <g id="color-/-white" mask="url(#mask-2)" fill="#FFFFFF" fill-rule="evenodd">
                        <rect x="0" y="0" width="64" height="64"></rect>
                    </g>
                </g>
            </g>
        </g>
    </g>
</svg>