<?xml version="1.0" encoding="UTF-8"?>
<svg width="30px" height="30px" viewBox="0 0 30 30" version="1.1" xmlns="http://www.w3.org/2000/svg" xmlns:xlink="http://www.w3.org/1999/xlink">
    <!-- Generator: Sketch 46.2 (44496) - http://www.bohemiancoding.com/sketch -->
    <title>icon</title>
    <desc>Created with Sketch.</desc>
    <defs></defs>
    <g id="Symbols" stroke="none" stroke-width="1" fill="none" fill-rule="evenodd">
        <g id="hot_invert" fill="#FFFFFF">
            <g id="icon" fill="#FFFFFF">
                <path d="M15,30 C6.71572875,30 0,23.2842712 0,15 C0,6.71572875 6.71572875,0 15,0 C23.2842712,0 30,6.71572875 30,15 C30,23.2842712 23.2842712,30 15,30 Z M20.2200837,16.1968034 C20.0597127,14.1088629 19.0875881,12.8004376 18.2299791,11.6458209 C17.4358623,10.5768995 16.7499993,9.6538296 16.7499993,8.29216611 C16.7499993,8.18279116 16.6887493,8.08282245 16.5916243,8.03270138 C16.4941986,7.98227952 16.37714,7.99053733 16.2885737,8.05490449 C15.0005742,8.97655254 13.9259106,10.529923 13.5505084,12.012063 C13.2898953,13.0439336 13.2554148,14.2039644 13.250575,14.9701086 C12.0611223,14.7160579 11.7916771,12.9368556 11.7888334,12.9174688 C11.775435,12.8251837 11.7190522,12.7448752 11.637021,12.7010158 C11.5541421,12.6577307 11.4567163,12.6545861 11.372689,12.696176 C11.310318,12.7263635 9.84171311,13.4725741 9.75626393,16.4519752 C9.75027565,16.5510962 9.75000222,16.6505181 9.75000222,16.7499125 C9.75000222,19.6444387 12.1052551,21.9995549 15,21.9995549 C17.9030027,21.9912697 20.2499978,19.6393254 20.2499978,16.7499125 C20.2499978,16.6043618 20.2200837,16.1968034 20.2200837,16.1968034 Z M15,21.4162582 C14.0349848,21.4162582 13.2500007,20.5800594 13.2500007,19.5521809 C13.2500007,19.5171536 13.2497273,19.4818255 13.2522703,19.4385403 C13.263946,19.00506 13.346278,18.7091461 13.4365671,18.5123259 C13.6057701,18.8757515 13.9082466,19.2098373 14.3995862,19.2098373 C14.5608049,19.2098373 14.6912618,19.0793803 14.6912618,18.918189 C14.6912618,18.502947 14.6998204,18.0238847 14.8032071,17.5915255 C14.8952188,17.2081663 15.1150898,16.8003071 15.3936678,16.473358 C15.5175623,16.8977328 15.7591169,17.2411975 15.9949566,17.5764317 C16.3324877,18.0560409 16.6813938,18.5519196 16.7426438,19.3975247 C16.7463352,19.4476458 16.7500539,19.4980676 16.7500539,19.5521809 C16.7499993,20.580032 15.9650152,21.4162582 15,21.4162582 Z" id="Combined-Shape"></path>
            </g>
        </g>
    </g>
</svg>