<?xml version="1.0" encoding="UTF-8"?>
<svg width="60px" height="60px" viewBox="0 0 60 60" version="1.1" xmlns="http://www.w3.org/2000/svg" xmlns:xlink="http://www.w3.org/1999/xlink">
    <!-- Generator: Sketch 46.2 (44496) - http://www.bohemiancoding.com/sketch -->
    <title>upload</title>
    <desc>Created with Sketch.</desc>
    <defs></defs>
    <g id="Symbols" stroke="none" stroke-width="1" fill="none" fill-rule="evenodd">
        <g id="upload">
            <g id="cloud-computing" transform="translate(18.000000, 19.000000)">
                <path d="M20.9440969,6.80665016 L20.9440969,6.20262603 C20.9440969,2.79499426 18.1717694,0.0226667715 14.7641376,0.0226667715 C13.2802801,0.0226667715 11.8455188,0.556514575 10.7242389,1.52592706 C9.98244618,2.16721536 9.40843286,2.97120575 9.04268183,3.86472988 C8.48045523,3.57740588 7.85254033,3.4226825 7.20803335,3.4226825 C4.98328972,3.4226825 3.17334801,5.23262421 3.17334801,7.45736783 L3.17334801,8.28189431 C1.35900895,8.68871753 0,10.2988743 0,12.2173899 C0,13.2951042 0.407956554,14.3057702 1.14875198,15.0631577 C1.89861412,15.8298839 2.90742145,16.2520752 3.98935179,16.2520752 L4.30668659,16.2520752 C4.80744091,16.2520752 5.21335745,15.8461586 5.21335745,15.3454043 C5.21335745,14.84465 4.80744091,14.4387335 4.30668659,14.4387335 L3.98935179,14.4387335 C2.76915414,14.4387335 1.81334172,13.4630196 1.81334172,12.2173899 C1.81334172,10.9925229 2.82704508,9.99604625 4.07303751,9.99604625 L4.08001888,9.99604625 C4.58077319,9.99604625 4.98668974,9.5901297 4.98668974,9.08937538 L4.98668974,7.45736783 C4.98668974,6.23250083 5.98316635,5.23602422 7.20803335,5.23602422 C7.84433496,5.23602422 8.45139643,5.51038283 8.87363305,5.98874237 C9.10637546,6.25240226 9.47053981,6.35766675 9.80804804,6.25888496 C10.1455563,6.16010317 10.3954801,5.87509118 10.4493363,5.52756424 C10.7754205,3.42304517 12.6303331,1.83600849 14.7640923,1.83600849 C17.1718928,1.83600849 19.1307552,3.79487089 19.1307552,6.20262603 L19.1307552,7.31774052 C19.1307552,7.65320874 19.3160334,7.9612955 19.6123787,8.11860289 C20.7134398,8.7029976 21.3974323,9.83923752 21.3974323,11.0840513 C21.3974323,12.6598452 20.3264727,14.0048008 18.7930203,14.3546851 C18.3048234,14.4661149 17.9994113,14.9521812 18.1107958,15.4403328 C18.2222256,15.928575 18.7082919,16.2341231 19.1964435,16.1226026 C20.319446,15.8663321 21.3384081,15.2291691 22.0655581,14.3285276 C22.8040415,13.4138781 23.210774,12.2616354 23.210774,11.0840513 C23.210774,9.35534728 22.3548314,7.76277991 20.9440969,6.80665016 Z" id="Shape" fill="#FFFFFF" fill-rule="nonzero"></path>
                <g id="arrow" transform="translate(11.500000, 16.522667) scale(1, -1) translate(-11.500000, -16.522667) translate(8.000000, 11.022667)">
                    <rect id="Rectangle-2" fill="#FFFFFF" x="2.5" y="0.712489589" width="2" height="10" rx="1"></rect>
                    <polyline id="Line-2" stroke="#FFFFFF" stroke-width="2" stroke-linecap="round" stroke-linejoin="round" points="0.5 8 3.5 11 6.5 8"></polyline>
                </g>
            </g>
        </g>
    </g>
</svg>