<?xml version="1.0" encoding="UTF-8"?>
<svg width="40px" height="40px" viewBox="0 0 40 40" version="1.1" xmlns="http://www.w3.org/2000/svg" xmlns:xlink="http://www.w3.org/1999/xlink">
    <defs>
        <path d="M20,40 C8.954305,40 0,31.045695 0,20 C0,8.954305 8.954305,0 20,0 C31.045695,0 40,8.954305 40,20 C40,31.045695 31.045695,40 20,40 Z M27.9645763,13.3429131 C27.9645763,12.9382639 27.6315938,12.6046057 27.227764,12.6046057 L24.5001416,12.6046057 L24.5001416,11.7383074 C24.5001416,11.3336582 24.1671591,11 23.7633293,11 C23.3594994,11 23.026517,11.3336582 23.026517,11.7383074 L23.026517,12.6046057 L16.8990933,12.6046057 L16.8990933,12.3845333 C16.8990933,11.3336582 16.5661109,11 16.162281,11 C15.7584512,11 15.4254687,11.3336582 15.4254687,11.7383074 L15.4254687,12.6046057 L12.7368123,12.6046057 C12.3329825,12.6046057 12,12.9382639 12,13.3429131 L12,26.320086 C12,27.8002504 13.19732,29 14.674487,29 L25.325513,29 C26.80268,29 28,27.8002504 28,26.320086 L27.9645763,13.3429131 Z M13.4382009,14.0812206 L15.4290111,14.0812206 L15.4290111,14.3403381 C15.4290111,14.7449873 15.7619936,15.0786455 16.1658234,15.0786455 C16.5342296,15.0786455 16.867212,14.7449873 16.9026357,14.3758336 L16.9026357,14.0812206 L23.026517,14.0812206 L23.026517,14.3403381 C23.026517,14.7449873 23.3594994,15.0786455 23.7633293,15.0786455 C24.1671591,15.0786455 24.5001416,14.7449873 24.5001416,14.3758336 L24.5001416,14.0812206 L26.4909517,14.0812206 L26.4909517,16.8889185 L13.4382009,16.8889185 L13.4382009,14.0812206 Z M26.5263754,26.1674552 C26.5263754,26.934159 25.9064612,27.5588807 25.1377676,27.5588807 L14.8622324,27.5588807 C14.0970812,27.5588807 13.4736246,26.9377086 13.4736246,26.1674552 L13.4736246,18.3264883 L26.5263754,18.3264883 L26.5263754,26.1674552 Z M15.9411765,20.3732395 C15.531836,20.3732395 15.2,20.7050755 15.2,21.114416 L15.2,21.194563 C15.2,21.6039035 15.531836,21.9357395 15.9411765,21.9357395 L16.0588235,21.9357395 C16.468164,21.9357395 16.8,21.6039035 16.8,21.194563 L16.8,21.114416 C16.8,20.7050755 16.468164,20.3732395 16.0588235,20.3732395 L15.9411765,20.3732395 Z M19.9411765,20.3732395 C19.531836,20.3732395 19.2,20.7050755 19.2,21.114416 L19.2,21.194563 C19.2,21.6039035 19.531836,21.9357395 19.9411765,21.9357395 L20.0588235,21.9357395 C20.468164,21.9357395 20.8,21.6039035 20.8,21.194563 L20.8,21.114416 C20.8,20.7050755 20.468164,20.3732395 20.0588235,20.3732395 L19.9411765,20.3732395 Z M23.9411765,20.3732395 C23.531836,20.3732395 23.2,20.7050755 23.2,21.114416 L23.2,21.194563 C23.2,21.6039035 23.531836,21.9357395 23.9411765,21.9357395 L24.0588235,21.9357395 C24.468164,21.9357395 24.8,21.6039035 24.8,21.194563 L24.8,21.114416 C24.8,20.7050755 24.468164,20.3732395 24.0588235,20.3732395 L23.9411765,20.3732395 Z M15.9411765,23.5036743 C15.531836,23.5036743 15.2,23.8355103 15.2,24.2448508 L15.2,24.3249978 C15.2,24.7343383 15.531836,25.0661743 15.9411765,25.0661743 L16.0588235,25.0661743 C16.468164,25.0661743 16.8,24.7343383 16.8,24.3249978 L16.8,24.2448508 C16.8,23.8355103 16.468164,23.5036743 16.0588235,23.5036743 L15.9411765,23.5036743 Z M19.9411765,23.5036743 C19.531836,23.5036743 19.2,23.8355103 19.2,24.2448508 L19.2,24.3249978 C19.2,24.7343383 19.531836,25.0661743 19.9411765,25.0661743 L20.0588235,25.0661743 C20.468164,25.0661743 20.8,24.7343383 20.8,24.3249978 L20.8,24.2448508 C20.8,23.8355103 20.468164,23.5036743 20.0588235,23.5036743 L19.9411765,23.5036743 Z M23.9411765,23.5036743 C23.531836,23.5036743 23.2,23.8355103 23.2,24.2448508 L23.2,24.3249978 C23.2,24.7343383 23.531836,25.0661743 23.9411765,25.0661743 L24.0588235,25.0661743 C24.468164,25.0661743 24.8,24.7343383 24.8,24.3249978 L24.8,24.2448508 C24.8,23.8355103 24.468164,23.5036743 24.0588235,23.5036743 L23.9411765,23.5036743 Z" id="path-1"></path>
    </defs>
    <g id="Symbols" stroke="none" stroke-width="1" fill="none" fill-rule="evenodd">
        <g id="icon-/-c-/-calendar">
            <mask id="mask-2" fill="white">
                <use xlink:href="#path-1"></use>
            </mask>
            <use id="Mask" fill="#889FBC" xlink:href="#path-1"></use>
        </g>
    </g>
</svg>