<?xml version="1.0" encoding="UTF-8"?>
<svg width="174px" height="176px" viewBox="0 0 174 176" version="1.1" xmlns="http://www.w3.org/2000/svg" xmlns:xlink="http://www.w3.org/1999/xlink">
    <!-- Generator: Sketch 46.2 (44496) - http://www.bohemiancoding.com/sketch -->
    <title>Combined Shape</title>
    <desc>Created with Sketch.</desc>
    <defs>
        <path d="M0.00109191245,4.31501198 C0.091379423,1.57636368 2.198088,0.57513742 2.198088,0.57513742 C4.54556328,-0.926701972 8.00658452,0.987407057 8.00658452,0.987407057 C8.00658452,0.987407057 33.2268958,12.2953742 36.4471503,13.7677658 C37.8917505,14.4450659 38.915009,15.122366 39.4266382,16.1235923 C40.0586508,17.3309534 39.9984591,18.8916884 39.9984591,20.0696017 C39.9984591,22.1898455 39.9984591,27.2843203 39.9984591,30.9064036 C39.9984591,32.2904516 39.7275966,33.438917 39.2460632,34.2045607 C38.4635714,35.4119217 37.3500254,35.7652957 37.3500254,35.7652957 C37.3500254,35.7652957 8.33763872,48.8401328 7.13380525,49.3701937 C5.96006761,49.9002547 4.06402989,50.4303157 2.16799217,49.4585372 C-0.119291435,48.280624 0.00109191245,45.6892148 0.00109191245,45.6892148 L0.00109191245,4.31501198 Z M17.8236015,24.2241194 C20.1472946,24.2241194 22.0702394,22.3722751 22.0702394,20.0130318 C22.0702394,17.6537885 20.1472946,15.7663939 17.8236015,15.7663939 C15.4999085,15.7663939 13.5769637,17.6182383 13.5769637,19.9774816 C13.5769637,22.3367248 15.4999085,24.2241194 17.8236015,24.2241194 Z M20.6870119,25.1690953 C20.5081834,25.1238496 20.272259,25.1917182 19.9792389,25.3727013 L17.8236015,26.7501398 L15.6679642,25.3727013 C15.3533984,25.1938728 15.1174741,25.1260041 14.9601912,25.1690953 C11.893175,26.1806613 10.4465893,28.67241 10.4465893,31.4679517 C10.4465893,31.7157261 10.6717408,31.9408776 11.1220438,32.1434062 C13.2522132,33.225398 15.4860657,33.7663939 17.8236015,33.7663939 C20.1611374,33.7663939 22.3960672,33.225398 24.5283911,32.1434062 C24.9786942,31.9408776 25.2038457,31.7157261 25.2038457,31.4679517 C25.2006138,28.67241 23.7540281,26.1806613 20.6870119,25.1690953 Z" id="path-1"></path>
        <filter x="-293.8%" y="-185.0%" width="687.5%" height="570.0%" filterUnits="objectBoundingBox" id="filter-2">
            <feOffset dx="0" dy="25" in="SourceAlpha" result="shadowOffsetOuter1"></feOffset>
            <feGaussianBlur stdDeviation="35" in="shadowOffsetOuter1" result="shadowBlurOuter1"></feGaussianBlur>
            <feColorMatrix values="0 0 0 0 0   0 0 0 0 0   0 0 0 0 0  0 0 0 0.1 0" type="matrix" in="shadowBlurOuter1"></feColorMatrix>
        </filter>
    </defs>
    <g id="Symbols" stroke="none" stroke-width="1" fill="none" fill-rule="evenodd">
        <g id="user" transform="translate(69.000000, 38.000000)">
            <g id="Combined-Shape">
                <g>
                    <use fill="black" fill-opacity="1" filter="url(#filter-2)" xlink:href="#path-1"></use>
                    <use fill="#FFFFFF" fill-rule="evenodd" xlink:href="#path-1"></use>
                </g>
            </g>
        </g>
    </g>
</svg>