<?xml version="1.0" encoding="UTF-8"?>
<svg width="70px" height="70px" viewBox="0 0 70 70" version="1.1" xmlns="http://www.w3.org/2000/svg" xmlns:xlink="http://www.w3.org/1999/xlink">
    <!-- Generator: Sketch 46.2 (44496) - http://www.bohemiancoding.com/sketch -->
    <title>see</title>
    <desc>Created with Sketch.</desc>
    <defs>
        <path d="M46.700864,27.3762906 C47.3616721,28.0373302 47.6922613,28.8349306 47.6920761,29.7692771 L47.6920761,41.6153383 C47.6920761,42.5497311 47.3614869,43.3474241 46.7005399,44.0082785 C46.0393613,44.6694107 45.2419461,45 44.3075997,45 L25.6924929,45 C24.7581001,45 23.960546,44.6694107 23.2994138,44.0082785 C22.6384205,43.3474241 22.3079238,42.5497311 22.3079238,41.6153383 L22.3079238,29.7692771 C22.3079238,28.8349306 22.6384205,28.0373302 23.2994138,27.3762906 C23.960546,26.7152973 24.7580538,26.384708 25.6924929,26.384708 L28.6539966,26.384708 L29.3282339,24.5867729 C29.4957281,24.1549554 29.8019133,23.7825042 30.2470673,23.4694655 C30.6922214,23.1565657 31.1483966,23 31.6155467,23 L38.3848237,23 C38.8520201,23 39.3081027,23.1565657 39.7532567,23.4694655 C40.198596,23.7825042 40.5047349,24.1549554 40.6722754,24.5867729 L41.3464201,26.384708 L44.3079238,26.384708 C45.2422703,26.384708 46.0397318,26.7152973 46.700864,27.3762906 Z M39.184508,39.8613527 C40.3436311,38.7023223 40.9231232,37.3074477 40.9231232,35.6770994 C40.9231232,34.0462418 40.3435848,32.6515524 39.184508,31.4925682 C38.0254775,30.333584 36.6307418,29.7539993 35.0000694,29.7539993 C33.369397,29.7539993 31.974615,30.3334451 30.8156308,31.4925682 C29.656693,32.6516913 29.077062,34.0462418 29.077062,35.6770994 C29.077062,37.3074477 29.6565077,38.7024612 30.8156308,39.8613527 C31.974754,41.0204295 33.3693507,41.6001069 35.0000694,41.6001069 C36.6307881,41.6001069 38.0254775,41.0204295 39.184508,39.8613527 Z M35.0000694,31.8879999 C36.0488417,31.8879999 36.9458181,32.2604512 37.6905816,33.0053073 C38.4353915,33.7501635 38.8078428,34.646862 38.8078428,35.6959585 C38.8078428,36.7447308 38.4353915,37.6415219 37.6905816,38.3863318 C36.9457718,39.1310027 36.0488417,39.5034077 35.0000694,39.5034077 C33.9511119,39.5034077 33.0543208,39.1310027 32.3095109,38.3863318 C31.564701,37.6415219 31.1922961,36.7446845 31.1922961,35.6959585 C31.1922961,34.6468157 31.564701,33.7501172 32.3095109,33.0053073 C33.0543208,32.2604049 33.9511582,31.8879999 35.0000694,31.8879999 Z" id="path-1"></path>
        <filter x="-1018.4%" y="-925.0%" width="2136.7%" height="2450.0%" filterUnits="objectBoundingBox" id="filter-2">
            <feOffset dx="0" dy="55" in="SourceAlpha" result="shadowOffsetOuter1"></feOffset>
            <feGaussianBlur stdDeviation="77" in="shadowOffsetOuter1" result="shadowBlurOuter1"></feGaussianBlur>
            <feColorMatrix values="0 0 0 0 0   0 0 0 0 0   0 0 0 0 0  0 0 0 0.1 0" type="matrix" in="shadowBlurOuter1"></feColorMatrix>
        </filter>
    </defs>
    <g id="Symbols" stroke="none" stroke-width="1" fill="none" fill-rule="evenodd">
        <g id="see">
            <g id="play">
                <circle id="Combined-Shape" stroke="none" stroke-width="3" cx="35" cy="35" r="33.5"></circle>
                <g id="Combined-Shape">
                    <use fill="black" fill-opacity="1" filter="url(#filter-2)" xlink:href="#path-1"></use>
                    <use fill="#FFFFFF" fill-rule="evenodd" xlink:href="#path-1"></use>
                </g>
            </g>
        </g>
    </g>
</svg>