<?xml version="1.0" encoding="UTF-8"?>
<svg width="13px" height="16px" viewBox="0 0 13 16" version="1.1" xmlns="http://www.w3.org/2000/svg" xmlns:xlink="http://www.w3.org/1999/xlink">
    <g id="Symbols" stroke="none" stroke-width="1" fill="none" fill-rule="evenodd">
        <g id="character" transform="translate(-14.000000, -12.000000)" fill="#889FBC">
            <path d="M20.4985765,19.5179782 C18.4515829,19.5179782 16.7576174,17.8402941 16.7576174,15.743189 C16.7576174,13.6460839 18.4515829,12 20.4985765,12 C22.5455701,12 24.2395356,13.6776841 24.2395356,15.7747892 C24.2395356,17.8718943 22.5455701,19.5179782 20.4985765,19.5179782 Z M23.0210192,20.3579568 C25.722823,21.2571265 26.997153,23.4720143 27,25.9569402 C27,26.1771841 26.8016589,26.3773188 26.4049768,26.5573443 C24.5265646,27.5191148 22.5577645,28 20.4985765,28 C18.4393885,28 16.4715374,27.5191148 14.5950232,26.5573443 C14.1983411,26.3773188 14,26.1771841 14,25.9569402 C14,23.4720143 15.27433,21.2571265 17.9761338,20.3579568 C18.1146878,20.3196535 18.3225189,20.3799812 18.599627,20.5389398 L20.4985765,21.7633296 L22.397526,20.5389398 C22.6556541,20.378066 22.8634852,20.3177383 23.0210192,20.3579568 Z" id="Combined-Shape"></path>
        </g>
    </g>
</svg>