<?xml version="1.0" encoding="UTF-8"?>
<svg width="24px" height="24px" viewBox="0 0 24 24" version="1.1" xmlns="http://www.w3.org/2000/svg" xmlns:xlink="http://www.w3.org/1999/xlink">
    <!-- Generator: Sketch 46.2 (44496) - http://www.bohemiancoding.com/sketch -->
    <title>icon-profile__video</title>
    <desc>Created with Sketch.</desc>
    <defs></defs>
    <g id="Symbols" stroke="none" stroke-width="1" fill="none" fill-rule="evenodd">
        <g id="video" fill-rule="nonzero" fill="#333333">
            <path d="M12,24 C5.372583,24 0,18.627417 0,12 C0,5.372583 5.372583,0 12,0 C18.627417,0 24,5.372583 24,12 C24,18.627417 18.627417,24 12,24 Z M18.105658,9.45795561 C18.105658,9.0678337 17.6805252,8.82025633 17.3429197,9.02031885 L15.2272585,10.2407002 L15.2272585,9.89309159 C15.2272585,8.84776493 14.3794936,8 13.3341669,8 L8.78743357,8 C7.74210691,8 6.89434198,8.84776493 6.89434198,9.89309159 L6.89434198,14.1069084 C6.89434198,15.1522351 7.74210691,16 8.78743357,16 L13.3316661,16 C14.3769928,16 15.2247577,15.1522351 15.2247577,14.1069084 L15.2247577,13.7592998 L17.3404189,14.9796812 C17.6805252,15.1747421 18.105658,14.9296655 18.105658,14.5370428 L18.105658,9.45795561 Z" id="Combined-Shape"></path>
        </g>
    </g>
</svg>