<?xml version="1.0" encoding="UTF-8"?>
<svg width="22px" height="25px" viewBox="0 0 22 25" version="1.1" xmlns="http://www.w3.org/2000/svg" xmlns:xlink="http://www.w3.org/1999/xlink">
    <!-- Generator: Sketch 46.2 (44496) - http://www.bohemiancoding.com/sketch -->
    <title>calendar_icon</title>
    <desc>Created with Sketch.</desc>
    <defs></defs>
    <g id="main" stroke="none" stroke-width="1" fill="none" fill-rule="evenodd" opacity="0.5">
        <g transform="translate(-314.000000, -247.000000)" id="search" stroke="#889FBC" fill="#889FBC">
            <g transform="translate(25.000000, 160.000000)">
                <g id="field" transform="translate(0.000000, 70.000000)">
                    <g id="calendar_icon" transform="translate(275.000000, 0.000000)">
                        <g id="icon" transform="translate(15.000000, 18.000000)">
                            <path d="M19.9557204,3.00118225 C19.9557204,2.4832312 19.5394923,2.05614875 19.034705,2.05614875 L15.6251769,2.05614875 L15.6251769,0.947286943 C15.6251769,0.429335885 15.2089488,0.00225343448 14.7041616,0.00225343448 C14.1993743,0.00225343448 13.7831462,0.429335885 13.7831462,0.947286943 L13.7831462,2.05614875 L6.12386668,2.05614875 L6.12386668,1.77445606 C6.12386668,0.429335885 5.70763858,0.00225343448 5.2028513,0.00225343448 C4.69806403,0.00225343448 4.28183592,0.429335885 4.28183592,0.947286943 L4.28183592,2.05614875 L0.921015379,2.05614875 C0.416228104,2.05614875 0,2.4832312 0,3.00118225 L0,19.6119635 C0,21.506574 1.49664999,23.0422534 3.34310871,23.0422534 L16.6568913,23.0422534 C18.50335,23.0422534 20,21.506574 20,19.6119635 L19.9557204,3.00118225 Z M1.79775117,3.94621576 L4.28626388,3.94621576 L4.28626388,4.27788618 C4.28626388,4.79583723 4.70249198,5.22291968 5.20727926,5.22291968 C5.66778695,5.22291968 6.08401505,4.79583723 6.12829464,4.32332048 L6.12829464,3.94621576 L13.7831462,3.94621576 L13.7831462,4.27788618 C13.7831462,4.79583723 14.1993743,5.22291968 14.7041616,5.22291968 C15.2089488,5.22291968 15.6251769,4.79583723 15.6251769,4.32332048 L15.6251769,3.94621576 L18.1136897,3.94621576 L18.1136897,7.54006915 L1.79775117,7.54006915 L1.79775117,3.94621576 Z M18.1579692,19.416596 C18.1579692,20.397977 17.3830765,21.1976207 16.4222095,21.1976207 L3.57779051,21.1976207 C2.62135146,21.1976207 1.84203076,20.4025204 1.84203076,19.416596 L1.84203076,9.38015844 L18.1579692,9.38015844 L18.1579692,19.416596 Z" id="Shape" stroke-width="0.2" fill-rule="nonzero"></path>
                            <path d="M12.0422189,18.6381297 L7.95563334,18.6381297 C7.68736733,18.6381297 7.44145682,18.4758824 7.33862152,18.2234978 C7.23578622,17.9711131 7.28943942,17.6826735 7.47722562,17.4888781 L10.5399292,14.3520973 C10.66512,14.1718226 10.7321865,13.9599997 10.7321865,13.7391632 C10.7321865,13.1532702 10.2582499,12.680049 9.681478,12.680049 C9.10470608,12.680049 8.63076946,13.1577771 8.63076946,13.7391632 C8.63076946,14.1132333 8.33120575,14.4151935 7.96010444,14.4151935 C7.58900313,14.4151935 7.28943942,14.1132333 7.28943942,13.7391632 C7.28943942,12.4096368 8.36250345,11.3279883 9.681478,11.3279883 C11.0004525,11.3279883 12.0735166,12.4096368 12.0735166,13.7391632 C12.0735166,14.2709737 11.9036148,14.775743 11.5861667,15.1993887 C11.5682823,15.2219231 11.5503979,15.2444574 11.5325135,15.2624849 L9.55628719,17.286069 L12.0422189,17.286069 C12.4133202,17.286069 12.7128839,17.5880293 12.7128839,17.9620994 C12.7128839,18.3361695 12.4133202,18.6381297 12.0422189,18.6381297 Z" id="Shape" stroke-width="0.2" fill-rule="nonzero"></path>
                        </g>
                    </g>
                </g>
            </g>
        </g>
    </g>
</svg>