<?xml version="1.0" encoding="UTF-8"?>
<svg width="24px" height="24px" viewBox="0 0 24 24" version="1.1" xmlns="http://www.w3.org/2000/svg" xmlns:xlink="http://www.w3.org/1999/xlink">
    <!-- Generator: Sketch 46.2 (44496) - http://www.bohemiancoding.com/sketch -->
    <title>icon-profile__photo</title>
    <desc>Created with Sketch.</desc>
    <defs></defs>
    <g id="Symbols" stroke="none" stroke-width="1" fill="none" fill-rule="evenodd">
        <g id="photo" fill="#0099FF">
            <path d="M12,24 C5.372583,24 0,18.627417 0,12 C0,5.372583 5.372583,0 12,0 C18.627417,0 24,5.372583 24,12 C24,18.627417 18.627417,24 12,24 Z M17.3160526,8.48922298 C17.015538,8.18877148 16.6530554,8.03850364 16.2283525,8.03850364 L14.8822144,8.03850364 L14.5757851,7.22126041 C14.4996303,7.02497974 14.3604762,6.85568372 14.1580493,6.71339339 C13.9557066,6.57116621 13.7483963,6.5 13.5360343,6.5 L10.4590902,6.5 C10.2467492,6.5 10.0393968,6.57116621 9.8370541,6.71339339 C9.63471136,6.85568372 9.49553627,7.02497974 9.41940252,7.22126041 L9.11293105,8.03850364 L7.76679299,8.03850364 C7.34204795,8.03850364 6.97954439,8.18877148 6.67902975,8.48922298 C6.37857825,8.78969553 6.2283525,9.15224118 6.2283525,9.57694413 L6.2283525,14.9615174 C6.2283525,15.3862414 6.37857825,15.7488292 6.67902975,16.0492175 C6.97954439,16.3497322 7.34206899,16.5 7.76679299,16.5 L16.2282052,16.5 C16.6529081,16.5 17.0153696,16.3497322 17.3159053,16.0492175 C17.6163357,15.7488292 17.7666036,15.3862414 17.7666036,14.9615174 L17.7666036,9.57694413 C17.7666877,9.15224118 17.6164199,8.78969553 17.3160526,8.48922298 Z M13.8995271,14.1642512 C13.3726951,14.6911043 12.7387454,14.954594 11.9975096,14.954594 C11.2562738,14.954594 10.6223662,14.6911043 10.0954921,14.1642512 C9.56861793,13.6374824 9.30523348,13.0033853 9.30523348,12.2623179 C9.30523348,11.521019 9.56870212,10.8871324 10.0954921,10.3602583 C10.6223031,9.83338414 11.2562949,9.56999969 11.9975096,9.56999969 C12.7387243,9.56999969 13.3726951,9.83344729 13.8995271,10.3602583 C14.4263802,10.8870693 14.6898068,11.521019 14.6898068,12.2623179 C14.6898068,13.0033853 14.4264013,13.6374192 13.8995271,14.1642512 Z M11.9975096,10.54 C11.5207318,10.54 11.1130784,10.7092749 10.7745284,11.047867 C10.4359785,11.3864169 10.2667035,11.7940071 10.2667035,12.2708902 C10.2667035,12.7475839 10.4359785,13.1552372 10.7745284,13.4937872 C11.1130784,13.832274 11.5207107,14.0015489 11.9975096,14.0015489 C12.4742243,14.0015489 12.8819198,13.832274 13.2204697,13.4937872 C13.5590196,13.1552372 13.7283157,12.7476049 13.7283157,12.2708902 C13.7283157,11.7940282 13.5590196,11.386438 13.2204697,11.047867 C12.8819408,10.709296 12.4742243,10.54 11.9975096,10.54 Z" id="Combined-Shape"></path>
        </g>
    </g>
</svg>