<?xml version="1.0" encoding="UTF-8"?>
<svg width="16px" height="17px" viewBox="0 0 16 17" version="1.1" xmlns="http://www.w3.org/2000/svg" xmlns:xlink="http://www.w3.org/1999/xlink">
    <!-- Generator: Sketch 46.2 (44496) - http://www.bohemiancoding.com/sketch -->
    <title>Shape</title>
    <desc>Created with Sketch.</desc>
    <defs></defs>
    <g id="Symbols" stroke="none" stroke-width="1" fill="none" fill-rule="evenodd">
        <g id="phone_invert" transform="translate(-12.000000, -11.000000)" stroke="#333333" fill-rule="nonzero" stroke-width="0.5" fill="#333333">
            <path d="M13.8096306,26.5070792 C13.8385509,26.5359996 13.8771,26.56492 13.9156832,26.5938403 L14.4458783,26.921593 C14.4651699,26.9312217 14.4940902,26.9505133 14.5133478,26.9601421 C15.3134889,27.3168151 16.2100198,27.5 17.1065507,27.5 C18.6489582,27.5 20.0275063,26.9601421 21.0011695,25.9865129 L26.0043904,20.983292 C27.5564607,19.4312217 27.942054,16.7705493 26.9394705,14.5147619 C26.9298417,14.4858415 26.9105501,14.4569212 26.8912585,14.4280008 L26.5538431,13.9170632 C26.5345515,13.8881429 26.5056312,13.8592225 26.4863736,13.8303022 L25.5898427,12.9337713 C25.310302,12.6542305 24.9343374,12.5 24.548744,12.5 C24.192071,12.5 23.8450268,12.6446018 23.5943724,12.8952562 L20.9915407,15.4980879 C20.442054,16.0475745 20.4613456,16.9441055 21.0204611,17.5032209 L22.0423022,18.525062 L18.5622311,22.0051671 L17.5210985,20.9640344 C17.2704441,20.6844597 16.9137711,20.5398579 16.5281777,20.5398579 C16.1618419,20.5398579 15.8147977,20.6844597 15.5448857,20.9447428 L12.942054,23.5475745 C12.6817709,23.8078577 12.5275403,24.1741935 12.5082487,24.5501581 C12.4889572,24.9454143 12.6335589,25.3310076 12.9035049,25.6009196 L13.8096306,26.5070792 Z M13.7614527,24.3669732 L16.3642844,21.7641415 C16.4606742,21.6677517 16.6149388,21.6773804 16.7209574,21.7834331 L18.166975,23.2294507 C18.388709,23.4511847 18.7550108,23.4511847 18.9863736,23.2294507 L23.2762145,18.9396098 C23.3822672,18.8335571 23.4497366,18.6793266 23.4497366,18.5347248 C23.4497366,18.3901231 23.3918959,18.2358925 23.2762145,18.1298399 L21.8494885,16.6838223 C21.7434359,16.5777697 21.7241783,16.4042475 21.8205681,16.3078577 L24.4233998,13.705026 C24.461949,13.6664769 24.5005321,13.6471853 24.5583728,13.6471853 C24.6355051,13.6471853 24.7222662,13.6857344 24.7801069,13.7435751 L25.6284258,14.5918941 L25.9080006,15.0160706 C26.8238231,17.1368851 26.1875753,19.1613098 25.1946206,20.1446018 L20.1913996,25.1671143 C19.4298417,25.9286722 18.3404971,26.3432199 17.1065507,26.3432199 C16.3835419,26.3432199 15.6605331,26.1986182 15.0242854,25.9190434 L14.5808513,25.6491315 L13.7228695,24.7911497 C13.6650288,24.733309 13.6650288,24.6465479 13.6650288,24.6079988 C13.6746916,24.5115749 13.7132407,24.4248139 13.7614527,24.3669732 Z" id="Shape" transform="translate(20.000000, 20.000000) rotate(-5.000000) translate(-20.000000, -20.000000) "></path>
        </g>
    </g>
</svg>