<?xml version="1.0" encoding="UTF-8"?>
<svg width="140px" height="38px" viewBox="0 0 140 38" version="1.1" xmlns="http://www.w3.org/2000/svg" xmlns:xlink="http://www.w3.org/1999/xlink">
    <!-- Generator: Sketch 50.2 (55047) - http://www.bohemiancoding.com/sketch -->
    <title>Combined Shape</title>
    <desc>Created with Sketch.</desc>
    <defs></defs>
    <g id="Symbols" stroke="none" stroke-width="1" fill="none" fill-rule="evenodd">
        <g id="d_top" transform="translate(-30.000000, -21.000000)" fill="#FFFFFF" fill-rule="nonzero">
            <g id="user" transform="translate(30.000000, 21.333333)">
                <path d="M0.000815294628,3.23810945 C0.045758411,1.19422521 1.64123904,0.425021467 1.61876748,0.425021467 C3.37154902,-0.695818277 5.97824977,0.754680215 5.97824977,0.754680215 C5.97824977,0.754680215 24.8094155,9.19394417 27.2138723,10.2928067 C28.292507,10.7982834 29.05654,11.3037602 29.4385565,12.0509867 C29.9104592,12.9520539 29.8655161,14.1168481 29.8655161,14.9959381 C29.8655161,16.5783001 29.8655161,20.3803644 29.8655161,23.0835661 C29.8655161,24.1164968 29.6632721,24.9736096 29.3037272,25.5450181 C28.7194667,26.4460853 27.888019,26.7098123 27.888019,26.7098123 C27.888019,26.7098123 6.22543691,36.4677113 5.32657458,36.8633018 C4.45018382,37.2588923 3.03447565,37.6544828 1.61876748,36.9292335 C-0.0890709381,36.0501435 0.000815294628,34.1161455 0.000815294628,34.1161455 L0.000815294628,3.23810945 Z M2.4726867,33.7645095 C2.4726867,34.3798725 2.98953253,34.863372 3.64120772,34.863372 C3.79850863,34.863372 3.95580954,34.8413948 4.09063888,34.775463 C4.09063888,34.775463 25.753221,25.0834958 26.2251237,24.8417461 C26.6970264,24.5999963 27.3936447,24.4022011 27.3936447,22.8198391 C27.3936447,21.2374771 27.3936447,15.8090964 27.3936447,15.8090964 C27.3936447,15.8090964 27.3711732,14.7322111 26.2251237,14.7322111 C25.0790742,14.7322111 25.0116596,15.8090964 25.0116596,15.8090964 L25.0116596,18.7100934 C25.0116596,18.7100934 25.0116596,20.3583871 23.3262927,20.3583871 C21.6409258,20.3583871 21.6409258,18.7100934 21.6409258,18.7100934 L21.6409258,18.1606621 C21.6409258,18.1606621 21.5959827,17.0617996 20.5173479,17.0617996 C19.4387131,17.0617996 19.39377,18.1606621 19.39377,18.1606621 L19.39377,24.0505651 C19.39377,24.0505651 19.3263553,25.6988588 17.7084031,25.6988588 C16.090451,25.6988588 16.0230363,24.0505651 16.0230363,24.0505651 L16.0230363,20.4682734 C16.0230363,20.4682734 15.9780932,19.3694109 14.8994584,19.3694109 C13.8208236,19.3694109 13.7758805,20.4682734 13.7758805,20.4682734 L13.7758805,23.3253159 C13.7758805,23.3253159 13.7309373,24.9736096 12.0905136,24.9736096 C10.4500899,24.9736096 10.4051467,23.3253159 10.4051467,23.3253159 L10.4051467,22.7978619 C10.4051467,22.7978619 10.3602036,21.6989994 9.28156883,21.6989994 C8.20293403,21.6989994 8.15799092,22.7978619 8.15799092,22.7978619 L8.15799092,26.6219033 C8.15799092,26.6219033 8.04563312,28.2701971 6.47262405,28.2701971 C4.89961498,28.2701971 4.78725719,26.6219033 4.78725719,26.6219033 L4.78725719,25.1494276 C4.78725719,25.1494276 4.78725719,24.0505651 3.61873616,24.0505651 C2.45021514,24.0505651 2.45021514,25.1494276 2.45021514,25.1494276 L2.45021514,33.7645095 L2.4726867,33.7645095 Z M46.722,24.1666667 C46.5819993,24.1666667 46.4595005,24.1141672 46.3545,24.0091667 C46.2494995,23.9041661 46.197,23.7816674 46.197,23.6416667 L46.197,13.7716667 C46.197,13.6176659 46.2494995,13.4916672 46.3545,13.3936667 C46.4595005,13.2956662 46.5819993,13.2466667 46.722,13.2466667 L49.305,13.2466667 C49.4590008,13.2466667 49.5849995,13.2956662 49.683,13.3936667 C49.7810005,13.4916672 49.83,13.6176659 49.83,13.7716667 L49.83,14.5696667 C50.2080019,14.1076644 50.694497,13.7366681 51.2895,13.4566667 C51.884503,13.1766653 52.5669962,13.0366667 53.337,13.0366667 C54.135004,13.0366667 54.8454969,13.2186648 55.4685,13.5826667 C56.0915031,13.9466685 56.5814982,14.4856631 56.9385,15.1996667 C57.2955018,15.9136702 57.474,16.7746616 57.474,17.7826667 L57.474,23.6416667 C57.474,23.7816674 57.4250005,23.9041661 57.327,24.0091667 C57.2289995,24.1141672 57.1030008,24.1666667 56.949,24.1666667 L54.156,24.1666667 C54.0019992,24.1666667 53.8725005,24.1176672 53.7675,24.0196667 C53.6624995,23.9216662 53.61,23.7956674 53.61,23.6416667 L53.61,17.9086667 C53.61,17.2786635 53.4595015,16.7956683 53.1585,16.4596667 C52.8574985,16.123665 52.4200029,15.9556667 51.846,15.9556667 C51.2859972,15.9556667 50.8450016,16.127165 50.523,16.4701667 C50.2009984,16.8131684 50.04,17.2926636 50.04,17.9086667 L50.04,23.6416667 C50.04,23.7816674 49.9910005,23.9041661 49.893,24.0091667 C49.7949995,24.1141672 49.6690008,24.1666667 49.515,24.1666667 L46.722,24.1666667 Z M62.8966667,24.3766667 C62.154663,24.3766667 61.4791697,24.2331681 60.8701667,23.9461667 C60.2611637,23.6591652 59.7851684,23.2636692 59.4421667,22.7596667 C59.099165,22.2556641 58.9276667,21.7026697 58.9276667,21.1006667 C58.9276667,20.1486619 59.3231627,19.3751696 60.1141667,18.7801667 C60.9051707,18.1851637 61.9936598,17.7756678 63.3796667,17.5516667 L65.9836667,17.1526667 L65.9836667,16.9006667 C65.9836667,16.3826641 65.8786678,16.0046679 65.6686667,15.7666667 C65.4586657,15.5286655 65.1016692,15.4096667 64.5976667,15.4096667 C64.3176653,15.4096667 64.0831676,15.4586662 63.8941667,15.5566667 C63.7051658,15.6546672 63.4916679,15.8016657 63.2536667,15.9976667 C63.0716658,16.1516674 62.9106674,16.2636663 62.7706667,16.3336667 C62.7146664,16.4316672 62.6446671,16.4806667 62.5606667,16.4806667 L60.1246667,16.4806667 C59.984666,16.4806667 59.8691672,16.4351671 59.7781667,16.3441667 C59.6871662,16.2531662 59.6486666,16.1446673 59.6626667,16.0186667 C59.6766668,15.6406648 59.8656649,15.217169 60.2296667,14.7481667 C60.5936685,14.2791643 61.146663,13.8766683 61.8886667,13.5406667 C62.6306704,13.204665 63.5476612,13.0366667 64.6396667,13.0366667 C66.3756754,13.0366667 67.6636625,13.4181629 68.5036667,14.1811667 C69.3436709,14.9441705 69.7636667,15.9766602 69.7636667,17.2786667 L69.7636667,23.6416667 C69.7636667,23.7816674 69.7146672,23.9041661 69.6166667,24.0091667 C69.5186662,24.1141672 69.3926675,24.1666667 69.2386667,24.1666667 L66.6556667,24.1666667 C66.515666,24.1666667 66.3931672,24.1141672 66.2881667,24.0091667 C66.1831662,23.9041661 66.1306667,23.7816674 66.1306667,23.6416667 L66.1306667,22.9066667 C65.8226652,23.3406688 65.3956694,23.6941653 64.8496667,23.9671667 C64.303664,24.240168 63.6526705,24.3766667 62.8966667,24.3766667 Z M63.9466667,21.8986667 C64.5626698,21.8986667 65.0631648,21.6956687 65.4481667,21.2896667 C65.8331686,20.8836646 66.0256667,20.2956705 66.0256667,19.5256667 L66.0256667,19.2736667 L64.2826667,19.5676667 C63.1066608,19.7916678 62.5186667,20.2116636 62.5186667,20.8276667 C62.5186667,21.1496683 62.6551653,21.4086657 62.9281667,21.6046667 C63.2011681,21.8006676 63.5406647,21.8986667 63.9466667,21.8986667 Z M76.9713334,24.3766667 C75.3753254,24.3766667 74.0838383,23.9531709 73.0968334,23.1061667 C72.1098285,22.2591624 71.5813337,21.0796742 71.5113334,19.5676667 L71.4903334,18.7276667 L71.5113334,17.8666667 C71.5673337,16.3546591 72.0923284,15.1716709 73.0863334,14.3176667 C74.0803384,13.4636624 75.3753254,13.0366667 76.9713334,13.0366667 C78.1893395,13.0366667 79.2113293,13.2536645 80.0373334,13.6876667 C80.8633375,14.1216688 81.4793314,14.6361637 81.8853334,15.2311667 C82.2913354,15.8261696 82.5083333,16.3686642 82.5363334,16.8586667 C82.5503335,17.0126674 82.501334,17.1421661 82.3893334,17.2471667 C82.2773328,17.3521672 82.1443342,17.4046667 81.9903334,17.4046667 L79.1763334,17.4046667 C79.0223326,17.4046667 78.9033338,17.369667 78.8193334,17.2996667 C78.735333,17.2296663 78.6583337,17.1176674 78.5883334,16.9636667 C78.4343326,16.5716647 78.2348346,16.2846676 77.9898334,16.1026667 C77.7448322,15.9206658 77.4333353,15.8296667 77.0553334,15.8296667 C75.977328,15.8296667 75.4173336,16.5436595 75.3753334,17.9716667 L75.3543334,18.7696667 L75.3753334,19.4626667 C75.3893335,20.1906703 75.536332,20.726165 75.8163334,21.0691667 C76.0963348,21.4121684 76.5093307,21.5836667 77.0553334,21.5836667 C77.4613354,21.5836667 77.7798322,21.4961675 78.0108334,21.3211667 C78.2418346,21.1461658 78.4343326,20.8556687 78.5883334,20.4496667 C78.6583337,20.2956659 78.735333,20.183667 78.8193334,20.1136667 C78.9033338,20.0436663 79.0223326,20.0086667 79.1763334,20.0086667 L81.9903334,20.0086667 C82.1303341,20.0086667 82.2563328,20.0576662 82.3683334,20.1556667 C82.480334,20.2536672 82.5363334,20.372666 82.5363334,20.5126667 C82.5363334,20.9466688 82.3438353,21.4681636 81.9588334,22.0771667 C81.5738315,22.6861697 80.9613376,23.2216644 80.1213334,23.6836667 C79.2813292,24.145669 78.2313397,24.3766667 76.9713334,24.3766667 Z M84.7250001,24.1666667 C84.5709993,24.1666667 84.4415006,24.1176672 84.3365001,24.0196667 C84.2314996,23.9216662 84.1790001,23.7956674 84.1790001,23.6416667 L84.1790001,9.78166667 C84.1790001,9.6276659 84.2314996,9.50166716 84.3365001,9.40366667 C84.4415006,9.30566618 84.5709993,9.25666667 84.7250001,9.25666667 L87.5600001,9.25666667 C87.7140009,9.25666667 87.8434996,9.30566618 87.9485001,9.40366667 C88.0535006,9.50166716 88.1060001,9.6276659 88.1060001,9.78166667 L88.1060001,14.4646667 C88.9180042,13.5126619 90.0169932,13.0366667 91.4030001,13.0366667 C92.2010041,13.0366667 92.9219969,13.2186648 93.5660001,13.5826667 C94.2100033,13.9466685 94.7139983,14.4856631 95.0780001,15.1996667 C95.4420019,15.9136702 95.6240001,16.7746616 95.6240001,17.7826667 L95.6240001,23.6416667 C95.6240001,23.7956674 95.5715006,23.9216662 95.4665001,24.0196667 C95.3614996,24.1176672 95.2320009,24.1666667 95.0780001,24.1666667 L92.2220001,24.1666667 C92.0819994,24.1666667 91.9595006,24.1141672 91.8545001,24.0091667 C91.7494996,23.9041661 91.6970001,23.7816674 91.6970001,23.6416667 L91.6970001,17.9086667 C91.6970001,17.2926636 91.5430016,16.8131684 91.2350001,16.4701667 C90.9269986,16.127165 90.486003,15.9556667 89.9120001,15.9556667 C89.3519973,15.9556667 88.9110017,16.127165 88.5890001,16.4701667 C88.2669985,16.8131684 88.1060001,17.2926636 88.1060001,17.9086667 L88.1060001,23.6416667 C88.1060001,23.7956674 88.0535006,23.9216662 87.9485001,24.0196667 C87.8434996,24.1176672 87.7140009,24.1666667 87.5600001,24.1666667 L84.7250001,24.1666667 Z M98.2746668,11.7346667 C98.120666,11.7346667 97.9946673,11.6821672 97.8966668,11.5771667 C97.7986663,11.4721661 97.7496668,11.3426674 97.7496668,11.1886667 L97.7496668,9.23566667 C97.7496668,9.0816659 97.8021663,8.95216719 97.9071668,8.84716667 C98.0121673,8.74216614 98.1346661,8.68966667 98.2746668,8.68966667 L100.899667,8.68966667 C101.053668,8.68966667 101.183166,8.74216614 101.288167,8.84716667 C101.393167,8.95216719 101.445667,9.0816659 101.445667,9.23566667 L101.445667,11.1886667 C101.445667,11.3426674 101.393167,11.4721661 101.288167,11.5771667 C101.183166,11.6821672 101.053668,11.7346667 100.899667,11.7346667 L98.2746668,11.7346667 Z M98.2746668,24.1666667 C98.1346661,24.1666667 98.0121673,24.1141672 97.9071668,24.0091667 C97.8021663,23.9041661 97.7496668,23.7816674 97.7496668,23.6416667 L97.7496668,13.7716667 C97.7496668,13.6176659 97.8021663,13.4916672 97.9071668,13.3936667 C98.0121673,13.2956662 98.1346661,13.2466667 98.2746668,13.2466667 L100.899667,13.2466667 C101.053668,13.2466667 101.183166,13.2956662 101.288167,13.3936667 C101.393167,13.4916672 101.445667,13.6176659 101.445667,13.7716667 L101.445667,23.6416667 C101.445667,23.7956674 101.393167,23.9216662 101.288167,24.0196667 C101.183166,24.1176672 101.053668,24.1666667 100.899667,24.1666667 L98.2746668,24.1666667 Z M104.201333,24.1666667 C104.061333,24.1666667 103.938834,24.1141672 103.833833,24.0091667 C103.728833,23.9041661 103.676333,23.7816674 103.676333,23.6416667 L103.676333,13.7716667 C103.676333,13.6176659 103.728833,13.4916672 103.833833,13.3936667 C103.938834,13.2956662 104.061333,13.2466667 104.201333,13.2466667 L106.784333,13.2466667 C106.938334,13.2466667 107.064333,13.2956662 107.162334,13.3936667 C107.260334,13.4916672 107.309333,13.6176659 107.309333,13.7716667 L107.309333,14.5696667 C107.687335,14.1076644 108.173831,13.7366681 108.768833,13.4566667 C109.363836,13.1766653 110.04633,13.0366667 110.816333,13.0366667 C111.614337,13.0366667 112.32483,13.2186648 112.947834,13.5826667 C113.570837,13.9466685 114.060832,14.4856631 114.417834,15.1996667 C114.774835,15.9136702 114.953333,16.7746616 114.953333,17.7826667 L114.953333,23.6416667 C114.953333,23.7816674 114.904334,23.9041661 114.806333,24.0091667 C114.708333,24.1141672 114.582334,24.1666667 114.428333,24.1666667 L111.635334,24.1666667 C111.481333,24.1666667 111.351834,24.1176672 111.246833,24.0196667 C111.141833,23.9216662 111.089333,23.7956674 111.089333,23.6416667 L111.089333,17.9086667 C111.089333,17.2786635 110.938835,16.7956683 110.637833,16.4596667 C110.336832,16.123665 109.899336,15.9556667 109.325333,15.9556667 C108.765331,15.9556667 108.324335,16.127165 108.002334,16.4701667 C107.680332,16.8131684 107.519333,17.2926636 107.519334,17.9086667 L107.519334,23.6416667 C107.519333,23.7816674 107.470334,23.9041661 107.372333,24.0091667 C107.274333,24.1141672 107.148334,24.1666667 106.994333,24.1666667 L104.201333,24.1666667 Z M117.625,24.1666667 C117.470999,24.1666667 117.341501,24.1176672 117.2365,24.0196667 C117.1315,23.9216662 117.079,23.7956674 117.079,23.6416667 L117.079,9.78166667 C117.079,9.6276659 117.1315,9.50166716 117.2365,9.40366667 C117.341501,9.30566618 117.470999,9.25666667 117.625,9.25666667 L120.187,9.25666667 C120.341001,9.25666667 120.467,9.30566618 120.565,9.40366667 C120.663001,9.50166716 120.712,9.6276659 120.712,9.78166667 L120.712,16.7956667 L123.505,13.6036667 C123.533,13.5756665 123.5855,13.526667 123.6625,13.4566667 C123.739501,13.3866663 123.82,13.3341668 123.904,13.2991667 C123.988001,13.2641665 124.093,13.2466667 124.219,13.2466667 L127.18,13.2466667 C127.306001,13.2466667 127.4145,13.2921662 127.5055,13.3831667 C127.596501,13.4741671 127.642,13.589666 127.642,13.7296667 C127.642,13.8556673 127.593001,13.9676662 127.495,14.0656667 L123.799,18.1396667 L128.02,23.3686667 C128.118001,23.4946673 128.167,23.5996662 128.167,23.6836667 C128.167,23.8236674 128.121501,23.9391662 128.0305,24.0301667 C127.9395,24.1211671 127.824001,24.1666667 127.684,24.1666667 L124.639,24.1666667 C124.456999,24.1666667 124.320501,24.1386669 124.2295,24.0826667 C124.1385,24.0266664 124.030001,23.9356673 123.904,23.8096667 L120.712,19.8616667 L120.712,23.6416667 C120.712,23.7816674 120.663001,23.9041661 120.565,24.0091667 C120.467,24.1141672 120.341001,24.1666667 120.187,24.1666667 L117.625,24.1666667 Z M132.392667,24.3766667 C131.650663,24.3766667 130.97517,24.2331681 130.366167,23.9461667 C129.757164,23.6591652 129.281169,23.2636692 128.938167,22.7596667 C128.595165,22.2556641 128.423667,21.7026697 128.423667,21.1006667 C128.423667,20.1486619 128.819163,19.3751696 129.610167,18.7801667 C130.401171,18.1851637 131.48966,17.7756678 132.875667,17.5516667 L135.479667,17.1526667 L135.479667,16.9006667 C135.479667,16.3826641 135.374668,16.0046679 135.164667,15.7666667 C134.954666,15.5286655 134.597669,15.4096667 134.093667,15.4096667 C133.813666,15.4096667 133.579168,15.4586662 133.390167,15.5566667 C133.201166,15.6546672 132.987668,15.8016657 132.749667,15.9976667 C132.567666,16.1516674 132.406668,16.2636663 132.266667,16.3336667 C132.210667,16.4316672 132.140667,16.4806667 132.056667,16.4806667 L129.620667,16.4806667 C129.480666,16.4806667 129.365167,16.4351671 129.274167,16.3441667 C129.183166,16.2531662 129.144667,16.1446673 129.158667,16.0186667 C129.172667,15.6406648 129.361665,15.217169 129.725667,14.7481667 C130.089669,14.2791643 130.642663,13.8766683 131.384667,13.5406667 C132.126671,13.204665 133.043661,13.0366667 134.135667,13.0366667 C135.871676,13.0366667 137.159663,13.4181629 137.999667,14.1811667 C138.839671,14.9441705 139.259667,15.9766602 139.259667,17.2786667 L139.259667,23.6416667 C139.259667,23.7816674 139.210667,23.9041661 139.112667,24.0091667 C139.014666,24.1141672 138.888668,24.1666667 138.734667,24.1666667 L136.151667,24.1666667 C136.011666,24.1666667 135.889167,24.1141672 135.784167,24.0091667 C135.679166,23.9041661 135.626667,23.7816674 135.626667,23.6416667 L135.626667,22.9066667 C135.318665,23.3406688 134.89167,23.6941653 134.345667,23.9671667 C133.799664,24.240168 133.148671,24.3766667 132.392667,24.3766667 Z M133.442667,21.8986667 C134.05867,21.8986667 134.559165,21.6956687 134.944167,21.2896667 C135.329169,20.8836646 135.521667,20.2956705 135.521667,19.5256667 L135.521667,19.2736667 L133.778667,19.5676667 C132.602661,19.7916678 132.014667,20.2116636 132.014667,20.8276667 C132.014667,21.1496683 132.151166,21.4086657 132.424167,21.6046667 C132.697168,21.8006676 133.036665,21.8986667 133.442667,21.8986667 Z" id="Combined-Shape"></path>
            </g>
        </g>
    </g>
</svg>