<?xml version="1.0" encoding="UTF-8"?>
<svg width="60px" height="60px" viewBox="0 0 60 60" version="1.1" xmlns="http://www.w3.org/2000/svg" xmlns:xlink="http://www.w3.org/1999/xlink">
    <!-- Generator: Sketch 46.2 (44496) - http://www.bohemiancoding.com/sketch -->
    <title>clear</title>
    <desc>Created with Sketch.</desc>
    <defs></defs>
    <g id="Symbols" stroke="none" stroke-width="1" fill="none" fill-rule="evenodd">
        <g id="clear" fill-rule="nonzero" fill="#FFFFFF">
            <g id="dustbin" transform="translate(19.472975, 17.893921)">
                <path d="M18.1747026,0.600439505 L2.54031541,0.600439505 C1.15959427,0.600439505 0.036287116,1.72374666 0.036287116,3.10439537 L0.036287116,5.3821543 C0.036287116,5.88213427 0.441674319,6.28752147 0.941654283,6.28752147 L2.64439642,6.28752147 L2.64439642,22.1414021 C2.64439642,22.641382 3.04978362,23.0467692 3.54976359,23.0467692 L17.165182,23.0467692 C17.6650896,23.0467692 18.0705492,22.641382 18.0705492,22.1414021 L18.0705492,6.2875939 L19.7733638,6.2875939 C20.2733437,6.2875939 20.6787309,5.8822067 20.6787309,5.38222673 L20.6787309,3.1044678 C20.6787309,1.72374666 19.5554238,0.600439505 18.1747026,0.600439505 Z M16.2598873,21.2361073 L4.45520318,21.2361073 L4.45520318,6.2875939 L16.2598873,6.2875939 L16.2598873,21.2361073 Z M1.84709388,4.47685957 L1.84709388,3.1044678 C1.84709388,2.722258 2.15803318,2.41124627 2.54038784,2.41124627 L18.1746302,2.41124627 C18.55684,2.41124627 18.8679242,2.722258 18.8679242,3.1044678 L18.8679966,4.47685957 L1.84709388,4.47685957 Z" id="Shape"></path>
                <path d="M7.98497626,18.112156 C8.48495623,18.112156 8.89034343,17.7066964 8.89034343,17.2067889 L8.89034343,9.66530537 C8.89034343,9.1653254 8.48495623,8.7599382 7.98497626,8.7599382 C7.4849963,8.7599382 7.0796091,9.1653254 7.0796091,9.66530537 L7.0796091,17.2067889 C7.0796091,17.7066964 7.4849963,18.112156 7.98497626,18.112156 Z" id="Shape"></path>
                <path d="M12.7301142,18.112156 C13.2300942,18.112156 13.6354814,17.7066964 13.6354814,17.2067889 L13.6354814,9.66530537 C13.6354814,9.1653254 13.2300942,8.7599382 12.7301142,8.7599382 C12.2302067,8.7599382 11.8247471,9.1653254 11.8247471,9.66530537 L11.8247471,17.2067889 C11.8247471,17.7066964 12.2301343,18.112156 12.7301142,18.112156 Z" id="Shape"></path>
            </g>
        </g>
    </g>
</svg>