<?xml version="1.0" encoding="UTF-8"?>
<svg width="40px" height="40px" viewBox="0 0 40 40" version="1.1" xmlns="http://www.w3.org/2000/svg" xmlns:xlink="http://www.w3.org/1999/xlink">
    <!-- Generator: Sketch 46.2 (44496) - http://www.bohemiancoding.com/sketch -->
    <title>send</title>
    <desc>Created with Sketch.</desc>
    <defs></defs>
    <g id="Symbols" stroke="none" stroke-width="1" fill="none" fill-rule="evenodd">
        <g id="send" fill-rule="nonzero" fill="#889FBC">
            <path d="M11.9174575,29.4041883 L27.8983449,20.8823836 L27.8983449,20.8823836 C28.3856719,20.6225165 28.5700647,20.0167961 28.3101977,19.5294692 C28.2168207,19.35436 28.0734541,19.2109934 27.8983449,19.1176164 L11.9174575,10.5958117 L11.9174575,10.5958117 C11.4301305,10.3359447 10.8244101,10.5203374 10.5645431,11.0076644 C10.4873202,11.1524802 10.4469267,11.3140764 10.4469267,11.4781952 L10.4469267,16.4832702 L10.4469267,16.4832702 C10.4469267,16.902137 10.7079773,17.2766195 11.1009809,17.4215247 L18.0941743,20 L11.1009809,22.5784753 L11.1009809,22.5784753 C10.7079773,22.7233805 10.4469267,23.097863 10.4469267,23.5167298 L10.4469267,28.5218048 L10.4469267,28.5218048 C10.4469267,29.0740895 10.8946419,29.5218048 11.4469267,29.5218048 C11.6110455,29.5218048 11.7726418,29.4814113 11.9174575,29.4041883 Z" id="Shape"></path>
        </g>
    </g>
</svg>