<?xml version="1.0" encoding="UTF-8"?>
<svg width="24px" height="25px" viewBox="0 0 24 25" version="1.1" xmlns="http://www.w3.org/2000/svg" xmlns:xlink="http://www.w3.org/1999/xlink">
    <!-- Generator: Sketch 46.2 (44496) - http://www.bohemiancoding.com/sketch -->
    <title>notification</title>
    <desc>Created with Sketch.</desc>
    <defs></defs>
    <g id="lk_desctop" stroke="none" stroke-width="1" fill="none" fill-rule="evenodd">
        <g id="dlk_profile" transform="translate(-330.000000, -1019.000000)">
            <g id="form" transform="translate(300.000000, 300.000000)">
                <g id="Rectangle-4">
                    <g id="pholio" transform="translate(0.000000, 396.000000)">
                        <g id="group" transform="translate(0.000000, 305.000000)">
                            <g id="social" transform="translate(30.000000, 18.500000)">
                                <g id="Group-2">
                                    <circle id="Combined-Shape" fill="#3B589A" fill-rule="nonzero" cx="12" cy="12" r="12"></circle>
                                    <path d="M11.555875,12.5099063 C11.399125,12.172 11.3125,11.7863125 11.3125,11.359375 C11.3125,10.9324375 11.399125,10.5037813 11.555875,10.1015938 C11.7122813,9.6990625 11.9388125,9.32265625 12.2189688,8.999875 C12.4987813,8.6774375 12.8322187,8.40759375 13.2020937,8.21921875 C13.5723125,8.0298125 13.9793125,7.921875 14.40625,7.921875 C14.8331875,7.921875 15.2401875,8.0085 15.6104063,8.16490625 C15.980625,8.32165625 16.3137187,8.5481875 16.5935312,8.828 C16.873,9.1078125 17.1002187,9.44125 17.256625,9.81146875 C17.4137188,10.1813438 17.5,10.5886875 17.5,11.015625 C17.5,11.4425625 17.413375,11.8499063 17.256625,12.2197813 C17.1002188,12.59 16.8736875,12.9234375 16.5935313,13.20325 C16.3140625,13.4830625 12.3702187,17.046375 12,17.203125 L12,17.203125 L12,17.203125 C11.6297813,17.046375 7.6859375,13.4830625 7.406125,13.20325 C7.1263125,12.9234375 6.89978125,12.59 6.74303125,12.2197813 C6.586625,11.8499063 6.5,11.4425625 6.5,11.015625 C6.5,10.5886875 6.586625,10.1813438 6.74303125,9.81146875 C6.89978125,9.44125 7.12596875,9.1078125 7.406125,8.828 C7.6859375,8.5481875 8.019375,8.32165625 8.38959375,8.16490625 C8.75946875,8.0085 9.16646875,7.921875 9.59375,7.921875 C10.0210313,7.921875 10.4280313,8.0298125 10.7979063,8.21853125 C11.168125,8.40759375 11.5012187,8.67709375 11.781375,8.99953125 C12.0611875,9.3223125 12.2877187,9.69871875 12.4444687,10.10125 C12.600875,10.5037813 12.6875,10.9324375 12.6875,11.359375 C12.6875,11.7863125 12.600875,12.172 12.4444687,12.5099063 C12.2877187,12.8478125 12.061875,13.1382813 11.781375,13.3754688" id="Shape" fill="#FFFFFF" fill-rule="nonzero"></path>
                                </g>
                            </g>
                        </g>
                    </g>
                </g>
            </g>
        </g>
    </g>
</svg>