<svg xmlns="http://www.w3.org/2000/svg" xmlns:xlink="http://www.w3.org/1999/xlink" width="24" height="24" viewBox="0 0 24 24">
    <defs>
        <path id="a" d="M3.801 4.817v4.137h16.86V4.817a.235.235 0 0 0-.235-.235H4.036a.235.235 0 0 0-.235.235zm16.86 14.688v-8.653H3.801v8.653c0 1.069.868 1.937 1.937 1.937h12.986a1.94 1.94 0 0 0 1.937-1.937zM5.738 23.243A3.742 3.742 0 0 1 2 19.505V9.952c0-.018.009-.032.01-.049-.001-.017-.01-.031-.01-.049V4.817a2.04 2.04 0 0 1 2.036-2.036H6.79V1.9a.9.9 0 0 1 1.801 0v.881h7.117V1.9a.9.9 0 0 1 1.801 0v.881h2.917a2.04 2.04 0 0 1 2.036 2.036v5.037c0 .018-.009.032-.01.049.001.017.01.031.01.049v9.553a3.742 3.742 0 0 1-3.738 3.738H5.738zM7.671 19.2c-.295 0-.59-.125-.795-.34a1.131 1.131 0 0 1-.34-.796c0-.147.033-.295.09-.442a.994.994 0 0 1 .25-.363A1.082 1.082 0 0 1 7.9 16.95c.067.013.147.034.214.058.07.033.137.068.195.113a1.122 1.122 0 0 1 .499.942c0 .296-.114.59-.329.796-.216.215-.5.34-.807.34zm0-3.497c-.295 0-.59-.113-.795-.33a1.131 1.131 0 0 1-.34-.806c0-.147.033-.296.09-.431.057-.137.137-.262.25-.375a1.122 1.122 0 0 1 1.023-.306.767.767 0 0 1 .214.067.661.661 0 0 1 .195.102c.055.046.124.09.17.137.101.113.192.238.25.375.056.135.08.284.08.43 0 .308-.115.592-.33.807a1.169 1.169 0 0 1-.365.25c-.135.045-.283.08-.442.08zm4.475 3.497a1.139 1.139 0 0 1-1.136-1.136c0-.306.115-.591.329-.805.103-.103.228-.194.364-.25.42-.171.92-.07 1.238.25.216.214.34.499.34.805 0 .296-.124.579-.34.796a1.134 1.134 0 0 1-.795.34zm-.444-3.577a1.143 1.143 0 0 1-.363-.25 1.124 1.124 0 0 1-.329-.806c0-.147.022-.296.08-.431.056-.137.146-.262.25-.375.045-.046.101-.091.17-.137a.645.645 0 0 1 .192-.102.77.77 0 0 1 .216-.067c.227-.046.443-.023.66.067a1.113 1.113 0 0 1 .612.614c.057.135.091.284.091.43 0 .149-.034.296-.09.432a1.11 1.11 0 0 1-.25.375 1.355 1.355 0 0 1-.364.25 1.4 1.4 0 0 1-.432.08 1.41 1.41 0 0 1-.443-.08zm4.464 3.486a.995.995 0 0 1-.364-.249 1.12 1.12 0 0 1-.329-.796c0-.147.022-.295.08-.442.056-.136.147-.262.25-.364.101-.102.226-.193.363-.25.42-.17.92-.068 1.237.25.216.215.341.499.341.806 0 .296-.125.579-.34.796a1.11 1.11 0 0 1-1.238.249zm0-3.486a1.137 1.137 0 0 1-.364-.25 1.12 1.12 0 0 1-.329-.806c0-.147.022-.296.08-.431.056-.137.147-.262.25-.375.045-.046.113-.091.17-.137a.639.639 0 0 1 .193-.102.77.77 0 0 1 .216-.067 1.127 1.127 0 0 1 1.271.68c.057.136.091.285.091.432 0 .148-.034.295-.09.43a1.096 1.096 0 0 1-.25.376c-.205.217-.5.33-.796.33-.158 0-.306-.035-.442-.08z"/>
    </defs>
    <g fill="none" fill-rule="evenodd">
        <mask id="b" fill="#fff">
            <use xlink:href="#a"/>
        </mask>
        <use fill="#fff" xlink:href="#a"/>
        <g fill="#fff" mask="url(#b)">
            <path d="M0 0h24v24H0z"/>
        </g>
    </g>
</svg>
