<?xml version="1.0" encoding="UTF-8"?>
<svg width="120px" height="32px" viewBox="0 0 120 32" version="1.1" xmlns="http://www.w3.org/2000/svg" xmlns:xlink="http://www.w3.org/1999/xlink">
    <!-- Generator: sketchtool 52.3 (67297) - http://www.bohemiancoding.com/sketch -->
    <title>B4AD7982-AF36-4A40-9451-123223FD25B8</title>
    <desc>Created with sketchtool.</desc>
    <defs>
        <path d="M0.000698823967,2.77552239 C0.0392214951,1.02362161 1.40677632,0.364304115 1.38751499,0.364304115 C2.88989916,-0.596415666 5.12421409,0.646868756 5.12421409,0.646868756 C5.12421409,0.646868756 21.2652133,7.88052358 23.3261762,8.82240571 C24.2507203,9.2556715 24.9056057,9.68893728 25.2330484,10.3294171 C25.6375365,11.1017605 25.5990138,12.1001556 25.5990138,12.8536613 C25.5990138,14.2099715 25.5990138,17.4688837 25.5990138,19.7859138 C25.5990138,20.671283 25.4256618,21.4059511 25.1174804,21.8957298 C24.6166857,22.6680731 23.9040163,22.8941249 23.9040163,22.8941249 C23.9040163,22.8941249 5.33608878,31.2580382 4.56563536,31.5971158 C3.81444327,31.9361934 2.60097913,32.275271 1.38751499,31.6536287 C-0.0763465184,30.900123 0.000698823967,29.2424105 0.000698823967,29.2424105 L0.000698823967,2.77552239 Z M2.11944574,28.9410082 C2.11944574,29.4684622 2.56245646,29.8828903 3.12103519,29.8828903 C3.25586454,29.8828903 3.39069389,29.8640527 3.5062619,29.8075398 C3.5062619,29.8075398 22.0741894,21.5001393 22.4786775,21.2929252 C22.8831655,21.0857112 23.4802669,20.9161724 23.4802669,19.5598621 C23.4802669,18.2035518 23.4802669,13.550654 23.4802669,13.550654 C23.4802669,13.550654 23.4610056,12.6276096 22.4786775,12.6276096 C21.4963493,12.6276096 21.4385653,13.550654 21.4385653,13.550654 L21.4385653,16.0372229 C21.4385653,16.0372229 21.4385653,17.4500461 19.9939652,17.4500461 C18.549365,17.4500461 18.549365,16.0372229 18.549365,16.0372229 L18.549365,15.5662818 C18.549365,15.5662818 18.5108423,14.6243997 17.5862982,14.6243997 C16.6617541,14.6243997 16.6232314,15.5662818 16.6232314,15.5662818 L16.6232314,20.6147701 C16.6232314,20.6147701 16.5654474,22.0275933 15.1786313,22.0275933 C13.7918151,22.0275933 13.7340311,20.6147701 13.7340311,20.6147701 L13.7340311,17.5442343 C13.7340311,17.5442343 13.6955084,16.6023522 12.7709643,16.6023522 C11.8464202,16.6023522 11.8078975,17.5442343 11.8078975,17.5442343 L11.8078975,19.9931279 C11.8078975,19.9931279 11.7693749,21.4059511 10.3632974,21.4059511 C8.95721987,21.4059511 8.9186972,19.9931279 8.9186972,19.9931279 L8.9186972,19.5410244 C8.9186972,19.5410244 8.88017453,18.5991423 7.95563042,18.5991423 C7.03108631,18.5991423 6.99256364,19.5410244 6.99256364,19.5410244 L6.99256364,22.8187743 C6.99256364,22.8187743 6.89625696,24.2315975 5.54796347,24.2315975 C4.19966998,24.2315975 4.1033633,22.8187743 4.1033633,22.8187743 L4.1033633,21.5566522 C4.1033633,21.5566522 4.1033633,20.6147701 3.10177385,20.6147701 C2.1001844,20.6147701 2.1001844,21.5566522 2.1001844,21.5566522 L2.1001844,28.9410082 L2.11944574,28.9410082 Z" id="path-1"></path>
        <linearGradient x1="-128.200195%" y1="418.1875%" x2="211.634766%" y2="-261.5625%" id="linearGradient-3">
            <stop stop-color="#01F8A2" offset="0%"></stop>
            <stop stop-color="#057EDD" offset="100%"></stop>
        </linearGradient>
        <path d="M0.80182585,13.1388889 C0.68049363,13.1388889 0.57432953,13.0951393 0.483330366,13.0076389 C0.392331201,12.9201385 0.346832301,12.8180561 0.346832301,12.7013889 L0.346832301,4.47638889 C0.346832301,4.34805491 0.392331201,4.24305596 0.483330366,4.16138889 C0.57432953,4.07972181 0.68049363,4.03888889 0.80182585,4.03888889 L3.04039411,4.03888889 C3.17385955,4.03888889 3.28305691,4.07972181 3.36798946,4.16138889 C3.45292202,4.24305596 3.49538766,4.34805491 3.49538766,4.47638889 L3.49538766,5.14138889 C3.82298465,4.75638696 4.24460779,4.44722339 4.76026972,4.21388889 C5.27593165,3.98055439 5.86741735,3.86388889 6.53474456,3.86388889 C7.22633821,3.86388889 7.84208999,4.01555404 8.38201837,4.31888889 C8.92194674,4.62222374 9.34660314,5.07138591 9.6560003,5.66638889 C9.96539746,6.26139186 10.1200937,6.97888469 10.1200937,7.81888889 L10.1200937,12.7013889 C10.1200937,12.8180561 10.0776281,12.9201385 9.99269553,13.0076389 C9.90776297,13.0951393 9.79856562,13.1388889 9.66510017,13.1388889 L7.2445345,13.1388889 C7.11106905,13.1388889 6.99883843,13.098056 6.90783927,13.0163889 C6.81684011,12.9347218 6.77134121,12.8297229 6.77134121,12.7013889 L6.77134121,7.92388889 C6.77134121,7.39888626 6.64091103,6.99639029 6.38004675,6.71638889 C6.11918248,6.43638749 5.74002498,6.29638889 5.24256288,6.29638889 C4.757234,6.29638889 4.37504325,6.43930413 4.09597914,6.72513889 C3.81691504,7.01097365 3.67738508,7.41055299 3.67738508,7.92388889 L3.67738508,12.7013889 C3.67738508,12.8180561 3.63491944,12.9201385 3.54998688,13.0076389 C3.46505433,13.0951393 3.35585697,13.1388889 3.22239153,13.1388889 L0.80182585,13.1388889 Z M14.8196716,13.3138889 C14.1766108,13.3138889 13.5911916,13.1943068 13.0633965,12.9551389 C12.5356013,12.715971 12.1230779,12.386391 11.825814,11.9663889 C11.5285501,11.5463868 11.3799203,11.0855581 11.3799203,10.5838889 C11.3799203,9.79055159 11.7226787,9.1459747 12.4082058,8.65013889 C13.0937328,8.15430308 14.0370766,7.81305649 15.2382656,7.62638889 L17.4950336,7.29388889 L17.4950336,7.08388889 C17.4950336,6.65222006 17.4040358,6.33722321 17.2220375,6.13888889 C17.0400392,5.94055456 16.7306466,5.84138889 16.2938507,5.84138889 C16.0511862,5.84138889 15.8479578,5.88222181 15.6841593,5.96388889 C15.5203608,6.04555596 15.3353319,6.16805474 15.1290672,6.33138889 C14.9713353,6.45972286 14.8318053,6.55305526 14.7104731,6.61138889 C14.6619402,6.69305596 14.601275,6.73388889 14.5284757,6.73388889 L12.4173056,6.73388889 C12.2959734,6.73388889 12.1958758,6.6959726 12.1170099,6.62013889 C12.0381439,6.54430518 12.0047781,6.45388941 12.0169113,6.34888889 C12.0290445,6.03388731 12.1928406,5.68097418 12.5083043,5.29013889 C12.8237681,4.8993036 13.3030232,4.56389029 13.9460839,4.28388889 C14.5891447,4.00388749 15.3838588,3.86388889 16.3302501,3.86388889 C17.8347697,3.86388889 18.9510093,4.18180238 19.6790027,4.81763889 C20.406996,5.4534754 20.7709872,6.31388346 20.7709872,7.39888889 L20.7709872,12.7013889 C20.7709872,12.8180561 20.7285215,12.9201385 20.643589,13.0076389 C20.5586564,13.0951393 20.4494591,13.1388889 20.3159936,13.1388889 L18.0774254,13.1388889 C17.9560931,13.1388889 17.849929,13.0951393 17.7589299,13.0076389 C17.6679307,12.9201385 17.6224318,12.8180561 17.6224318,12.7013889 L17.6224318,12.0888889 C17.3555009,12.4505574 16.9854432,12.7451378 16.5122476,12.9726389 C16.0390519,13.20014 15.4748655,13.3138889 14.8196716,13.3138889 Z M15.7296587,11.2488889 C16.2635204,11.2488889 16.6972766,11.0797239 17.0309402,10.7413889 C17.3646038,10.4030539 17.5314331,9.91305876 17.5314331,9.27138889 L17.5314331,9.06138889 L16.0208545,9.30638889 C15.0016639,9.49305649 14.4920762,9.84305299 14.4920762,10.3563889 C14.4920762,10.6247236 14.6103733,10.8405547 14.8469712,11.0038889 C15.083569,11.167223 15.3777952,11.2488889 15.7296587,11.2488889 Z M27.0175431,13.3138889 C25.6343558,13.3138889 24.5150828,12.9609758 23.6596907,12.2551389 C22.8042985,11.549302 22.3462763,10.5663952 22.2856102,9.30638889 L22.2674104,8.60638889 L22.2856102,7.88888889 C22.3341431,6.62888259 22.7891321,5.64305911 23.6505908,4.93138889 C24.5120496,4.21971866 25.6343558,3.86388889 27.0175431,3.86388889 C28.0731334,3.86388889 28.9588453,4.04472041 29.6747054,4.40638889 C30.3905655,4.76805736 30.9244192,5.19680308 31.2762827,5.69263889 C31.6281461,6.1884747 31.8162082,6.64055351 31.8404747,7.04888889 C31.8526079,7.17722286 31.8101423,7.28513845 31.7130765,7.37263889 C31.6160107,7.46013933 31.5007468,7.50388889 31.3672814,7.50388889 L28.928516,7.50388889 C28.7950505,7.50388889 28.6919197,7.47472251 28.6191204,7.41638889 C28.546321,7.35805526 28.4795893,7.26472286 28.4189232,7.13638889 C28.2854578,6.80972059 28.1125619,6.57055631 27.9002306,6.41888889 C27.6878992,6.26722146 27.417939,6.19138889 27.090342,6.19138889 C26.1560839,6.19138889 25.6707624,6.78638294 25.6343627,7.97638889 L25.6161629,8.64138889 L25.6343627,9.21888889 C25.6464959,9.82555859 25.7738928,10.2718041 26.0165573,10.5576389 C26.2592217,10.8434737 26.6171464,10.9863889 27.090342,10.9863889 C27.4422055,10.9863889 27.7182321,10.913473 27.9184303,10.7676389 C28.1186285,10.6218048 28.2854578,10.3797239 28.4189232,10.0413889 C28.4795893,9.91305491 28.546321,9.81972251 28.6191204,9.76138889 C28.6919197,9.70305526 28.7950505,9.67388889 28.928516,9.67388889 L31.3672814,9.67388889 C31.4886136,9.67388889 31.597811,9.71472181 31.6948768,9.79638889 C31.7919425,9.87805596 31.8404747,9.97722164 31.8404747,10.0938889 C31.8404747,10.4555574 31.6736454,10.8901364 31.3399818,11.3976389 C31.0063182,11.9051414 30.4754977,12.351387 29.7475044,12.7363889 C29.019511,13.1213908 28.109533,13.3138889 27.0175431,13.3138889 Z M33.7372923,13.1388889 C33.6038268,13.1388889 33.4915962,13.098056 33.400597,13.0163889 C33.3095979,12.9347218 33.264099,12.8297229 33.264099,12.7013889 L33.264099,1.15138889 C33.264099,1.02305491 33.3095979,0.918055964 33.400597,0.836388889 C33.4915962,0.754721814 33.6038268,0.713888889 33.7372923,0.713888889 L36.1942574,0.713888889 C36.3277229,0.713888889 36.4399535,0.754721814 36.5309527,0.836388889 C36.6219518,0.918055964 36.6674507,1.02305491 36.6674507,1.15138889 L36.6674507,5.05388889 C37.3711776,4.26055159 38.3236212,3.86388889 39.5248102,3.86388889 C40.2164039,3.86388889 40.8412554,4.01555404 41.3993836,4.31888889 C41.9575118,4.62222374 42.3943013,5.07138591 42.709765,5.66638889 C43.0252288,6.26139186 43.1829583,6.97888469 43.1829583,7.81888889 L43.1829583,12.7013889 C43.1829583,12.8297229 43.1374594,12.9347218 43.0464603,13.0163889 C42.9554611,13.098056 42.8432305,13.1388889 42.709765,13.1388889 L40.2346001,13.1388889 C40.1132679,13.1388889 40.0071038,13.0951393 39.9161047,13.0076389 C39.8251055,12.9201385 39.7796066,12.8180561 39.7796066,12.7013889 L39.7796066,7.92388889 C39.7796066,7.41055299 39.6461431,7.01097365 39.3792123,6.72513889 C39.1122814,6.43930413 38.7300906,6.29638889 38.2326285,6.29638889 C37.7472996,6.29638889 37.3651089,6.43930413 37.0860448,6.72513889 C36.8069807,7.01097365 36.6674507,7.41055299 36.6674507,7.92388889 L36.6674507,12.7013889 C36.6674507,12.8297229 36.6219518,12.9347218 36.5309527,13.0163889 C36.4399535,13.098056 36.3277229,13.1388889 36.1942574,13.1388889 L33.7372923,13.1388889 Z M45.4801702,2.77888889 C45.3467048,2.77888889 45.2375074,2.73513933 45.1525749,2.64763889 C45.0676423,2.56013845 45.0251767,2.45222286 45.0251767,2.32388889 L45.0251767,0.696388889 C45.0251767,0.568054914 45.0706756,0.460139326 45.1616747,0.372638889 C45.2526739,0.285138451 45.358838,0.241388889 45.4801702,0.241388889 L47.755138,0.241388889 C47.8886034,0.241388889 48.000834,0.285138451 48.0918332,0.372638889 C48.1828324,0.460139326 48.2283313,0.568054914 48.2283313,0.696388889 L48.2283313,2.32388889 C48.2283313,2.45222286 48.1828324,2.56013845 48.0918332,2.64763889 C48.000834,2.73513933 47.8886034,2.77888889 47.755138,2.77888889 L45.4801702,2.77888889 Z M45.4801702,13.1388889 C45.358838,13.1388889 45.2526739,13.0951393 45.1616747,13.0076389 C45.0706756,12.9201385 45.0251767,12.8180561 45.0251767,12.7013889 L45.0251767,4.47638889 C45.0251767,4.34805491 45.0706756,4.24305596 45.1616747,4.16138889 C45.2526739,4.07972181 45.358838,4.03888889 45.4801702,4.03888889 L47.755138,4.03888889 C47.8886034,4.03888889 48.000834,4.07972181 48.0918332,4.16138889 C48.1828324,4.24305596 48.2283313,4.34805491 48.2283313,4.47638889 L48.2283313,12.7013889 C48.2283313,12.8297229 48.1828324,12.9347218 48.0918332,13.0163889 C48.000834,13.098056 47.8886034,13.1388889 47.755138,13.1388889 L45.4801702,13.1388889 Z M50.6165419,13.1388889 C50.4952097,13.1388889 50.3890456,13.0951393 50.2980464,13.0076389 C50.2070472,12.9201385 50.1615483,12.8180561 50.1615483,12.7013889 L50.1615483,4.47638889 C50.1615483,4.34805491 50.2070472,4.24305596 50.2980464,4.16138889 C50.3890456,4.07972181 50.4952097,4.03888889 50.6165419,4.03888889 L52.8551101,4.03888889 C52.9885756,4.03888889 53.0977729,4.07972181 53.1827055,4.16138889 C53.267638,4.24305596 53.3101037,4.34805491 53.3101037,4.47638889 L53.3101037,5.14138889 C53.6377007,4.75638696 54.0593238,4.44722339 54.5749857,4.21388889 C55.0906477,3.98055439 55.6821334,3.86388889 56.3494606,3.86388889 C57.0410542,3.86388889 57.656806,4.01555404 58.1967344,4.31888889 C58.7366628,4.62222374 59.1613192,5.07138591 59.4707163,5.66638889 C59.7801135,6.26139186 59.9348097,6.97888469 59.9348097,7.81888889 L59.9348097,12.7013889 C59.9348097,12.8180561 59.8923441,12.9201385 59.8074116,13.0076389 C59.722479,13.0951393 59.6132816,13.1388889 59.4798162,13.1388889 L57.0592505,13.1388889 C56.9257851,13.1388889 56.8135545,13.098056 56.7225553,13.0163889 C56.6315561,12.9347218 56.5860572,12.8297229 56.5860572,12.7013889 L56.5860572,7.92388889 C56.5860572,7.39888626 56.455627,6.99639029 56.1947628,6.71638889 C55.9338985,6.43638749 55.554741,6.29638889 55.0572789,6.29638889 C54.57195,6.29638889 54.1897593,6.43930413 53.9106952,6.72513889 C53.6316311,7.01097365 53.4921011,7.41055299 53.4921011,7.92388889 L53.4921011,12.7013889 C53.4921011,12.8180561 53.4496355,12.9201385 53.3647029,13.0076389 C53.2797704,13.0951393 53.170573,13.1388889 53.0371076,13.1388889 L50.6165419,13.1388889 Z M62.2502214,13.1388889 C62.1167559,13.1388889 62.0045253,13.098056 61.9135262,13.0163889 C61.822527,12.9347218 61.7770281,12.8297229 61.7770281,12.7013889 L61.7770281,1.15138889 C61.7770281,1.02305491 61.822527,0.918055964 61.9135262,0.836388889 C62.0045253,0.754721814 62.1167559,0.713888889 62.2502214,0.713888889 L64.4705899,0.713888889 C64.6040553,0.713888889 64.7132527,0.754721814 64.7981853,0.836388889 C64.8831178,0.918055964 64.9255835,1.02305491 64.9255835,1.15138889 L64.9255835,6.99638889 L67.3461491,4.33638889 C67.3704156,4.31305544 67.4159145,4.27222251 67.4826472,4.21388889 C67.5493799,4.15555526 67.6191449,4.1118057 67.6919442,4.08263889 C67.7647436,4.05347208 67.8557414,4.03888889 67.9649404,4.03888889 L70.531104,4.03888889 C70.640303,4.03888889 70.734334,4.07680518 70.8132,4.15263889 C70.8920659,4.2284726 70.9314983,4.32472164 70.9314983,4.44138889 C70.9314983,4.54638941 70.8890327,4.63972181 70.8041001,4.72138889 L67.6009455,8.11638889 L71.2590936,12.4738889 C71.3440262,12.5788894 71.3864918,12.6663885 71.3864918,12.7363889 C71.3864918,12.8530561 71.3470595,12.9493052 71.2681935,13.0251389 C71.1893276,13.1009726 71.08923,13.1388889 70.9678978,13.1388889 L68.3289352,13.1388889 C68.1712033,13.1388889 68.0529062,13.1155558 67.9740402,13.0688889 C67.8951743,13.022222 67.8011432,12.9463894 67.6919442,12.8413889 L64.9255835,9.55138889 L64.9255835,12.7013889 C64.9255835,12.8180561 64.8831178,12.9201385 64.7981853,13.0076389 C64.7132527,13.0951393 64.6040553,13.1388889 64.4705899,13.1388889 L62.2502214,13.1388889 Z M75.0486844,13.3138889 C74.4056236,13.3138889 73.8202044,13.1943068 73.2924093,12.9551389 C72.7646141,12.715971 72.3520908,12.386391 72.0548268,11.9663889 C71.7575629,11.5463868 71.6089332,11.0855581 71.6089332,10.5838889 C71.6089332,9.79055159 71.9516915,9.1459747 72.6372186,8.65013889 C73.3227456,8.15430308 74.2660895,7.81305649 75.4672785,7.62638889 L77.7240465,7.29388889 L77.7240465,7.08388889 C77.7240465,6.65222006 77.6330487,6.33722321 77.4510503,6.13888889 C77.269052,5.94055456 76.9596595,5.84138889 76.5228635,5.84138889 C76.280199,5.84138889 76.0769706,5.88222181 75.9131721,5.96388889 C75.7493736,6.04555596 75.5643448,6.16805474 75.35808,6.33138889 C75.2003481,6.45972286 75.0608182,6.55305526 74.9394859,6.61138889 C74.890953,6.69305596 74.8302878,6.73388889 74.7574885,6.73388889 L72.6463185,6.73388889 C72.5249862,6.73388889 72.4248887,6.6959726 72.3460227,6.62013889 C72.2671568,6.54430518 72.2337909,6.45388941 72.2459241,6.34888889 C72.2580573,6.03388731 72.4218534,5.68097418 72.7373172,5.29013889 C73.0527809,4.8993036 73.532036,4.56389029 74.1750968,4.28388889 C74.8181575,4.00388749 75.6128717,3.86388889 76.559263,3.86388889 C78.0637825,3.86388889 79.1800222,4.18180238 79.9080155,4.81763889 C80.6360088,5.4534754 81,6.31388346 81,7.39888889 L81,12.7013889 C81,12.8180561 80.9575344,12.9201385 80.8726018,13.0076389 C80.7876693,13.0951393 80.6784719,13.1388889 80.5450065,13.1388889 L78.3064382,13.1388889 C78.185106,13.1388889 78.0789419,13.0951393 77.9879427,13.0076389 C77.8969435,12.9201385 77.8514446,12.8180561 77.8514446,12.7013889 L77.8514446,12.0888889 C77.5845138,12.4505574 77.214456,12.7451378 76.7412604,12.9726389 C76.2680647,13.20014 75.7038784,13.3138889 75.0486844,13.3138889 Z M75.9586715,11.2488889 C76.4925332,11.2488889 76.9262894,11.0797239 77.259953,10.7413889 C77.5936166,10.4030539 77.7604459,9.91305876 77.7604459,9.27138889 L77.7604459,9.06138889 L76.2498674,9.30638889 C75.2306767,9.49305649 74.721089,9.84305299 74.721089,10.3563889 C74.721089,10.6247236 74.8393862,10.8405547 75.075984,11.0038889 C75.3125818,11.167223 75.606808,11.2488889 75.9586715,11.2488889 Z" id="path-4"></path>
    </defs>
    <g id="desktop" stroke="none" stroke-width="1" fill="none" fill-rule="evenodd">
        <g id="header" transform="translate(-24.000000, -402.000000)">
            <g id="Group-Copy" transform="translate(0.000000, 386.000000)">
                <g id="logo" transform="translate(24.000000, 16.000000)">
                    <g id="element-/-logo-/-full">
                        <g id="element-/-logo-/-crop">
                            <mask id="mask-2" fill="white">
                                <use xlink:href="#path-1"></use>
                            </mask>
                            <use id="Mask" fill="#FFFFFF" fill-rule="nonzero" xlink:href="#path-1"></use>
                            <g id="color-/-gradient-2" mask="url(#mask-2)" fill="url(#linearGradient-3)" fill-rule="evenodd">
                                <rect id="color-/-gradient" x="0" y="0" width="32" height="32"></rect>
                            </g>
                        </g>
                        <g id="element-/-logo-/-text" transform="translate(39.463087, 7.200000)">
                            <mask id="mask-5" fill="white">
                                <use xlink:href="#path-4"></use>
                            </mask>
                            <use id="Mask" fill="#FFFFFF" fill-rule="evenodd" xlink:href="#path-4"></use>
                            <g id="color-/-gradient-2" mask="url(#mask-5)" fill="url(#linearGradient-3)" fill-rule="evenodd">
                                <rect id="color-/-gradient" x="0" y="0" width="81" height="14"></rect>
                            </g>
                        </g>
                    </g>
                </g>
            </g>
        </g>
    </g>
</svg>