<?xml version="1.0" encoding="UTF-8"?>
<svg width="32px" height="32px" viewBox="0 0 32 32" version="1.1" xmlns="http://www.w3.org/2000/svg" xmlns:xlink="http://www.w3.org/1999/xlink">
    <!-- Generator: sketchtool 52.3 (67297) - http://www.bohemiancoding.com/sketch -->
    <title>ACC41EA3-3721-401A-AECD-B6A0B02DB0F2</title>
    <desc>Created with sketchtool.</desc>
    <defs>
        <path d="M16.06016,15.4 C16.71296,15.4 17.24416,14.8888 17.24416,14.26 C17.24416,13.632 16.71296,13.12 16.06016,13.12 C15.40736,13.12 14.87616,13.632 14.87616,14.26 C14.87616,14.8888 15.40736,15.4 16.06016,15.4 Z M16.06016,11.8 C17.46576,11.8 18.60976,12.9032 18.60976,14.26 C18.60976,15.6168 17.46576,16.72 16.06016,16.72 C14.65456,16.72 13.51136,15.6168 13.51136,14.26 C13.51136,12.9032 14.65456,11.8 16.06016,11.8 Z M16.06016,20.85392 L16.16016,20.75072 C19.62816,17.19392 20.35616,15.25792 20.35616,14.26032 C20.35616,11.97712 18.42896,10.12032 16.06016,10.12032 C13.69216,10.12032 11.76496,11.97712 11.76496,14.26032 C11.76496,15.25712 12.49296,17.19312 15.96016,20.75072 L16.06016,20.85392 Z M18.57136,22.00032 C18.93536,22.00032 19.23136,22.29632 19.23136,22.66032 C19.23136,23.02432 18.93536,23.32032 18.57136,23.32032 L13.54896,23.32032 C13.18496,23.32032 12.88896,23.02432 12.88896,22.66032 C12.88896,22.29632 13.18496,22.00032 13.54896,22.00032 L15.30416,22.00032 L15.06976,21.76272 C11.92736,18.56112 10.40016,16.10672 10.40016,14.26032 C10.40016,11.24912 12.93936,8.80032 16.06016,8.80032 C19.18096,8.80032 21.72016,11.24912 21.72016,14.26032 C21.72016,16.10752 20.19296,18.56112 17.05056,21.76272 L16.81856,22.00032 L18.57136,22.00032 Z" id="path-1"></path>
    </defs>
    <g id="Symbols" stroke="none" stroke-width="1" fill="none" fill-rule="evenodd">
        <g id="button-/-city" transform="translate(-4.000000, -8.000000)">
            <g id="Group" transform="translate(4.000000, 8.000000)">
                <g id="icon-/-geo">
                    <mask id="mask-2" fill="white">
                        <use xlink:href="#path-1"></use>
                    </mask>
                    <use id="Mask" fill="#fff" fill-rule="evenodd" xlink:href="#path-1"></use>
                    <g id="color-/-gray-dark" mask="url(#mask-2)" fill="#fff" fill-rule="evenodd">
                        <rect x="0" y="0" width="32" height="32"></rect>
                    </g>
                </g>
            </g>
        </g>
    </g>
</svg>