<?xml version="1.0" encoding="UTF-8"?>
<svg width="16px" height="14px" viewBox="0 0 16 14" version="1.1" xmlns="http://www.w3.org/2000/svg" xmlns:xlink="http://www.w3.org/1999/xlink">
    <!-- Generator: Sketch 46.2 (44496) - http://www.bohemiancoding.com/sketch -->
    <title>Fill 1</title>
    <desc>Created with Sketch.</desc>
    <defs></defs>
    <g id="Symbols" stroke="none" stroke-width="1" fill="none" fill-rule="evenodd">
        <g id="link_out" transform="translate(-17.000000, -18.000000)" stroke="#333333" stroke-width="0.4" fill="#333333">
            <path d="M25.8251653,26.0775224 C25.7170415,25.9693986 25.5690827,25.9076136 25.4186849,25.9076136 C23.883002,25.9076136 22.7074607,25.9498875 21.5441138,26.4921324 C20.6953827,26.8872313 19.9490847,27.5107723 19.2288014,28.4318568 C19.2954642,27.5847517 19.4678119,26.5604211 19.9482717,25.6718549 C20.8652915,23.9768317 22.6554312,23.141108 25.4203108,23.1159062 C25.7365526,23.1126544 25.9934482,22.8533199 25.9934482,22.538704 L25.9934482,20.8014068 L30.4818048,24.5044432 L25.9958871,28.2188611 L25.9958871,26.4848157 C25.9958871,26.3287273 25.9341021,26.1832073 25.8251653,26.0775224 M31.7589662,24.0565018 L25.7837043,19.1315853 L25.7828914,19.1315853 C25.6113566,18.9901302 25.3707202,18.9600506 25.1715448,19.0543541 C24.9707435,19.1494705 24.8406698,19.3535236 24.8406698,19.5770879 L24.8406698,21.9785741 C21.9701052,22.124907 19.983229,23.1809431 18.9336967,25.1206675 C18.0117991,26.8278852 18.0248065,28.8115095 18.0329361,30.1236283 L18.0329361,30.4227978 C18.0329361,30.6853842 18.2109745,30.9154521 18.4597405,30.9804889 C18.5044534,30.9934963 18.554044,31 18.6101383,31 C18.8198822,31 19.0117409,30.8878114 19.1117351,30.7081471 C21.0165022,27.349806 22.5529981,27.0831549 24.8382309,27.0636438 L24.8382309,29.4464319 C24.8382309,29.6708091 24.9691176,29.8764882 25.1731708,29.9699787 C25.375598,30.0626562 25.6097307,30.0342026 25.7861432,29.8911215 L31.7597791,24.9491328 C31.8922917,24.8385701 31.9687101,24.675978 31.9687101,24.5044432 C31.9687101,24.3345344 31.8906658,24.1670645 31.7589662,24.0565018" id="Fill-1"></path>
        </g>
    </g>
</svg>