<?xml version="1.0" encoding="UTF-8"?>
<svg width="24px" height="25px" viewBox="0 0 24 25" version="1.1" xmlns="http://www.w3.org/2000/svg" xmlns:xlink="http://www.w3.org/1999/xlink">
    <!-- Generator: Sketch 46.2 (44496) - http://www.bohemiancoding.com/sketch -->
    <title>notification</title>
    <desc>Created with Sketch.</desc>
    <defs></defs>
    <g id="lk_desctop" stroke="none" stroke-width="1" fill="none" fill-rule="evenodd">
        <g id="dlk_profile" transform="translate(-330.000000, -1080.000000)">
            <g id="form" transform="translate(300.000000, 300.000000)">
                <g id="Rectangle-4">
                    <g id="pholio" transform="translate(0.000000, 396.000000)">
                        <g id="group" transform="translate(0.000000, 366.000000)">
                            <g id="pass" transform="translate(30.000000, 18.500000)">
                                <g id="Group-2">
                                    <circle id="Combined-Shape" fill="#889FBC" fill-rule="nonzero" cx="12" cy="12" r="12"></circle>
                                    <path d="M16.7222135,9.9000001 L15.8888802,9.9000001 L15.8888802,8.89999228 C15.8888802,6.97007822 14.144375,5.4000001 12,5.4000001 C9.855625,5.4000001 8.11111979,6.97007822 8.11111979,8.89999228 L8.11111979,9.9000001 L7.27778646,9.9000001 C7.12424479,9.9000001 7,10.0118204 7,10.1500079 L7,16.4000157 C7,16.9515235 7.49830729,17.4000001 8.11111979,17.4000001 L15.8889063,17.4000001 C16.5016927,17.4000001 17,16.9515235 17,16.3999923 L17,10.1500079 C17,10.0118204 16.8757552,9.9000001 16.7222135,9.9000001 Z M12.8317188,15.1224142 C12.8403906,15.192961 12.8151823,15.2637657 12.7625521,15.3167579 C12.7099219,15.3697267 12.6345052,15.4000079 12.5555729,15.4000079 L11.4444531,15.4000079 C11.3655208,15.4000079 11.2901042,15.3697267 11.237474,15.3167579 C11.1848438,15.2637892 11.1596094,15.1929845 11.1683073,15.1224142 L11.3435417,13.704211 C11.0589844,13.5179298 10.8889063,13.2232501 10.8889063,12.9000001 C10.8889063,12.3484923 11.3872135,11.8999923 12.000026,11.8999923 C12.6128385,11.8999923 13.1111458,12.3484688 13.1111458,12.9000001 C13.1111458,13.2232501 12.9410677,13.5179298 12.6565104,13.704211 L12.8317188,15.1224142 Z M14.2222135,9.9000001 L9.77778646,9.9000001 L9.77778646,8.89999228 C9.77778646,7.79721103 10.7746875,6.9000001 12,6.9000001 C13.2253125,6.9000001 14.2222135,7.79721103 14.2222135,8.89999228 L14.2222135,9.9000001 L14.2222135,9.9000001 Z" id="Shape" fill="#FFFFFF" fill-rule="nonzero"></path>
                                </g>
                            </g>
                        </g>
                    </g>
                </g>
            </g>
        </g>
    </g>
</svg>