<?xml version="1.0" encoding="UTF-8"?>
<svg width="24px" height="24px" viewBox="0 0 24 24" version="1.1" xmlns="http://www.w3.org/2000/svg" xmlns:xlink="http://www.w3.org/1999/xlink">
    <!-- Generator: sketchtool 52.5 (67469) - http://www.bohemiancoding.com/sketch -->
    <title>73796956-928E-43A7-80FD-D161E76F9322</title>
    <desc>Created with sketchtool.</desc>
    <defs>
        <path d="M16.999375,16.8316667 C16.9652098,16.8533333 16.9285446,16.8683333 16.8985459,16.8983333 C16.8685471,16.9283333 16.8535478,16.965 16.831882,16.9991667 C15.3811091,18.4091667 13.4061914,19.28 11.2287821,19.28 C6.78896713,19.28 3.17661764,15.6683333 3.17661764,11.2283333 C3.17661764,6.78833333 6.78896713,3.17666667 11.2287821,3.17666667 C15.6677638,3.17666667 19.2801133,6.78833333 19.2801133,11.2283333 C19.2801133,13.4058333 18.4076497,15.3808333 16.999375,16.8316667 Z M18.1468272,17.315 C19.5801008,15.6883333 20.4558977,13.5616667 20.4558977,11.2283333 C20.4558977,6.14 16.3177368,2 11.2287821,2 C6.14066081,2 2,6.14 2,11.2283333 C2,16.3175 6.14066081,20.4575 11.2287821,20.4575 C13.5620182,20.4575 15.6885963,19.58 17.3151952,18.1466667 L20.9958752,21.8275 C21.1108704,21.9425 21.2608641,22 21.4116912,22 C21.5625182,22 21.712512,21.9425 21.8275072,21.8275 C22.0574976,21.5983333 22.0574976,21.225 21.8275072,20.9958333 L18.1468272,17.315 Z" id="path-1"></path>
    </defs>
    <g id="Symbols" stroke="none" stroke-width="1" fill="none" fill-rule="evenodd">
        <g id="icon-/-search">
            <mask id="mask-2" fill="white">
                <use xlink:href="#path-1"></use>
            </mask>
            <use id="Mask" fill="#879EBB" xlink:href="#path-1"></use>

        </g>
    </g>
</svg>