<?xml version="1.0" encoding="UTF-8"?>
<svg width="24px" height="24px" viewBox="0 0 24 24" version="1.1" xmlns="http://www.w3.org/2000/svg" xmlns:xlink="http://www.w3.org/1999/xlink">
    <!-- Generator: sketchtool 52.5 (67469) - http://www.bohemiancoding.com/sketch -->
    <title>C1308060-265E-4BD0-A107-CDE7F2BF3FB9</title>
    <desc>Created with sketchtool.</desc>
    <defs>
        <path d="M13.8544648,10.8549167 C13.7738879,10.9554583 13.7297256,11.0813333 13.7297256,11.2111667 L13.7297256,17.11225 L10.8126867,20.0920833 L10.8126867,11.4827083 C10.8126867,11.3489167 10.7654253,11.2190833 10.6786502,11.1169583 L4.74462615,4.11783333 L19.2941805,4.11783333 L13.8544648,10.8549167 Z M20.4540231,3 L3.54681949,3 C3.33298079,3 3.13851154,3.12745833 3.04941208,3.32695833 C2.96031262,3.52566667 2.99362807,3.76 3.13386287,3.92466667 L9.71870034,11.6917083 L9.71870034,21.4410833 C9.71870034,21.6667083 9.85196214,21.8709583 10.0565035,21.95725 C10.124684,21.9865417 10.1951888,22 10.2656935,22 C10.4082527,22 10.5477127,21.9437917 10.6523077,21.836125 L14.663333,17.7384583 C14.7656037,17.6339583 14.8229372,17.49225 14.8229372,17.3434167 L14.8229372,11.4114583 L20.8755023,3.914375 C21.0095388,3.74733333 21.0382056,3.51616667 20.9475566,3.31983333 C20.8576824,3.12508333 20.6647627,3 20.4540231,3 Z" id="path-1"></path>
    </defs>
    <g id="Symbols" stroke="none" stroke-width="1" fill="none" fill-rule="evenodd">
        <g id="icon-/-filter">
            <mask id="mask-2" fill="white">
                <use xlink:href="#path-1"></use>
            </mask>
            <use id="Mask" fill="#879EBB" xlink:href="#path-1"></use>
            <!--<g id="color-/-gray-dark" mask="url(#mask-2)" fill="#889FBC">-->
                <!--<rect x="0" y="0" width="24" height="24"></rect>-->
            <!--</g>-->
        </g>
    </g>
</svg>