<?xml version="1.0" encoding="UTF-8"?>
<svg width="19px" height="21px" viewBox="0 0 19 21" version="1.1" xmlns="http://www.w3.org/2000/svg" xmlns:xlink="http://www.w3.org/1999/xlink">
    <!-- Generator: Sketch 50.2 (55047) - http://www.bohemiancoding.com/sketch -->
    <title>Shape</title>
    <desc>Created with Sketch.</desc>
    <defs></defs>
    <g id="desctop" stroke="none" stroke-width="1" fill="none" fill-rule="evenodd">
        <g id="d_main" transform="translate(-1428.000000, -577.000000)" fill="#FFFFFF" fill-rule="nonzero">
            <g id="banner">
                <g id="user" transform="translate(1428.000000, 573.000000)">
                    <path d="M12.0339786,14.4418931 C13.4662036,13.4576294 14.4197438,11.7260673 14.4197438,9.74869933 C14.4197438,6.68045934 12.1303538,4.19327813 9.30627281,4.19327813 C6.48187271,4.19327813 4.19264225,6.68045934 4.19264225,9.74869933 C4.19264225,11.7260673 5.14634201,13.4576294 6.57840748,14.4418931 C3.02832116,15.6870438 0.396352363,19.2787914 0.306359614,23.5103624 C0.298541095,23.8783779 0.566923727,24.1836417 0.905513469,24.1926558 C1.24745401,24.208777 1.52572946,23.9095803 1.53354798,23.5417382 C1.63008275,18.9990095 5.11666355,15.3039472 9.30627281,15.3039472 C13.4957225,15.3039472 16.9823033,18.9993562 17.0788381,23.5415648 C17.0866566,23.9042065 17.3599857,24.1924824 17.6925121,24.1924824 L17.7068726,24.1924824 C18.0454623,24.1924824 18.313845,23.8787245 18.3060265,23.5107091 C18.2158741,19.2793115 15.5840649,15.6870438 12.0339786,14.4418931 M5.41983061,9.74869933 C5.41983061,7.42082391 7.16351992,5.52666242 9.30611325,5.52666242 C11.4487066,5.52666242 13.1923959,7.42099726 13.1923959,9.74869933 C13.1923959,12.0764014 11.4488661,13.9707362 9.30627281,13.9707362 C7.16367948,13.9707362 5.41983061,12.0765747 5.41983061,9.74869933" id="Shape"></path>
                </g>
            </g>
        </g>
    </g>
</svg>