<?xml version="1.0" encoding="UTF-8"?>

<svg width="48px" height="48px" viewBox="0 0 48 48" version="1.1" xmlns="http://www.w3.org/2000/svg" xmlns:xlink="http://www.w3.org/1999/xlink">
    <defs>
        <path d="M24,0 C37.254834,-2.4348735e-15 48,10.745166 48,24 C48,37.254834 37.254834,48 24,48 C10.745166,48 1.623249e-15,37.254834 0,24 C-1.623249e-15,10.745166 10.745166,2.4348735e-15 24,0 Z M23.998248,23.3974728 C26.5176247,23.3974728 28.6025053,21.3398679 28.6025053,18.7184865 C28.6025053,16.0971051 26.5176247,14 23.998248,14 C21.4788713,14 19.3939907,16.0576049 19.3939907,18.6789862 C19.3939907,21.3003676 21.4788713,23.3974728 23.998248,23.3974728 Z M27.1027929,24.447446 C26.9089048,24.3971729 26.6531128,24.4725825 26.3354167,24.6736748 L23.998248,26.204162 L21.6610793,24.6736748 C21.3200232,24.4749765 21.0642312,24.3995669 20.8937031,24.447446 C17.5684062,25.5714082 16,28.3400178 16,31.4461752 C16,31.7214801 16.2441121,31.9716485 16.7323362,32.1966803 C19.0418922,33.3988934 21.4638627,34 23.998248,34 C26.5326333,34 28.9557718,33.3988934 31.2676638,32.1966803 C31.7558879,31.9716485 32,31.7214801 32,31.4461752 C31.996496,28.3400178 30.4280898,25.5714082 27.1027929,24.447446 Z" id="path-1"></path>
    </defs>
    <g id="Symbols" stroke="none" stroke-width="1" fill="none" fill-rule="evenodd">
        <g id="element-/-avatar-/-default">
            <mask id="mask-2" fill="white">
                <use xlink:href="#path-1"></use>
            </mask>
            <use id="Mask" fill="#DBE2EA" xlink:href="#path-1"></use>
            <g id="color-/-gray-dark" mask="url(#mask-2)" fill="#889FBC">
                <rect x="0" y="0" width="48" height="48"></rect>
            </g>
        </g>
    </g>
</svg>