<?xml version="1.0" encoding="UTF-8"?>
<svg width="17px" height="18px" viewBox="0 0 17 18" version="1.1" xmlns="http://www.w3.org/2000/svg" xmlns:xlink="http://www.w3.org/1999/xlink">
    <!-- Generator: Sketch 46.2 (44496) - http://www.bohemiancoding.com/sketch -->
    <title>Shape</title>
    <desc>Created with Sketch.</desc>
    <defs></defs>
    <g id="Symbols" stroke="none" stroke-width="1" fill="none" fill-rule="evenodd">
        <g id="phone" transform="translate(-12.000000, -11.000000)" stroke="#FFFFFF" fill-rule="nonzero" stroke-width="0.3" fill="#FFFFFF">
            <path d="M13.1854631,27.1631802 C13.2172995,27.1950165 13.2597355,27.2268529 13.3022089,27.2586892 L13.885863,27.6194888 C13.9070997,27.6300884 13.938936,27.6513251 13.9601353,27.6619248 C14.8409536,28.0545607 15.8278807,28.2562159 16.8148077,28.2562159 C18.5127343,28.2562159 20.0302797,27.6619248 21.1021162,26.5901257 L26.6098058,21.0824361 C28.3183694,19.3738725 28.7428417,16.4449277 27.6391689,13.9616919 C27.6285692,13.9298556 27.6073325,13.8980192 27.5860958,13.8661829 L27.2146591,13.3037281 C27.1934224,13.2718917 27.1615861,13.2400554 27.1403868,13.208219 L26.1534598,12.221292 C25.8457333,11.9135655 25.4318607,11.7437841 25.0073884,11.7437841 C24.6147525,11.7437841 24.2327162,11.9029659 23.9567886,12.1788934 L21.0915166,15.0441655 C20.4866258,15.6490563 20.5078625,16.6359833 21.1233529,17.2514737 L22.248225,18.3763458 L18.4172626,22.2073457 L17.2711538,21.0612368 C16.9952262,20.7534729 16.6025903,20.5942911 16.1781181,20.5942911 C15.7748451,20.5942911 15.3928088,20.7534729 15.095682,21.0400001 L12.2304099,23.9052722 C11.9438827,24.1917994 11.7741013,24.5950724 11.7528645,25.008945 C11.7316278,25.4440544 11.8908096,25.8685266 12.1879739,26.1656535 L13.1854631,27.1631802 Z M13.1324275,24.8072898 L15.9976996,21.9420177 C16.1038083,21.835909 16.2736271,21.8465087 16.3903355,21.9632545 L17.9821533,23.5550723 C18.2262445,23.7991635 18.62948,23.7991635 18.8841709,23.5550723 L23.6065513,18.8326919 C23.723297,18.7159461 23.7975694,18.5461647 23.7975694,18.3869829 C23.7975694,18.2278011 23.7338967,18.0580197 23.6065513,17.9412739 L22.0359702,16.3494561 C21.9192244,16.2327103 21.8980251,16.0416922 22.0041338,15.9355835 L24.8694059,13.0703114 C24.9118419,13.0278754 24.9543153,13.0066387 25.017988,13.0066387 C25.1028975,13.0066387 25.1984065,13.0490747 25.2620792,13.1127474 L26.1959332,14.0466014 L26.5036971,14.5135471 C27.5118609,16.8482007 26.8114611,19.0767457 25.7183879,20.1591818 L20.2106982,25.6881081 C19.3723533,26.526453 18.1731714,26.9827991 16.8148077,26.9827991 C16.0188988,26.9827991 15.2229899,26.8236173 14.5225901,26.5158534 L14.0344451,26.2187266 L13.0899541,25.2742355 C13.0262813,25.2105628 13.0262813,25.1150537 13.0262813,25.0726177 C13.0369184,24.9664716 13.0793544,24.8709625 13.1324275,24.8072898 Z" id="Shape" transform="translate(20.000000, 20.000000) rotate(-5.000000) translate(-20.000000, -20.000000) "></path>
        </g>
    </g>
</svg>