<?xml version="1.0" encoding="UTF-8"?>
<svg width="19px" height="17px" viewBox="0 0 19 17" version="1.1" xmlns="http://www.w3.org/2000/svg" xmlns:xlink="http://www.w3.org/1999/xlink">
    <!-- Generator: Sketch 46.2 (44496) - http://www.bohemiancoding.com/sketch -->
    <title>Group</title>
    <desc>Created with Sketch.</desc>
    <defs></defs>
    <g id="Symbols" stroke="none" stroke-width="1" fill="none" fill-rule="evenodd">
        <g id="chat" transform="translate(-11.000000, -12.000000)" fill-rule="nonzero" fill="#FFFFFF">
            <g id="Group" transform="translate(11.000000, 12.000000)">
                <path d="M16.4615531,0.183107608 L1.62598539,0.183107608 C1.17149246,0.183107608 0.783686778,0.34335051 0.476300255,0.664431735 C0.168913732,0.984917539 0.00867083049,1.37272322 0.00867083049,1.82691844 L0.00867083049,12.4929703 C0.00867083049,12.9340662 0.165490057,13.3247002 0.476300255,13.6423577 C0.7805236,13.9531679 1.17145525,14.1099499 1.62598539,14.1099499 L8.33519865,14.1099499 L13.3607078,16.9034087 L13.3607078,14.1099499 L16.4615159,14.1099499 C16.916046,14.1099499 17.3069777,13.9531307 17.6109033,13.6423577 C17.9217507,13.3247002 18.0788304,12.9340662 18.0788304,12.4929703 L18.0788304,1.82691844 C18.0788304,1.37242551 17.9182898,0.984917539 17.6109033,0.664134024 C17.3035912,0.34335051 16.916046,0.183107608 16.4615531,0.183107608 Z M16.5952625,12.4929703 C16.5952625,12.5864887 16.5550715,12.6264192 16.4615159,12.6264192 L13.3607078,12.6264192 L11.8905741,12.6264192 L11.8905741,14.1099499 L11.8905741,14.390803 L9.07058183,12.8003568 L8.73640132,12.6264192 L8.33519865,12.6264192 L1.62598539,12.6264192 C1.53216924,12.6264192 1.49223876,12.5864887 1.49223876,12.4929703 L1.49223876,1.82691844 C1.49223876,1.70660602 1.53216924,1.65327855 1.62598539,1.65327855 L16.4615531,1.65327855 C16.5551087,1.65327855 16.5952997,1.70686652 16.5952997,1.82691844 L16.5952997,12.4929703 L16.5952625,12.4929703 Z" id="Shape"></path>
                <path d="M13.6147669,8.05540299 L8.28187118,8.05540299 C7.86756922,8.05540299 7.53338872,8.3895835 7.53338872,8.80388545 C7.53338872,9.21818741 7.86756922,9.53897093 8.28187118,9.53897093 L13.6147296,9.53897093 C14.0290688,9.53897093 14.3498151,9.21818741 14.3498151,8.80388545 C14.3498151,8.3895835 14.0290688,8.05540299 13.6147669,8.05540299 Z" id="Shape"></path>
                <path d="M13.6147669,4.78091782 L4.47277162,4.78091782 C4.05846967,4.78091782 3.73768615,5.10170133 3.73768615,5.51600329 C3.73768615,5.93030524 4.05846967,6.25108876 4.47277162,6.25108876 L13.6147669,6.25108876 C14.029106,6.25108876 14.3498523,5.93030524 14.3498523,5.51600329 C14.3498523,5.10170133 14.0290688,4.78091782 13.6147669,4.78091782 Z" id="Shape"></path>
            </g>
        </g>
    </g>
</svg>