<?xml version="1.0" encoding="UTF-8"?>
<svg width="24px" height="24px" viewBox="0 0 24 24" version="1.1" xmlns="http://www.w3.org/2000/svg" xmlns:xlink="http://www.w3.org/1999/xlink">
    <!-- Generator: sketchtool 52.5 (67469) - http://www.bohemiancoding.com/sketch -->
    <title>DA1798B9-0DBF-44F8-B198-AC7D5C89CC1C</title>
    <desc>Created with sketchtool.</desc>
    <defs>
        <path d="M21.4070777,9.46680361 C21.2254112,9.46680361 21.0454113,9.38342076 20.929578,9.22507756 L18.0345797,5.27744686 L18.0345797,15.9849845 C18.0345797,16.3168315 17.7687466,16.5846673 17.4404134,16.5846673 C17.1129136,16.5846673 16.8470805,16.3168315 16.8470805,15.9849845 L16.8470805,5.29766088 L13.9512488,9.22591981 C13.7554156,9.49122889 13.3845825,9.54681746 13.1212493,9.34804621 C12.8579162,9.15011721 12.8037495,8.77531549 12.9995827,8.50832191 L16.8279138,3.31584415 C16.9679137,3.12549541 17.1920802,3.00926476 17.4295801,3.00252675 C17.4329134,3.00252675 17.4362468,3 17.4404134,3 C17.4420801,3 17.4429134,3.00084225 17.4437468,3.00084225 C17.4454134,3.00084225 17.4470801,3 17.4487468,3 L17.4504134,3 C17.6945799,3 17.9262465,3.1187574 18.0729131,3.31584415 L21.8829108,8.51000641 C22.078744,8.77615774 22.0229107,9.15180172 21.7604109,9.34888846 C21.6537443,9.42806006 21.5295777,9.46680361 21.4070777,9.46680361 Z M2.23958914,14.6511115 C2.50125565,14.454867 2.87458876,14.5087711 3.07042198,14.7749224 L5.96542025,18.7225531 L5.96542025,8.01417321 C5.96542025,7.68316855 6.23125343,7.41449046 6.55958657,7.41449046 C6.88708637,7.41449046 7.15291955,7.68316855 7.15291955,8.01417321 L7.15291955,18.7031814 L10.0487512,14.7740802 C10.2445844,14.5087711 10.6162508,14.454867 10.8787507,14.6519538 C11.1420838,14.8498828 11.1962505,15.2255268 11.0004173,15.4916781 L7.1720862,20.6841559 C7.03041962,20.8753468 6.80708642,20.989893 6.57208656,20.996631 C6.56708656,20.996631 6.5629199,21 6.55958657,21 C6.5579199,21 6.55708657,20.9991577 6.5554199,20.9991577 C6.55375324,20.9991577 6.55208657,21 6.54958657,21 C6.30542005,21 6.07375352,20.8812426 5.92708694,20.6841559 L2.11708921,15.4899936 C1.92125599,15.2246845 1.97708929,14.8481983 2.23958914,14.6511115 Z" id="path-1"></path>
    </defs>
    <g id="Symbols" stroke="none" stroke-width="1" fill="none" fill-rule="evenodd">
        <g id="icon-/-range">
            <mask id="mask-2" fill="white">
                <use xlink:href="#path-1"></use>
            </mask>
            <use id="Mask" fill="#879EBB" xlink:href="#path-1"></use>

        </g>
    </g>
</svg>