<?xml version="1.0" encoding="UTF-8"?>
<svg width="8px" height="18px" viewBox="0 0 8 18" version="1.1" xmlns="http://www.w3.org/2000/svg" xmlns:xlink="http://www.w3.org/1999/xlink">
    <!-- Generator: Sketch 46.2 (44496) - http://www.bohemiancoding.com/sketch -->
    <title>Group</title>
    <desc>Created with Sketch.</desc>
    <defs></defs>
    <g id="Symbols" stroke="none" stroke-width="1" fill="none" fill-rule="evenodd">
        <g id="arrow_icon" transform="translate(-21.000000, -21.000000)" fill="#fff">
            <g id="Group" transform="translate(21.128418, 20.500000)">
                <path d="M4.79997646,1.03338355 L7.59994821,4.76667922 L7.59994821,4.76667922 C7.93131906,5.20850702 7.84177601,5.83530837 7.39994821,6.16667922 C7.22685204,6.29650135 7.01631842,6.36667922 6.79994821,6.36667922 L1.20000471,6.36667922 L1.20000471,6.36667922 C0.647719958,6.36667922 0.200004708,5.91896397 0.200004708,5.36667922 C0.200004708,5.15030901 0.27018258,4.93977539 0.400004708,4.76667922 L3.19997646,1.03338355 L3.19997646,1.03338355 C3.53134731,0.591555753 4.15814866,0.502012703 4.59997646,0.833383553 C4.67578213,0.890237803 4.74312221,0.957577887 4.79997646,1.03338355 Z" id="Triangle"></path>
                <path d="M4.79997815,13.033389 L7.59995697,16.766716 L7.59995697,16.766716 C7.93132657,17.2085447 7.84178175,17.8353458 7.39995301,18.1667154 C7.22685725,18.2965365 7.01632452,18.3667137 6.79995527,18.3667137 L1.19999765,18.3667137 L1.19999765,18.3667137 C0.647712896,18.3667137 0.199997646,17.9189985 0.199997646,17.3667137 C0.199997646,17.1503445 0.270174892,16.9398118 0.399995951,16.766716 L3.19997476,13.033389 L3.19997476,13.033389 C3.53134437,12.5915602 4.15814546,12.5020154 4.5999742,12.833385 C4.67578154,12.8902402 4.74312298,12.9575816 4.79997815,13.033389 Z" id="Triangle" transform="translate(4.000000, 13.433357) scale(1, -1) translate(-4.000000, -15.433357) "></path>
            </g>
        </g>
    </g>
</svg>