<?xml version="1.0" encoding="UTF-8"?>
<svg width="40px" height="40px" viewBox="0 0 40 40" version="1.1" xmlns="http://www.w3.org/2000/svg" xmlns:xlink="http://www.w3.org/1999/xlink">
    <!-- Generator: sketchtool 52.3 (67297) - http://www.bohemiancoding.com/sketch -->
    <title>CADD063F-6860-4623-8947-F40CBC2DC59F</title>
    <desc>Created with sketchtool.</desc>
    <defs>
        <path d="M19.2998,20.1553 C19.7818,20.1553 20.1598,20.5393 20.1598,21.0283 C20.1598,21.5103 19.7818,21.8883 19.2998,21.8883 L15.6028,21.8883 C15.1128,21.8883 14.7288,21.5103 14.7288,21.0283 C14.7288,20.5473 15.1208,20.1553 15.6028,20.1553 L19.2998,20.1553 Z M15.5894,18.0342 C15.1074,18.0342 14.7294,17.6562 14.7294,17.1752 C14.7294,16.6922 15.1074,16.3142 15.5894,16.3142 L24.7314,16.3142 C25.2134,16.3142 25.5914,16.6922 25.5914,17.1752 C25.5914,17.6562 25.2134,18.0342 24.7314,18.0342 L15.5894,18.0342 Z M30.8076,21.6279 L28.7106,23.6639 C28.3696,23.9929 27.8176,23.9929 27.4766,23.6639 C27.1456,23.3409 27.1466,22.7749 27.4766,22.4529 L28.0716,21.8759 L23.6786,21.8759 C23.2076,21.8759 22.8246,21.4929 22.8246,21.0229 C22.8246,20.5509 23.2076,20.1679 23.6786,20.1679 L28.0716,20.1679 L27.4766,19.5909 C27.3106,19.4299 27.2196,19.2149 27.2196,18.9869 L27.2196,18.9859 C27.2196,18.7569 27.3106,18.5419 27.4766,18.3799 C27.8176,18.0509 28.3696,18.0509 28.7096,18.3799 L30.8076,20.4169 C31.1396,20.7389 31.1396,21.3049 30.8076,21.6279 Z M28.8179,12.5185 C29.1509,12.8685 29.3199,13.2885 29.3199,13.7685 L29.3199,15.4455 C29.3199,15.9245 28.9309,16.3145 28.4509,16.3145 C27.9709,16.3145 27.5829,15.9255 27.5819,15.4455 L27.5799,14.0145 C27.5799,13.8465 27.4439,13.7105 27.2759,13.7105 L13.0439,13.7165 C12.8769,13.7165 12.7409,13.8525 12.7409,14.0205 L12.7339,24.1315 C12.7339,24.2985 12.8689,24.4345 13.0369,24.4355 L19.9109,24.4565 L20.2449,24.6305 L22.8819,26.1185 L22.8819,24.8975 C22.8819,24.6475 23.0849,24.4445 23.3349,24.4435 L25.5049,24.4435 C25.9869,24.4435 26.3649,24.8275 26.3649,25.3165 C26.3649,25.7985 25.9869,26.1765 25.5049,26.1765 L24.8049,26.1765 C24.6929,26.1765 24.6019,26.2675 24.6019,26.3795 L24.6019,28.2875 C24.6019,28.4495 24.5189,28.5945 24.3789,28.6775 C24.3069,28.7195 24.2279,28.7415 24.1489,28.7415 C24.0739,28.7415 23.9989,28.7215 23.9289,28.6835 L19.4649,26.2025 C19.4319,26.1935 19.4009,26.1855 19.3669,26.1765 L12.7419,26.1765 C12.2489,26.1765 11.8319,26.0065 11.5039,25.6715 C11.1699,25.3305 10.9999,24.9145 10.9999,24.4345 L10.9999,13.7685 C10.9999,13.2875 11.1689,12.8675 11.5029,12.5195 C11.8329,12.1745 12.2499,11.9995 12.7419,11.9995 L27.5779,11.9995 C28.0699,11.9995 28.4869,12.1745 28.8179,12.5185 Z" id="path-1"></path>
    </defs>
    <g id="desktop" stroke="none" stroke-width="1" fill="none" fill-rule="evenodd">
        <g id="mob1" transform="translate(-328.000000, -640.000000)">
            <g id="Group-3" transform="translate(328.000000, 640.000000)">
                <g id="icon-/-chat">
                    <mask id="mask-2" fill="white">
                        <use xlink:href="#path-1"></use>
                    </mask>
                    <use id="Mask" fill="#879EBB" fill-rule="evenodd" xlink:href="#path-1"></use>
                    <g id="color-/-gray-dark" mask="url(#mask-2)" fill="#889FBC" fill-rule="evenodd">
                        <rect x="0" y="0" width="40" height="40"></rect>
                    </g>
                </g>
            </g>
        </g>
    </g>
</svg>