<?xml version="1.0" encoding="UTF-8"?>
<svg width="25px" height="30px" viewBox="0 0 25 30" version="1.1" xmlns="http://www.w3.org/2000/svg" xmlns:xlink="http://www.w3.org/1999/xlink">
    <!-- Generator: Sketch 46.2 (44496) - http://www.bohemiancoding.com/sketch -->
    <title>Combined Shape</title>
    <desc>Created with Sketch.</desc>
    <defs></defs>
    <g id="Symbols" stroke="none" stroke-width="1" fill="none" fill-rule="evenodd">
        <g id="play" transform="translate(-24.000000, -20.000000)" fill="#FFFFFF">
            <g id="Combined-Shape">
                <path d="M24.7590179,22.5890072 C24.812024,20.9458182 26.0488329,20.3450825 26.0488329,20.3450825 C27.4269914,19.4439788 29.4588918,20.5924442 29.4588918,20.5924442 C29.4588918,20.5924442 44.2652613,27.3772245 46.1558121,28.2606595 C47.0039096,28.6670396 47.6046454,29.0734196 47.9050132,29.6741554 C48.2760559,30.398572 48.2407185,31.3350131 48.2407185,32.041761 C48.2407185,33.3139073 48.2407185,36.3705922 48.2407185,38.5438421 C48.2407185,39.374271 48.0817002,40.0633502 47.799001,40.5227364 C47.3396149,41.247153 46.685873,41.4591774 46.685873,41.4591774 C46.685873,41.4591774 29.6532474,49.3040797 28.9464995,49.6221162 C28.2574202,49.9401528 27.1442922,50.2581894 26.0311642,49.6751223 C24.6883431,48.9683744 24.7590179,47.4135289 24.7590179,47.4135289 L24.7590179,22.5890072 Z M26.7025748,41.8125514 C26.7025748,42.3602811 26.7202435,46.9188053 26.7202435,46.9188053 C26.7202435,46.9188053 26.6495687,47.5548785 27.1619609,47.8905838 C27.6743532,48.226289 28.1690768,47.8729151 28.1690768,47.8729151 C28.1690768,47.8729151 44.7069788,40.2930433 45.5020702,39.9220006 C46.3148303,39.5332893 46.332499,38.7912039 46.332499,38.3141491 C46.332499,37.8370942 46.332499,34.2503483 46.332499,32.8545211 C46.332499,31.4586939 45.042684,31.9357488 45.042684,31.9357488 L44.3712735,32.1831106 C43.2934829,32.5011472 43.1167959,33.8969744 41.4382695,34.5330475 C39.7774118,35.1691207 39.353363,34.3740292 37.9045298,34.9217589 C36.4556965,35.4694886 35.6959424,37.6780759 33.5580299,38.7205291 C31.4201173,39.7629823 29.8476031,38.3141491 28.2044142,39.0032283 C26.5435565,39.6923076 26.7025748,41.2648217 26.7025748,41.8125514 Z"></path>
            </g>
        </g>
    </g>
</svg>