<?xml version="1.0" encoding="UTF-8"?>
<svg width="24px" height="24px" viewBox="0 0 24 24" version="1.1" xmlns="http://www.w3.org/2000/svg" xmlns:xlink="http://www.w3.org/1999/xlink">
    <!-- Generator: Sketch 46.2 (44496) - http://www.bohemiancoding.com/sketch -->
    <title>text</title>
    <desc>Created with Sketch.</desc>
    <defs></defs>
    <g id="Symbols" stroke="none" stroke-width="1" fill="none" fill-rule="evenodd">
        <g id="text" fill-rule="nonzero" fill="#F5A623">
            <path d="M12,24 C5.372583,24 0,18.627417 0,12 C0,5.372583 5.372583,0 12,0 C18.627417,0 24,5.372583 24,12 C24,18.627417 18.627417,24 12,24 Z M15.9613982,8.32389058 C14.8981155,7.48477204 13.4865046,7.02264438 11.9865653,7.02264438 C10.4866261,7.02264438 9.0750152,7.48477204 8.01176292,8.32389058 C6.93790274,9.17136778 6.34650456,10.3013678 6.34650456,11.5057143 C6.34650456,12.2301824 6.56863222,12.9497264 6.98884498,13.5865653 C7.37665653,14.1742553 7.93322188,14.6935562 8.60246201,15.0930699 C8.57158055,15.3093617 8.40528875,15.9423404 7.51164134,16.6966869 C7.4656535,16.7355319 7.4468997,16.7978419 7.46386018,16.8556231 C7.48082067,16.9133739 7.53027356,16.9556839 7.58993921,16.9635258 C7.59534954,16.9642249 7.72531915,16.9809119 7.9562614,16.9809119 C8.61477204,16.9809119 9.96048632,16.850152 11.6055927,15.978693 C11.7325532,15.9854103 11.8605167,15.9888146 11.9865653,15.9888146 C13.4865046,15.9888146 14.8980851,15.5266869 15.9613982,14.6875684 C17.0352584,13.8400912 17.6266565,12.7100912 17.6266565,11.5057143 C17.6266565,10.3013678 17.0352584,9.17136778 15.9613982,8.32389058 Z" id="Combined-Shape"></path>
        </g>
    </g>
</svg>