<?xml version="1.0" encoding="UTF-8"?>
<svg width="26px" height="21px" viewBox="0 0 26 21" version="1.1" xmlns="http://www.w3.org/2000/svg" xmlns:xlink="http://www.w3.org/1999/xlink">
    <!-- Generator: Sketch 46.2 (44496) - http://www.bohemiancoding.com/sketch -->
    <title>set</title>
    <desc>Created with Sketch.</desc>
    <defs></defs>
    <g id="Symbols" stroke="none" stroke-width="1" fill="none" fill-rule="evenodd">
        <g id="set_icon" transform="translate(-27.000000, -20.000000)" fill="#333333">
            <g id="set" transform="translate(26.500000, 19.500000)">
                <path d="M7,3.71248959 L1.5,3.71248959 L1.5,3.71248959 C0.94771525,3.71248959 0.5,4.16020484 0.5,4.71248959 L0.5,4.71248959 L0.5,4.71248959 C0.5,5.26477434 0.94771525,5.71248959 1.5,5.71248959 L7,5.71248959 L7,3.71248959 Z M11,3.71248959 L25.5,3.71248959 C26.0522847,3.71248959 26.5,4.16020484 26.5,4.71248959 L26.5,4.71248959 C26.5,5.26477434 26.0522847,5.71248959 25.5,5.71248959 L11,5.71248959 L11,3.71248959 Z" id="Combined-Shape"></path>
                <path d="M6.5,0.712489589 L11.5,0.712489589 C12.0522847,0.712489589 12.5,1.16020484 12.5,1.71248959 L12.5,7.71248959 C12.5,8.26477434 12.0522847,8.71248959 11.5,8.71248959 L6.5,8.71248959 C5.94771525,8.71248959 5.5,8.26477434 5.5,7.71248959 L5.5,1.71248959 C5.5,1.16020484 5.94771525,0.712489589 6.5,0.712489589 Z M7.5,2.71248959 L7.5,6.71248959 L10.5,6.71248959 L10.5,2.71248959 L7.5,2.71248959 Z" id="Rectangle-7" fill-rule="nonzero"></path>
                <path d="M13,15.7124896 L1.5,15.7124896 L1.5,15.7124896 C0.94771525,15.7124896 0.5,16.1602048 0.5,16.7124896 L0.5,16.7124896 L0.5,16.7124896 C0.5,17.2647743 0.94771525,17.7124896 1.5,17.7124896 L13,17.7124896 L13,15.7124896 Z M17,15.7124896 L25.5,15.7124896 C26.0522847,15.7124896 26.5,16.1602048 26.5,16.7124896 L26.5,16.7124896 C26.5,17.2647743 26.0522847,17.7124896 25.5,17.7124896 L17,17.7124896 L17,15.7124896 Z" id="Combined-Shape"></path>
                <path d="M12.5,12.7124896 L17.5,12.7124896 C18.0522847,12.7124896 18.5,13.1602048 18.5,13.7124896 L18.5,19.7124896 C18.5,20.2647743 18.0522847,20.7124896 17.5,20.7124896 L12.5,20.7124896 C11.9477153,20.7124896 11.5,20.2647743 11.5,19.7124896 L11.5,13.7124896 C11.5,13.1602048 11.9477153,12.7124896 12.5,12.7124896 Z M13.5,18.7124896 L16.5,18.7124896 L16.5,14.7124896 L13.5,14.7124896 L13.5,18.7124896 Z" id="Rectangle-7" fill-rule="nonzero"></path>
            </g>
        </g>
    </g>
</svg>