<?xml version="1.0" encoding="UTF-8"?>
<svg width="24px" height="24px" viewBox="0 0 24 24" version="1.1" xmlns="http://www.w3.org/2000/svg" xmlns:xlink="http://www.w3.org/1999/xlink">
    <!-- Generator: Sketch 46.2 (44496) - http://www.bohemiancoding.com/sketch -->
    <title>Combined Shape</title>
    <desc>Created with Sketch.</desc>
    <defs></defs>
    <g id="Symbols" stroke="none" stroke-width="1" fill="none" fill-rule="evenodd">
        <g id="notification" fill="#BD388B">
            <path d="M12,24 C5.372583,24 0,18.627417 0,12 C0,5.372583 5.372583,0 12,0 C18.627417,0 24,5.372583 24,12 C24,18.627417 18.627417,24 12,24 Z M11.9998315,17.5933387 C12.7253264,17.5933387 13.3137548,17.005382 13.3136201,16.279348 L10.6858408,16.279348 C10.6858408,17.005382 11.2743367,17.5933387 11.9998315,17.5933387 Z M16.4400001,14.9617858 L16.4400001,14.8780904 C16.4400001,14.5286857 16.2349396,14.2300239 15.9401189,14.0879035 L15.6609995,11.6782579 C15.6609995,9.9142529 14.4136551,8.44223831 12.75309,8.09499005 L12.75309,7.15958286 C12.75309,6.74380141 12.4159499,6.40666128 12.0001685,6.40666128 C11.5841849,6.40666128 11.2470447,6.74380141 11.2470447,7.15958286 L11.2470447,8.09492266 C9.58647965,8.44223831 8.3391353,9.91438768 8.3391353,11.6781905 L8.06001589,14.0874992 C7.76519516,14.2294174 7.55999994,14.5286184 7.55999994,14.878023 L7.55999994,14.9617184 C7.55999994,15.447583 7.95340871,15.4795921 8.43913849,15.4795921 L15.5603898,15.4795921 C16.0459174,15.4795921 16.4396631,15.447583 16.4396631,14.9617184 L16.4396631,14.9617858 L16.4400001,14.9617858 Z" id="Combined-Shape"></path>
        </g>
    </g>
</svg>