<?xml version="1.0" encoding="UTF-8"?>
<svg width="40px" height="50px" viewBox="0 0 40 50" version="1.1" xmlns="http://www.w3.org/2000/svg" xmlns:xlink="http://www.w3.org/1999/xlink">
    <!-- Generator: Sketch 46.2 (44496) - http://www.bohemiancoding.com/sketch -->
    <title>user</title>
    <desc>Created with Sketch.</desc>
    <defs></defs>
    <g id="Symbols" stroke="none" stroke-width="1" fill="none" fill-rule="evenodd">
        <g id="user" fill-rule="nonzero" fill="#FFFFFF">
            <g id="Combined-Shape">
                <path d="M0.00109191245,4.33675373 C0.0612835862,1.59940877 2.198088,0.569225179 2.16799217,0.569225179 C4.51546744,-0.931899478 8.00658452,1.01073243 8.00658452,1.01073243 C8.00658452,1.01073243 33.2268958,12.3133181 36.4471503,13.7850089 C37.8917505,14.4619867 38.915009,15.1389645 39.4266382,16.1397143 C40.0586508,17.3465008 39.9984591,18.9064931 39.9984591,20.0838457 C39.9984591,22.2030805 39.9984591,27.2951308 39.9984591,30.9154903 C39.9984591,32.2988797 39.7275966,33.4467986 39.2460632,34.2120778 C38.4635714,35.4188643 37.3500254,35.7720701 37.3500254,35.7720701 C37.3500254,35.7720701 8.33763872,48.8406848 7.13380525,49.3704935 C5.96006761,49.9003022 4.06402989,50.4301109 2.16799217,49.4587949 C-0.119291435,48.2814422 0.00109191245,45.6912664 0.00109191245,45.6912664 L0.00109191245,4.33675373 Z M3.31163397,45.2203253 C3.31163397,46.0444722 4.00383821,46.6920161 4.87661748,46.6920161 C5.08728834,46.6920161 5.2979592,46.6625823 5.47853422,46.5742809 C5.47853422,46.5742809 34.4909209,33.5939676 35.1229335,33.2701957 C35.7549461,32.9464237 36.687917,32.6815193 36.687917,30.5622845 C36.687917,28.4430497 36.687917,21.1728969 36.687917,21.1728969 C36.687917,21.1728969 36.6578212,19.7306399 35.1229335,19.7306399 C33.5880458,19.7306399 33.4977583,21.1728969 33.4977583,21.1728969 L33.4977583,25.0581608 C33.4977583,25.0581608 33.4977583,27.265697 31.2405706,27.265697 C28.9833828,27.265697 28.9833828,25.0581608 28.9833828,25.0581608 L28.9833828,24.3223153 C28.9833828,24.3223153 28.9231911,22.8506245 27.478591,22.8506245 C26.0339908,22.8506245 25.9737991,24.3223153 25.9737991,24.3223153 L25.9737991,32.2105783 C25.9737991,32.2105783 25.8835116,34.4181145 23.7166114,34.4181145 C21.5497111,34.4181145 21.4594236,32.2105783 21.4594236,32.2105783 L21.4594236,27.4128661 C21.4594236,27.4128661 21.3992319,25.9411753 19.9546317,25.9411753 C18.5100316,25.9411753 18.4498399,27.4128661 18.4498399,27.4128661 L18.4498399,31.2392623 C18.4498399,31.2392623 18.3896482,33.4467986 16.1926521,33.4467986 C13.9956561,33.4467986 13.9354644,31.2392623 13.9354644,31.2392623 L13.9354644,30.5328507 C13.9354644,30.5328507 13.8752727,29.0611599 12.4306725,29.0611599 C10.9860724,29.0611599 10.9258807,30.5328507 10.9258807,30.5328507 L10.9258807,35.6543348 C10.9258807,35.6543348 10.7754015,37.8618711 8.66869293,37.8618711 C6.56198435,37.8618711 6.41150516,35.6543348 6.41150516,35.6543348 L6.41150516,33.6822691 C6.41150516,33.6822691 6.41150516,32.2105783 4.84652165,32.2105783 C3.28153813,32.2105783 3.28153813,33.6822691 3.28153813,33.6822691 L3.28153813,45.2203253 L3.31163397,45.2203253 Z"></path>
            </g>
        </g>
    </g>
</svg>