<?xml version="1.0" encoding="UTF-8"?>
<svg width="50px" height="50px" viewBox="0 0 50 50" version="1.1" xmlns="http://www.w3.org/2000/svg" xmlns:xlink="http://www.w3.org/1999/xlink">
    <!-- Generator: Sketch 46.2 (44496) - http://www.bohemiancoding.com/sketch -->
    <title>social__client-ok</title>
    <desc>Created with Sketch.</desc>
    <defs></defs>
    <g id="Symbols" stroke="none" stroke-width="1" fill="none" fill-rule="evenodd">
        <g id="ok" fill-rule="nonzero" fill="#FFFFFF">
            <path d="M24.9999485,10 C33.2846811,10 40,16.7162458 40,25.0000515 C40,33.284784 33.2846811,40 24.9999485,40 C16.715216,40 10,33.2846811 10,25.0000515 C10,16.7162458 16.7153189,10 24.9999485,10 Z" id="Shape" fill-opacity="0.0800000057"></path>
            <g id="odnoklassniki-logo" transform="translate(20.166667, 17.000000)">
                <path d="M4.00683333,11.209 C2.77316667,11.0803333 1.66083333,10.7765 0.7085,10.0316667 C0.590333333,9.939 0.468333333,9.84966667 0.3605,9.74616667 C-0.0563333333,9.34583333 -0.0983333333,8.88733333 0.2315,8.41483333 C0.513666667,8.0105 0.987333333,7.90233333 1.47966667,8.1345 C1.575,8.1795 1.66583333,8.23566667 1.75283333,8.296 C3.52766667,9.5155 5.96583333,9.54916667 7.74733333,8.35083333 C7.92383333,8.2155 8.1125,8.10516667 8.33116667,8.04883333 C8.75633333,7.93966667 9.15283333,8.09583333 9.381,8.46783333 C9.64166667,8.89266667 9.63833333,9.30733333 9.31716667,9.63716667 C8.8245,10.1428333 8.232,10.5086667 7.57366667,10.764 C6.95116667,11.0053333 6.26933333,11.1268333 5.5945,11.2075 C5.69633333,11.3183333 5.74433333,11.3728333 5.808,11.4368333 C6.72433333,12.3575 7.64466667,13.2743333 8.558,14.1978333 C8.86916667,14.5125 8.93416667,14.9026667 8.76283333,15.2686667 C8.5755,15.6686667 8.15616667,15.9318333 7.745,15.9036667 C7.4845,15.8856667 7.28133333,15.756 7.10083333,15.5741667 C6.40933333,14.8783333 5.70483333,14.1953333 5.02733333,13.4863333 C4.83016667,13.2801667 4.73533333,13.3191667 4.56133333,13.4981667 C3.86566667,14.2143333 3.15866667,14.9195 2.4475,15.6206667 C2.12816667,15.9355 1.74816667,15.9921667 1.37783333,15.8123333 C0.984166667,15.6215 0.733666667,15.2196667 0.753,14.8158333 C0.766333333,14.5426667 0.900666667,14.334 1.08816667,14.1468333 C1.995,13.2413333 2.89933333,12.3335 3.804,11.4265 C3.86383333,11.3661667 3.91966667,11.3021667 4.00683333,11.209 Z" id="Shape"></path>
                <path d="M4.75833333,8.05483333 C2.5575,8.04733333 0.752833333,6.22283333 0.765666667,4.0185 C0.778333333,1.78983333 2.58416667,-0.00616666667 4.80666667,3.38813179e-21 C7.03366667,0.006 8.82116667,1.82783333 8.81,4.07966667 C8.79866667,6.2795 6.9815,8.0625 4.75833333,8.05483333 Z M6.7585,4.02383333 C6.75466667,2.92933333 5.883,2.058 4.79066667,2.057 C3.68916667,2.05583333 2.80966667,2.943 2.81816667,4.0475 C2.82633333,5.13783333 3.7055,6.003 4.80083333,5.999 C5.89283333,5.99516667 6.76216667,5.11816667 6.7585,4.02383333 Z" id="Shape"></path>
            </g>
        </g>
    </g>
</svg>