<?xml version="1.0" encoding="UTF-8"?>
<svg width="50px" height="50px" viewBox="0 0 50 50" version="1.1" xmlns="http://www.w3.org/2000/svg" xmlns:xlink="http://www.w3.org/1999/xlink">
    <!-- Generator: Sketch 46.2 (44496) - http://www.bohemiancoding.com/sketch -->
    <title>social__client-facebook</title>
    <desc>Created with Sketch.</desc>
    <defs></defs>
    <g id="Symbols" stroke="none" stroke-width="1" fill="none" fill-rule="evenodd">
        <g id="facebook" fill-rule="nonzero" fill="#FFFFFF">
            <path d="M24.9999485,10 C33.2846811,10 40,16.7162458 40,25.0000515 C40,33.284784 33.2846811,40 24.9999485,40 C16.715216,40 10,33.2846811 10,25.0000515 C10,16.7162458 16.7153189,10 24.9999485,10 Z" id="Shape" fill-opacity="0.0799999982"></path>
            <path d="M26.5192121,21.1153593 L28.1264038,21.1153593 L28.1264038,18.7412155 L26.2371059,18.7412155 L26.2371059,18.7497771 C23.9478936,18.8308559 23.4787155,20.117671 23.4373627,21.4692121 L23.4326538,21.4692121 L23.4326538,22.6547429 L21.8738353,22.6547429 L21.8738353,24.9797429 L23.4326538,24.9797429 L23.4326538,31.2120203 L25.7818833,31.2120203 L25.7818833,24.9797429 L27.706284,24.9797429 L28.0780306,22.6547429 L25.7826538,22.6547429 L25.7826538,21.9384758 C25.7826538,21.4817121 26.0865922,21.1153593 26.5192121,21.1153593 Z" id="Shape"></path>
        </g>
    </g>
</svg>