<?xml version="1.0" encoding="UTF-8"?>
<svg width="72px" height="72px" viewBox="0 0 72 72" version="1.1" xmlns="http://www.w3.org/2000/svg" xmlns:xlink="http://www.w3.org/1999/xlink">
    <!-- Generator: Sketch 50.2 (55047) - http://www.bohemiancoding.com/sketch -->
    <title>vk</title>
    <desc>Created with Sketch.</desc>
    <defs>
        <path d="M20,0 C31.045695,-2.02906125e-15 40,8.954305 40,20 C40,31.045695 31.045695,40 20,40 C8.954305,40 1.3527075e-15,31.045695 0,20 C-1.3527075e-15,8.954305 8.954305,2.02906125e-15 20,0 Z M27.2063896,19.1288509 C27.4714263,18.7862288 27.6818451,18.5113189 27.8372259,18.3039111 C28.9563669,16.8159945 29.4414506,15.8655036 29.2927919,15.4511081 L29.2344629,15.3540563 C29.1957052,15.2957623 29.0952223,15.2422298 28.9336445,15.1937739 C28.7718566,15.1453531 28.5648689,15.1376156 28.3126814,15.169581 L25.5179974,15.1892925 C25.4532963,15.1828503 25.3885601,15.1843558 25.3238589,15.1937739 C25.2591578,15.2036121 25.217179,15.2134854 25.1976427,15.2229034 C25.1781413,15.2327767 25.162071,15.2406893 25.1492218,15.2471314 L25.1104641,15.2762609 C25.0781136,15.2955522 25.0425769,15.3296183 25.0037843,15.3782843 C24.9649566,15.4269152 24.9323959,15.4832836 24.9066975,15.5481948 C24.6026581,16.3309108 24.2566049,17.0587989 23.8683979,17.7316139 C23.6289896,18.1327401 23.4089427,18.4807189 23.2086422,18.774675 C23.0080616,19.0692964 22.8398666,19.2859472 22.7039871,19.4247676 C22.5681777,19.5638331 22.4451475,19.6756597 22.3352815,19.7594771 C22.2251355,19.8438897 22.1411431,19.8792513 22.0830941,19.8664021 C22.024765,19.8535529 21.969727,19.8407037 21.9180851,19.8273993 C21.8274755,19.7693503 21.7545816,19.6902595 21.6997537,19.5897766 C21.6447157,19.4897489 21.6076386,19.3634976 21.5881022,19.2113728 C21.5688109,19.0594582 21.5572571,18.9283403 21.5542461,18.8181943 C21.550815,18.7082933 21.5525306,18.5531576 21.5591827,18.3523669 C21.5656248,18.1517863 21.5688109,18.016187 21.5688109,17.9448336 C21.5688109,17.6992633 21.5737475,17.432301 21.5834457,17.1443318 C21.5930738,16.8565727 21.6012315,16.6283681 21.6076386,16.4601381 C21.6140807,16.2921531 21.6172667,16.1140849 21.6172667,15.9263885 C21.6172667,15.7391123 21.605923,15.591679 21.5831306,15.4847891 C21.5604431,15.3782843 21.526377,15.2747904 21.4813873,15.1743076 C21.4359774,15.0742448 21.3697358,14.9964494 21.2823122,14.9416215 C21.1949236,14.8865484 21.0866682,14.8430642 20.9573009,14.8104686 C20.6142237,14.7326731 20.1775609,14.6911145 19.6472424,14.6842873 C18.4438989,14.6718582 17.6708111,14.7494086 17.3279789,14.9173935 C17.1921345,14.9887469 17.0691393,15.0855885 16.9592384,15.2085838 C16.8426852,15.3510804 16.826615,15.4288408 16.9108175,15.4412699 C17.2990595,15.4995639 17.5737943,15.6388395 17.7355472,15.8586764 L17.7938413,15.9750194 C17.8390411,16.059432 17.8842759,16.2081607 17.9296857,16.4215555 C17.9749205,16.6349853 18.0040501,16.8711025 18.0171093,17.1299421 C18.0494599,17.6021766 18.0494599,18.0063137 18.0171093,18.3429488 C17.9847587,18.6795489 17.9541237,18.9413995 17.9249942,19.1286758 C17.8958297,19.3163722 17.8521354,19.4682869 17.7940514,19.5846299 C17.7357573,19.7013931 17.6969996,19.7725364 17.6774983,19.7984448 C17.6579969,19.8241432 17.6419266,19.8404236 17.6290774,19.8469007 C17.5448749,19.8790412 17.4576614,19.8953215 17.3670517,19.8953215 C17.2764071,19.8953215 17.1664711,19.8498767 17.0370688,19.759232 C16.9076315,19.6690425 16.7732925,19.5443317 16.6344371,19.3857649 C16.4951616,19.2274431 16.3385204,19.0056806 16.1636732,18.7208974 C15.9890361,18.4365694 15.8077468,18.0999344 15.6202605,17.7119024 L15.4651247,17.4303404 C15.368073,17.2495062 15.2354146,16.98573 15.0672196,16.6396768 C14.8990246,16.2936236 14.7500859,15.9589492 14.6208936,15.6351983 C14.5690417,15.4995639 14.4914563,15.3960701 14.3879975,15.3247167 L14.3395766,15.2955872 C14.307226,15.2698538 14.2553741,15.2422298 14.1842308,15.2132753 C14.1128775,15.1841458 14.0387582,15.1631389 13.9609628,15.1500796 L11.3020882,15.1693709 C11.0303994,15.1693709 10.8461341,15.2310961 10.7490824,15.3540563 L10.7102897,15.4121403 C10.6906833,15.444701 10.6810551,15.4965529 10.6810551,15.5674861 C10.6810551,15.6388395 10.7005565,15.726053 10.7393492,15.8293368 C11.1275912,16.7417002 11.5497242,17.6215029 12.0056783,18.46871 C12.4618775,19.3163722 12.8580671,19.9990254 13.1944571,20.5164947 C13.5308471,21.034384 13.8736792,21.5224787 14.2231635,21.9818639 C14.5726478,22.4412491 14.8038284,22.7354153 14.9169504,22.8646426 C15.0300724,22.99429 15.1190015,23.0913768 15.1837377,23.1558328 L15.426297,23.3889391 C15.5814328,23.5441098 15.8096374,23.7300556 16.1104908,23.9469166 C16.4113092,24.1637425 16.7443031,24.3771723 17.1100677,24.5871709 C17.4754122,24.7975898 17.9009413,24.9687607 18.386025,25.1016292 C18.8711436,25.2344626 19.3433781,25.2877851 19.8027633,25.2616665 L20.9187183,25.2616665 C21.1452073,25.2423752 21.3165534,25.171477 21.4329665,25.0482367 L21.4717241,24.9998159 C21.4974225,24.9612333 21.5218605,24.9012587 21.5445479,24.8204522 C21.5670603,24.7396808 21.5786841,24.6505417 21.5786841,24.5537 C21.5719969,24.2756041 21.5932489,24.0244669 21.6416697,23.801619 C21.6900905,23.578351 21.7451285,23.4103661 21.8066787,23.296824 C21.8681588,23.183877 21.9375515,23.0883308 22.0153119,23.0105353 C22.0929323,22.9327399 22.1477602,22.8862447 22.1803209,22.8699644 C22.2126714,22.8541042 22.2386499,22.8427605 22.2579413,22.8358982 C22.413042,22.7842213 22.5958017,22.8343927 22.8062206,22.9863074 C23.0164293,23.1386772 23.2137889,23.3259185 23.3982642,23.5491865 C23.5824944,23.7724545 23.8040469,24.0229264 24.0629216,24.3012674 C24.3215511,24.5793634 24.5480052,24.7863511 24.7421437,24.9221955 L24.9362822,25.0389937 C25.0656495,25.116334 25.2336694,25.1874773 25.4408672,25.2524235 C25.6478549,25.3169146 25.8291442,25.3331949 25.9842449,25.3008444 L28.4684824,25.2618416 C28.7142627,25.2618416 28.9051802,25.2215784 29.0410596,25.1405619 C29.176869,25.0602107 29.2577105,24.9706514 29.2836189,24.8738097 C29.3093173,24.776758 29.3110329,24.6672771 29.2885556,24.5440368 C29.2658681,24.4212517 29.2431457,24.3355437 29.2206684,24.2871228 C29.1979809,24.238702 29.176904,24.1979837 29.1574027,24.1658432 C28.8338969,23.5836728 28.2161198,22.8686339 27.3039665,22.0212168 L27.2844651,22.0019255 L27.274837,21.9920872 L27.2652088,21.9826342 L27.2554757,21.9826342 C26.8412902,21.5879501 26.5794396,21.3226683 26.4695036,21.1866138 C26.268993,20.9282293 26.2235482,20.6661686 26.3336942,20.4009219 C26.4108244,20.1997811 26.7018046,19.7759675 27.2063896,19.1288509 Z" id="path-1"></path>
        <filter x="-70.0%" y="-50.0%" width="240.0%" height="240.0%" filterUnits="objectBoundingBox" id="filter-2">
            <feOffset dx="0" dy="8" in="SourceAlpha" result="shadowOffsetOuter1"></feOffset>
            <feGaussianBlur stdDeviation="8" in="shadowOffsetOuter1" result="shadowBlurOuter1"></feGaussianBlur>
            <feColorMatrix values="0 0 0 0 0.352731718   0 0 0 0 0.352731718   0 0 0 0 0.352731718  0 0 0 0.1 0" type="matrix" in="shadowBlurOuter1"></feColorMatrix>
        </filter>
    </defs>
    <g id="Symbols" stroke="none" stroke-width="1" fill="none" fill-rule="evenodd">
        <g id="vk" transform="translate(16.000000, 8.000000)">
            <g id="Combined-Shape">
                <g>
                    <use fill="black" fill-opacity="1" filter="url(#filter-2)" xlink:href="#path-1"></use>
                    <use fill="#FFFFFF" fill-rule="evenodd" xlink:href="#path-1"></use>
                </g>
            </g>
        </g>
    </g>
</svg>