<?xml version="1.0" encoding="UTF-8"?>
<svg width="50px" height="50px" viewBox="0 0 50 50" version="1.1" xmlns="http://www.w3.org/2000/svg" xmlns:xlink="http://www.w3.org/1999/xlink">
    <!-- Generator: Sketch 46.2 (44496) - http://www.bohemiancoding.com/sketch -->
    <title>social__client-vk</title>
    <desc>Created with Sketch.</desc>
    <defs></defs>
    <g id="Symbols" stroke="none" stroke-width="1" fill="none" fill-rule="evenodd">
        <g id="vk" fill="#FFFFFF">
            <path d="M24.9999485,10 C33.2846811,10 40,16.7162458 40,25.0000515 C40,33.284784 33.2846811,40 24.9999485,40 C16.715216,40 10,33.2846811 10,25.0000515 C10,16.7162458 16.7153189,10 24.9999485,10 Z" id="Shape" fill-opacity="0" fill-rule="nonzero"></path>
            <path d="M24.8494007,28.9665063 L25.6876186,28.9665063 C25.6876186,28.9665063 25.9408164,28.9387117 26.0700805,28.7993577 C26.1890644,28.6714262 26.1852569,28.4311739 26.1852569,28.4311739 C26.1852569,28.4311739 26.1688847,27.3064427 26.690891,27.1408171 C27.2054726,26.9776664 27.8662617,28.2278542 28.5666486,28.7085492 C29.0962698,29.0723544 29.498721,28.9925876 29.498721,28.9925876 L31.3714326,28.9665063 C31.3714326,28.9665063 32.3510985,28.9061577 31.8865853,28.1359034 C31.8485105,28.0728895 31.6160635,27.5661132 30.494188,26.524766 C29.3199595,25.4348734 29.4772087,25.6111599 30.8916894,23.7258836 C31.753133,22.5777364 32.09752,21.8767784 31.9899586,21.5765582 C31.8873468,21.2906161 31.2537813,21.3661946 31.2537813,21.3661946 L29.145196,21.3793305 C29.145196,21.3793305 28.9888987,21.3580085 28.8729608,21.4273048 C28.7596881,21.4952684 28.6867747,21.6536598 28.6867747,21.6536598 C28.6867747,21.6536598 28.3530487,22.5421365 27.9079536,23.2977319 C26.9690278,24.8921163 26.5936097,24.9762618 26.4401681,24.8772671 C26.0832163,24.6465335 26.1723115,23.9503349 26.1723115,23.4557425 C26.1723115,21.910665 26.4066622,21.2664385 25.7159844,21.0996707 C25.4867738,21.0442718 25.3181022,21.0077199 24.7319398,21.0018183 C23.9795807,20.994013 23.3427788,21.0041028 22.98221,21.1807701 C22.7423384,21.298231 22.5572946,21.5599956 22.6699962,21.5750352 C22.8093501,21.5936919 23.1249907,21.6601325 23.2923297,21.8880105 C23.5084044,22.1819484 23.5007895,22.8421663 23.5007895,22.8421663 C23.5007895,22.8421663 23.6249135,24.661002 23.2108495,24.8869762 C22.9266207,25.0419409 22.5367342,24.7255389 21.6996586,23.2790752 C21.2707454,22.5381386 20.9469187,21.7191485 20.9469187,21.7191485 C20.9469187,21.7191485 20.884476,21.5660876 20.773107,21.4842267 C20.6379413,21.3850417 20.4490901,21.3534396 20.4490901,21.3534396 L18.4454009,21.3665754 C18.4454009,21.3665754 18.1446096,21.3749519 18.0341925,21.505739 C17.9359594,21.6220576 18.0263872,21.8626907 18.0263872,21.8626907 C18.0263872,21.8626907 19.5950711,25.5327257 21.371263,27.3822117 C22.9999148,29.0778752 24.8494007,28.9665063 24.8494007,28.9665063 L24.8494007,28.9665063 Z" id="Shape"></path>
        </g>
    </g>
</svg>