<?xml version="1.0" encoding="UTF-8"?>
<svg width="28px" height="28px" viewBox="0 0 28 28" version="1.1" xmlns="http://www.w3.org/2000/svg" xmlns:xlink="http://www.w3.org/1999/xlink">
    <!-- Generator: Sketch 46.2 (44496) - http://www.bohemiancoding.com/sketch -->
    <title>star (1)</title>
    <desc>Created with Sketch.</desc>
    <defs></defs>
    <g id="Symbols" stroke="none" stroke-width="1" fill="none" fill-rule="evenodd">
        <g id="bow_tie" transform="translate(-16.000000, -16.000000)" stroke="#FFFFFF" stroke-width="0.35" fill="#FFFFFF" fill-rule="nonzero">
            <g id="star-(1)" transform="translate(15.385246, 17.000000)">
                <path d="M28.2813389,9.87279658 C28.1867468,9.58260734 27.9361045,9.37097763 27.6341581,9.32715531 L19.1882619,8.10013049 L15.4115266,0.447311346 C15.2763187,0.173689086 14.9978867,3.08083349e-06 14.6927337,3.08083349e-06 C14.3875808,3.08083349e-06 14.1091487,0.173689086 13.9739409,0.447311346 L10.1972589,8.09906165 L1.64608233,9.32715531 C1.34253263,9.37044321 1.09028711,9.58314176 0.996763877,9.87546867 C0.902706225,10.1672612 0.983937833,10.4868434 1.20518708,10.6990075 L7.41774843,16.6555824 L5.97588738,25.0630005 C5.92404879,25.3633437 6.04803388,25.6674278 6.29440079,25.8469924 C6.54183655,26.0260226 6.86890066,26.0500714 7.13878199,25.9079161 L14.6927872,21.9366524 L22.2467389,25.9078626 C22.5157117,26.0491094 22.8437378,26.0266104 23.0905857,25.8469389 C23.337487,25.6673743 23.4614721,25.3632902 23.4096335,25.062947 L21.967238,16.6512536 L28.0782599,10.6946788 C28.296837,10.4814992 28.3753965,10.1629858 28.2813389,9.87279658 Z M20.5462193,15.7973064 C20.3570351,15.9816807 20.2709938,16.2472867 20.3158849,16.5070141 L21.5552014,23.7328329 L15.0658112,20.3211588 C14.949308,20.2597006 14.8210476,20.2292388 14.6927872,20.2292388 C14.5645267,20.2292388 14.4362663,20.2597006 14.3197631,20.3211588 L7.83037294,23.7328329 L9.06968938,16.5070141 C9.11511495,16.2446146 9.02693591,15.9774054 8.83454525,15.793031 L3.50217114,10.6803029 L10.8434243,9.62589524 C11.1047549,9.58848595 11.3313484,9.42441947 11.448386,9.18767209 L14.6927872,2.61330943 L17.9372417,9.18767209 C18.0542794,9.42388506 18.279804,9.58795153 18.5411346,9.62589524 L25.7963464,10.6803029 L20.5462193,15.7973064 Z" id="Shape"></path>
            </g>
        </g>
    </g>
</svg>