
<svg width="20px" height="28px" viewBox="0 0 20 28" version="1.1" xmlns="http://www.w3.org/2000/svg" xmlns:xlink="http://www.w3.org/1999/xlink">
    <!-- Generator: Sketch 46.2 (44496) - http://www.bohemiancoding.com/sketch -->
    <desc>Created with Sketch.</desc>
    <defs></defs>
    <g id="Symbols" stroke="none" stroke-width="1" fill="none" fill-rule="evenodd">
        <g id="wine_glass" transform="translate(-20.000000, -16.000000)" stroke="#02CFB6" stroke-width="0.2" fill="#02CFB6" fill-rule="nonzero">
            <g id="wine-glass" transform="translate(20.000000, 17.000000)">
                <path d="M19.5625,9.625 C19.5625,8.89175 19.48375,8.17775 19.32975,7.50575 C19.3274167,7.49408333 18.8140833,5.21966667 17.78975,0.6825 C17.70225,0.2835 17.34525,0 16.9375,0 L2.9375,0 C2.52975,0 2.17275,0.2835 2.08525,0.6825 L0.55925,7.44975 C0.39125,8.17775 0.3125,8.89175 0.3125,9.625 C0.3125,14.637 4.16425,18.76175 9.0625,19.20625 L9.0625,24.25 L5.5625,24.25 C5.0795,24.25 4.6875,24.642 4.6875,25.125 C4.6875,25.608 5.0795,26 5.5625,26 L14.3125,26 C14.7955,26 15.1875,25.608 15.1875,25.125 C15.1875,24.642 14.7955,24.25 14.3125,24.25 L10.8125,24.25 L10.8125,19.20625 C15.71075,18.76175 19.5625,14.637 19.5625,9.625 Z M2.241,7.945 C2.2445,7.92575 2.24975,7.9065 2.25325,7.8855 L3.63575,1.75 L16.2375,1.75 L17.62,7.8855 C17.6235,7.903 17.62875,7.92225 17.634,7.93975 C17.69175,8.197 17.69,8.4805 17.71975,8.75 L2.15525,8.75 C2.185,8.4805 2.18325,8.19875 2.241,7.945 Z M9.9375,17.5 C5.895,17.5 2.59275,14.427 2.15175,10.5 L17.725,10.5 C17.28225,14.427 13.98,17.5 9.9375,17.5 Z" id="Shape"></path>
            </g>
        </g>
    </g>
</svg>