<?xml version="1.0" encoding="UTF-8"?>
<svg width="30px" height="26px" viewBox="0 0 30 26" version="1.1" xmlns="http://www.w3.org/2000/svg" xmlns:xlink="http://www.w3.org/1999/xlink">
    <!-- Generator: Sketch 46.2 (44496) - http://www.bohemiancoding.com/sketch -->
    <title>photo_camera</title>
    <desc>Created with Sketch.</desc>
    <defs></defs>
    <g id="main" stroke="none" stroke-width="1" fill="none" fill-rule="evenodd">
        <g transform="translate(-200.000000, -768.000000)" id="hot" stroke="#FFFFFF" fill="#FFFFFF">
            <g transform="translate(0.000000, 667.000000)">
                <g id="tabs" transform="translate(0.000000, 74.023682)">
                    <g id="photo" transform="translate(183.000000, 11.000000)">
                        <g id="icon" transform="translate(2.000000, 0.000000)">
                            <g id="photo_camera">
                                <g id="photo-camera" transform="translate(16.000000, 17.000000)">
                                    <path d="M25.40125,3.55555556 L20.44525,3.55555556 L19.677,1.63466667 C19.235125,0.703111111 18.12825,0 17.101875,0 L10.8885,0 C9.862125,0 8.75525,0.703111111 8.290625,1.68622222 L7.54425,3.55555556 L2.589125,3.55555556 C1.161125,3.55555556 0,4.704 0,6.11644444 L0,18.5777778 C0,21.901037 3.05695833,24 5.432875,24 L22.5575,24 C24.9386667,24 28,21.901037 28,18.5786667 L28,6.11644444 C28,4.704 26.8345,3.55555556 25.40125,3.55555556 Z M26.25,17.6148148 C26.25,20.9552593 23.9157917,22.2222222 22.5575,22.2222222 L5.432875,22.2222222 C4.07983333,22.2222222 1.75,20.9552593 1.75,17.6157037 L1.75,6.11644444 C1.75,5.69155556 2.134125,5.33333333 2.589125,5.33333333 L8.134,5.33333333 C8.490125,5.33333333 8.810375,5.11377778 8.94425,4.77866667 L9.888375,2.40711111 C10.03975,2.08977778 10.535,1.77777778 10.8885,1.77777778 L17.101875,1.77777778 C17.455375,1.77777778 17.950625,2.08977778 18.078375,2.35466667 L19.04525,4.77866667 C19.18,5.11377778 19.50025,5.33333333 19.856375,5.33333333 L25.40125,5.33333333 C25.853625,5.33333333 26.25,5.69866667 26.25,6.11644444 L26.25,17.6148148 Z" id="Shape" stroke-width="0.15" fill-rule="nonzero"></path>
                                    <path d="M13.9999999,5.98948072 C10.1399368,5.98948072 6.99961214,9.12902978 6.99961214,12.9890929 C6.99961214,16.8491561 10.1391612,19.9894807 13.9999999,19.9894807 C17.8608387,19.9894807 21.0011633,16.8499317 21.0003877,12.9890929 C21.0003877,9.12980536 17.8600631,5.98948072 13.9999999,5.98948072 Z M13.9999999,18.4383201 C10.9954018,18.4383201 8.55077274,15.993691 8.55077274,12.9890929 C8.55077274,9.98449485 10.9954018,7.54064132 13.9999999,7.54064132 C17.004598,7.54064132 19.4492271,9.98449485 19.4492271,12.9890929 C19.4492271,15.993691 17.004598,18.4383201 13.9999999,18.4383201 Z" id="Shape" stroke-width="0.35" fill-rule="nonzero"></path>
                                    <path d="M13.9999999,9.86970896 C12.2805384,9.86970896 10.880616,11.2688558 10.880616,12.9890929 C10.880616,14.70933 12.2797628,16.1092525 13.9999999,16.1092525 C15.720237,16.1092525 17.1201595,14.7101056 17.1193839,12.9890929 C17.1193839,11.2696314 15.7194615,9.86970896 13.9999999,9.86970896 Z M13.9999999,14.5580919 C13.1352279,14.5580919 12.4317766,13.8546405 12.4317766,12.9890929 C12.4317766,12.1243209 13.1352279,11.4208696 13.9999999,11.4208696 C14.864772,11.4208696 15.5689989,12.1243209 15.5682233,12.9890929 C15.5682233,13.8546405 14.864772,14.5580919 13.9999999,14.5580919 Z" id="Shape" stroke-width="0.35" fill-rule="nonzero"></path>
                                </g>
                            </g>
                        </g>
                    </g>
                </g>
            </g>
        </g>
    </g>
</svg>