<?xml version="1.0" encoding="UTF-8"?>
<svg width="30px" height="26px" viewBox="0 0 30 26" version="1.1" xmlns="http://www.w3.org/2000/svg" xmlns:xlink="http://www.w3.org/1999/xlink">
    <!-- Generator: Sketch 46.2 (44496) - http://www.bohemiancoding.com/sketch -->
    <title>video_camera</title>
    <desc>Created with Sketch.</desc>
    <defs></defs>
    <g id="main" stroke="none" stroke-width="1" fill="none" fill-rule="evenodd">
        <g transform="translate(-280.000000, -769.000000)" id="hot" fill="#FFFFFF">
            <g transform="translate(0.000000, 667.000000)">
                <g id="tabs" transform="translate(0.000000, 74.023682)">
                    <g id="video" transform="translate(265.000000, 11.000000)">
                        <g id="icon">
                            <g id="video_camera">
                                <g id="video-camera" transform="translate(15.000000, 17.000000)">
                                    <path d="M27.5251414,1.07239001 C28.0897447,0.5077867 29.0551402,0.907665908 29.0551402,1.70614583 L29.0551402,16.061286 C29.0551402,16.8597597 28.0897418,17.2596563 27.5251335,16.69509 L21.8775701,11.0475266 L21.8775701,13.6688 C21.8775701,15.485638 20.405623,16.9575851 18.588785,16.9575851 L12.8614496,16.9575851 L16.8016905,23.8380669 C17.0230601,24.2808481 16.8436153,24.8191826 16.4008555,25.0405415 C15.9580882,25.2619042 15.4197349,25.08244 15.1983655,24.6397014 L11.411212,18.0653942 L7.62411925,24.6397038 C7.40275644,25.0824714 6.86442191,25.2619162 6.42163053,25.0405415 C5.97888102,24.8191878 5.79942521,24.2808074 6.02079545,23.8380669 L9.96103636,16.9575851 L4.23364486,16.9575851 C2.41680692,16.9575851 0.944859813,15.485638 0.944859813,13.6688 L0.944859813,4.09868788 C0.944859813,2.28184994 2.41680692,0.809902837 4.23364486,0.809902837 L18.588785,0.809902837 C20.405623,0.809902837 21.8775701,2.28184994 21.8775701,4.09868788 L21.8775701,6.7199613 L27.5251414,1.07239001 Z M18.588785,15.1649869 C19.415648,15.1649869 20.085028,14.495607 20.085028,13.668744 L20.085028,4.09868788 C20.085028,3.27182489 19.415648,2.60244489 18.588785,2.60244489 L4.23364486,2.60244489 C3.40678186,2.60244489 2.73740187,3.27182489 2.73740187,4.09868788 L2.73740187,13.668744 C2.73740187,14.495607 3.40678186,15.1649869 4.23364486,15.1649869 L18.588785,15.1649869 Z M22.2487827,8.88371592 L27.2625981,13.8975314 L27.2625981,3.86990045 L22.2487827,8.88371592 Z" id="Combined-Shape" stroke="#FFFFFF" stroke-width="0.1"></path>
                                    <path d="M7.82242991,4.39868788 C9.63926785,4.39868788 11.111215,5.87063499 11.111215,7.68747293 C11.111215,9.50431087 9.63926785,10.976258 7.82242991,10.976258 C6.00559197,10.976258 4.53364486,9.50431087 4.53364486,7.68747293 C4.53364486,5.87063499 6.00559197,4.39868788 7.82242991,4.39868788 Z M7.82242991,9.18371592 C8.6492929,9.18371592 9.3186729,8.51433593 9.3186729,7.68747293 C9.3186729,6.86060994 8.6492929,6.19122994 7.82242991,6.19122994 C6.99556691,6.19122994 6.32618692,6.86060994 6.32618692,7.68747293 C6.32618692,8.51433593 6.99556691,9.18371592 7.82242991,9.18371592 Z" id="Combined-Shape"></path>
                                </g>
                            </g>
                        </g>
                    </g>
                </g>
            </g>
        </g>
    </g>
</svg>