<?xml version="1.0" encoding="UTF-8"?>
<svg width="30px" height="15px" viewBox="0 0 30 15" version="1.1" xmlns="http://www.w3.org/2000/svg" xmlns:xlink="http://www.w3.org/1999/xlink">
    <!-- Generator: Sketch 46.2 (44496) - http://www.bohemiancoding.com/sketch -->
    <g id="main" stroke="none" stroke-width="1" fill="none" fill-rule="evenodd">
        <g transform="translate(-40.000000, -775.000000)" id="hot" fill="#FFFFFF">
            <g transform="translate(0.000000, 667.000000)">
                <g id="tabs" transform="translate(0.000000, 74.023682)">
                    <g id="all" transform="translate(25.000000, 11.000000)">
                        <g id="icon">
                            <g id="all_icon">
                                <g id="all" transform="translate(15.000000, 22.000000)">
                                    <path d="M23.1427484,0.982639369 C19.7371017,0.982639369 17.6346534,2.68687688 13.793307,7.43399451 C10.6091167,11.3684808 9.17733427,12.6337955 7.01541708,12.6337955 C4.57595769,12.6337955 2.65122258,10.2214699 2.65122258,7.8873667 C2.65122258,5.70101338 4.75352892,3.3660048 7.30778437,3.3660048 C8.51439979,3.3660048 9.55848458,3.78211809 10.4348362,4.47775716 C10.9730753,4.90500593 11.3404216,5.34048097 11.5580944,5.68042069 C11.9020004,6.23696455 12.6322672,6.41173486 13.1913105,6.07076739 C13.753377,5.72834218 13.9313806,4.9950985 13.5889767,4.43333418 C13.3019493,3.96353596 12.7612593,3.30274618 11.9654812,2.657754 C10.6700339,1.60777123 9.11993501,0.982839074 7.30778437,0.982839074 C3.43145295,0.982839074 0.267857143,4.34401407 0.267857143,7.8875664 C0.267857143,11.5509237 3.30470472,15.0173606 7.01521738,15.0173606 C10.0902307,15.0173606 11.9659304,13.4805044 15.6457419,8.93323838 C16.1582771,8.30008019 16.3839598,8.0232659 16.667494,7.6830024 C19.16717,4.68319359 20.9236393,3.36620451 23.1427484,3.36620451 C24.9404167,3.36620451 26.1552471,3.9931758 26.8031663,5.2790663 C27.0498921,5.76947669 27.2026366,6.31567409 27.2826309,6.89821145 C27.336493,7.29044825 27.3497788,7.5928265 27.3493761,8 C27.3493761,8.58335947 27.0977756,9.69989884 26.6278085,10.5674666 C25.9349891,11.8452002 24.9274804,12.4542612 23.5028155,12.4542612 C22.2492761,12.4542612 21.1655373,12.0933189 20.2274981,11.4588561 C19.588999,11.0269935 19.1758018,10.6117097 18.6411757,9.96838916 C18.45927,9.74917616 18.3948914,9.6779715 18.2944072,9.59196881 C17.7949169,9.1640906 17.0421802,9.22195074 16.6139039,9.72160642 C16.2026201,10.2015457 16.2385426,10.9185018 16.7070549,11.3701963 C16.7302624,11.3965684 16.7555311,11.427136 16.8078399,11.4909871 C17.3404845,12.1319636 17.7408852,12.5537505 18.3498017,13.0404343 C19.7632792,14.1701731 21.4557118,14.8372272 23.5022164,14.8372272 C27.4064275,14.8372272 29.7321424,11.4107498 29.7321424,7.9799577 C29.7325313,6.53065932 29.4623295,5.26222014 28.9311602,4.20700233 C27.9331413,2.22384214 26.0968106,0.982639369 23.1427484,0.982639369 Z" id="Path"></path>
                                </g>
                            </g>
                        </g>
                    </g>
                </g>
            </g>
        </g>
    </g>
</svg>