<?xml version="1.0" encoding="UTF-8"?>
<svg width="32px" height="20px" viewBox="0 0 32 20" version="1.1" xmlns="http://www.w3.org/2000/svg" xmlns:xlink="http://www.w3.org/1999/xlink">
    <!-- Generator: Sketch 46.2 (44496) - http://www.bohemiancoding.com/sketch -->
    <title>microphone_icon</title>
    <desc>Created with Sketch.</desc>
    <defs></defs>
    <g id="main" stroke="none" stroke-width="1" fill="none" fill-rule="evenodd" stroke-linecap="round" stroke-linejoin="round">
        <g transform="translate(-119.000000, -772.000000)" stroke="#02CFB6" fill-rule="nonzero" id="hot" stroke-width="0.25" fill="#02CFB6">
            <g transform="translate(0.000000, 667.000000)">
                <g id="tabs" transform="translate(0.000000, 74.023682)">
                    <g id="presenter" transform="translate(105.000000, 11.000000)">
                        <g id="icon">
                            <g id="microphone_icon">
                                <path d="M45.0832459,28.9476874 C45.0096548,26.9680905 44.670334,23.4859138 42.7683349,20.9498757 L42.7683349,20.9498757 L42.7683349,20.9498757 C42.4477365,20.5224447 41.8577218,20.4030926 41.3962006,20.6723112 L32.9774084,25.5832329 C32.6038158,25.4876646 32.3128685,25.4398804 32.1045663,25.4398804 L27.895198,25.4398804 C27.6869351,25.4398804 27.3959681,25.4876646 27.022297,25.5832329 L18.6037353,20.6723202 L18.6037353,20.6723202 C18.1422183,20.4030973 17.5522036,20.522446 17.2316062,20.9498757 L17.2316062,20.9498757 C14.9164595,24.0367576 14.9164595,28.5251126 14.9164595,30 L14.9167541,31.0523126 C14.9904631,33.0319095 15.329666,36.5140862 17.2316651,39.0501243 L17.2316651,39.0501243 L17.2316651,39.0501243 C17.5520612,39.4772856 18.1420659,39.5958769 18.6026296,39.3256891 L27.0092756,34.393965 C27.2843735,34.5007871 27.5829805,34.5601196 27.8954337,34.5601196 L32.104802,34.5601196 C32.3130649,34.5601196 32.6084705,34.4919316 32.991019,34.3555556 L41.3991674,39.3232068 L41.3991674,39.3232068 C41.858505,39.5945899 42.4484661,39.4769415 42.7685706,39.0501243 L42.7685706,39.0501243 C45.0835405,35.9632424 45.0835405,31.4748874 45.0835405,30 L45.0832459,28.9476874 Z M25.4398804,32.1046253 C25.4398804,32.3599849 25.4791801,32.6063298 25.5518285,32.8380624 L18.4096543,37.0043602 C17.0215561,34.5088002 17.0214382,31.1738648 17.0214382,30 L17.0213793,29.7827027 C17.0255037,28.4551155 17.0988592,25.3517359 18.4096543,22.9955809 L25.5518875,27.1619376 C25.4791801,27.3936113 25.4399393,27.6398973 25.4399393,27.8952569 L25.4399393,28.9475695 L22.5813811,28.9475695 L22.5813811,28.9475695 C22.0290963,28.9475695 21.5813811,29.3952848 21.5813811,29.9475695 L21.5813811,30.0522537 L21.5813811,30.0522537 C21.5813811,30.6045385 22.0290963,31.0522537 22.5813811,31.0522537 L25.4398804,31.0522537 L25.4398804,32.1046253 Z M32.4554354,32.1046842 C32.4554354,32.2981188 32.2980599,32.4554354 32.1046842,32.4554354 L27.8953158,32.4554354 C27.7018812,32.4554354 27.5445646,32.2980599 27.5445646,32.1046842 L27.5445646,27.8953158 C27.5445646,27.7018812 27.7019401,27.5445646 27.8953158,27.5445646 L32.1046842,27.5445646 C32.2981188,27.5445646 32.4554354,27.7019401 32.4554354,27.8953158 L32.4554354,32.1046842 Z M41.5904047,37.0043602 L34.4481715,32.8380035 C34.5208788,32.6063298 34.5601196,32.3600438 34.5601196,32.1046842 L34.5601196,31.0523716 L37.4186778,31.0523716 L37.4186778,31.0523716 C37.9709626,31.0523716 38.4186778,30.6046563 38.4186778,30.0523716 L38.4186778,29.9476874 L38.4186778,29.9476874 C38.4186778,29.3954026 37.9709626,28.9476874 37.4186778,28.9476874 L34.5601196,28.9476874 L34.5601196,27.8953747 C34.5601196,27.6400151 34.5208199,27.3936702 34.4481715,27.1619376 L41.5903457,22.9956398 C42.9784439,25.4912587 42.9785028,28.8260763 42.9785028,30 L42.9785618,30.2172973 C42.9744963,31.5448256 42.9011997,34.6482641 41.5904047,37.0043602 Z" id="Shape"></path>
                            </g>
                        </g>
                    </g>
                </g>
            </g>
        </g>
    </g>
</svg>