
<svg width="22px" height="28px" viewBox="0 0 22 28" version="1.1" xmlns="http://www.w3.org/2000/svg" xmlns:xlink="http://www.w3.org/1999/xlink">
    <!-- Generator: Sketch 46.2 (44496) - http://www.bohemiancoding.com/sketch -->
    <desc>Created with Sketch.</desc>
    <defs></defs>
    <g id="Symbols" stroke="none" stroke-width="1" fill="none" fill-rule="evenodd">
        <g id="place_marker" transform="translate(-19.000000, -16.000000)" stroke="#fff" fill="#fff" fill-rule="nonzero">
            <g id="placeholder-(1)" transform="translate(20.157000, 16.944000)">
                <path d="M19.5744122,25.1922663 L16.1319632,17.9104352 C16.0632662,17.7651362 15.9442322,17.6538032 15.8014832,17.5930622 L14.0889031,16.8306632 L17.0563382,11.8572451 C17.6664512,10.6693531 17.9656172,9.4250041 17.9656172,8.12261709 C17.9656172,5.93170806 17.1064712,3.87773404 15.5464322,2.33911502 C13.9866481,0.800853008 11.9202301,-0.0299880003 9.7279951,0.000816000009 C7.59884708,0.0303450003 5.59413906,0.885564009 4.08306004,2.40903603 C2.57213403,3.93240604 1.73308202,5.94399906 1.72043402,8.07340208 C1.71268202,9.3746671 2.02016102,10.6704751 2.60941503,11.8208311 C2.61363103,11.8290251 3.60945704,13.4989351 5.59689306,16.8305612 L3.87441904,17.5971422 C3.73350604,17.6598212 3.61977604,17.7709502 3.55388404,17.9103842 L0.111537001,25.1922663 C-0.00367200004,25.4357913 0.0449310005,25.7253693 0.233325002,25.9179963 C0.421668004,26.1106233 0.709920007,26.1658053 0.95609701,26.0562573 L4.86183326,24.3173875 L4.86183326,24.3173875 C5.12073156,24.2021236 5.41637855,24.2021236 5.67527685,24.3173875 L9.5810131,26.0562573 C9.7478341,26.1304623 9.9383191,26.1304623 10.1051401,26.0562573 L14.0108764,24.3173875 L14.0108764,24.3173875 C14.2697747,24.2021236 14.5654216,24.2021236 14.8243199,24.3173875 L18.7300562,26.0562573 C18.8143082,26.0937423 18.9035072,26.1120003 18.9919412,26.1120003 C19.1618222,26.1120003 19.3289492,26.0447823 19.4528282,25.9180473 C19.6410692,25.7253693 19.6896212,25.4358933 19.5744122,25.1922663 Z M3.74712304,11.2152061 C3.25089303,10.2394741 3.00257403,9.1851511 3.00915303,8.08110309 C3.03098103,4.38722405 6.05313906,1.34043301 9.7459471,1.28928001 C11.5904131,1.26449401 13.3293601,1.96242902 14.6415902,3.25665603 C15.9542282,4.55118905 16.6770512,6.27927307 16.6770512,8.12266809 C16.6770512,9.2119771 16.4287322,10.2522751 15.9389282,11.2152061 L10.3963501,20.5047542 C10.2271321,20.7883142 9.9530581,20.8189142 9.8430511,20.8189142 C9.7329931,20.8189142 9.4589191,20.7883142 9.2897521,20.5047542 L3.74712304,11.2152061 Z M14.6795342,22.8424412 C14.5127132,22.7682362 14.3222282,22.7682362 14.1554071,22.8424412 L9.8429491,24.7623873 L5.53049106,22.8424412 C5.36367006,22.7682362 5.17318505,22.7682362 5.00636405,22.8424412 L2.01888602,24.1725213 L4.61672405,18.6773222 L6.26188207,17.9451662 L8.18295009,21.1649492 C8.53505409,21.7551212 9.1556221,22.1074802 9.8428471,22.1074802 C10.5300721,22.1074802 11.1506401,21.7551212 11.5027441,21.1650002 L13.4238121,17.9452172 L15.0691232,18.6776282 L17.6668082,24.1725723 L14.6795342,22.8424412 Z" id="Shape" stroke-width="0.45"></path>
                <path d="M9.8432041,5.18195705 C8.22171009,5.18195705 6.90259507,6.50107207 6.90259507,8.12251509 C6.90259507,9.7439581 8.22171009,11.0630731 9.8432041,11.0630731 C11.4646471,11.0631241 12.7837621,9.7439581 12.7837621,8.12251509 C12.7837621,6.50107207 11.4646471,5.18195705 9.8432041,5.18195705 Z M9.8432041,9.7745071 C8.93229309,9.7745581 8.19116109,9.0335281 8.19116109,8.12251509 C8.19116109,7.21160408 8.93224209,6.47052307 9.8432041,6.47052307 C10.7541151,6.47052307 11.4951961,7.21160408 11.4951961,8.12251509 C11.4951961,9.0334261 10.7541151,9.7745071 9.8432041,9.7745071 Z" id="Shape" stroke-width="0.5"></path>
            </g>
        </g>
    </g>
</svg>