
<svg width="1400px" height="850px" viewBox="0 0 1400 850" version="1.1" xmlns="http://www.w3.org/2000/svg" xmlns:xlink="http://www.w3.org/1999/xlink">
    <!-- Generator: Sketch 46.2 (44496) - http://www.bohemiancoding.com/sketch -->
    <desc>Created with Sketch.</desc>
    <defs>
        <linearGradient x1="-105.722917%" y1="-49.9167352%" x2="234.902083%" y2="169.528166%" id="linearGradient-1">
            <stop stop-color="#A702FF" offset="0%"></stop>
            <stop stop-color="#17D0DB" offset="100%"></stop>
        </linearGradient>
        <linearGradient x1="18.5910777%" y1="30.518723%" x2="43.1746161%" y2="48.7160291%" id="linearGradient-2">
            <stop stop-color="#02DAB1" offset="0%"></stop>
            <stop stop-color="#0497D1" offset="100%"></stop>
        </linearGradient>
    </defs>
    <g id="main" stroke="none" stroke-width="1" fill="none" fill-rule="evenodd">
        <g id="desctop">
            <rect id="Rectangle-2" fill="url(#linearGradient-1)" x="-21.980239" y="-13.3451451" width="1443.96048" height="876.69029"></rect>
            <path d="M-346.661808,-713.914113 C-342.528117,-842.058529 -246.075331,-888.907026 -246.075331,-888.907026 C-138.599368,-959.17977 19.8587813,-869.616468 19.8587813,-869.616468 C19.8587813,-869.616468 1406.05498,-340.504039 1553.48996,-271.609191 C1619.62901,-239.917561 1666.47751,-208.225931 1689.90175,-161.377435 C1718.83759,-104.88366 1716.0818,-31.8551215 1716.0818,23.2607566 C1716.0818,122.469337 1716.0818,799.512244 1716.0818,968.993569 C1716.0818,1033.75473 1703.68072,1087.49271 1681.63437,1123.31803 C1645.80905,1179.8118 1594.82686,1196.34657 1594.82686,1196.34657 C1594.82686,1196.34657 35.0156478,1962.47852 -20.1002303,1987.28066 C-73.8382115,2012.08281 -160.645719,2036.88495 -247.453227,1991.41435 C-352.173396,1936.29847 -346.661808,1892.21639 -346.661808,1815.04354 L-346.661808,-713.914113 Z M0.888739233,756.558659 C0.888739233,799.593502 2.27695996,1599.70786 2.27695996,1599.70786 C2.27695996,1599.70786 -3.27592295,1649.6838 36.9824782,1676.06 C77.2408793,1702.43619 116.11106,1674.67178 116.11106,1674.67178 C116.11106,1674.67178 1415.48566,1079.12508 1477.95559,1049.97245 C1541.81375,1019.43159 1543.20197,961.126321 1543.20197,923.644362 C1543.20197,886.162402 1543.20197,162.400187 1543.20197,52.7307497 C1543.20197,-56.9386879 1441.86186,-19.4567282 1441.86186,-19.4567282 C1357.18039,5.5312449 1290.5458,134.635773 1158.66483,184.611719 C1028.17208,234.587665 994.854781,172.117732 881.020681,215.152575 C767.186581,258.187417 707.49309,431.715008 539.518382,513.620031 C371.543674,595.525054 247.992029,481.690955 118.887501,535.831563 C-11.6052473,589.972172 0.888739233,713.523816 0.888739233,756.558659 Z" id="Combined-Shape" fill="url(#linearGradient-2)" fill-rule="nonzero"></path>
        </g>
    </g>
</svg>