<?xml version="1.0" encoding="UTF-8"?>
<svg width="40px" height="40px" viewBox="0 0 40 40" version="1.1" xmlns="http://www.w3.org/2000/svg" xmlns:xlink="http://www.w3.org/1999/xlink">
    <!-- Generator: Sketch 50.2 (55047) - http://www.bohemiancoding.com/sketch -->
    <title>youtube</title>
    <desc>Created with Sketch.</desc>
    <defs>
        <path d="M20,0 C31.045695,-2.02906125e-15 40,8.954305 40,20 C40,31.045695 31.045695,40 20,40 C8.954305,40 1.3527075e-15,31.045695 0,20 C-1.3527075e-15,8.954305 8.954305,2.02906125e-15 20,0 Z M28.4031051,17.2840304 C28.3557569,16.762631 28.2877313,16.2967907 28.1992981,15.8857904 C28.0982786,15.4247149 27.878559,15.0359204 27.5405589,14.720096 C27.2023789,14.4042715 26.8089994,14.221082 26.3603603,14.1702576 C24.9575653,14.0121806 22.8372953,13.6733175 19.9999101,13.6733175 C17.162375,13.6733175 15.0422549,14.0121806 13.6394299,14.1702576 C13.190641,14.221052 12.7989097,14.4042715 12.4640261,14.720096 C12.1289627,15.0359204 11.9108914,15.4247149 11.8100217,15.8857904 C11.7152055,16.2967907 11.6442132,16.762631 11.5967151,17.2840304 C11.5493969,17.8054299 11.5224264,18.2367779 11.5161932,18.5781044 C11.5098102,18.9190413 11.5068734,19.3931226 11.5068734,19.9999885 C11.5068734,20.6064649 11.50999,21.0803963 11.5162232,21.4219026 C11.5224564,21.7628396 11.5493969,22.1943674 11.5967451,22.715587 C11.6442431,23.2369565 11.7119091,23.7032163 11.8004922,24.1137971 C11.9015416,24.5755918 12.1212612,24.9640567 12.4592613,25.2798811 C12.7972615,25.5960651 13.190671,25.7794345 13.6394299,25.8297195 C15.0422549,25.9877965 17.162345,26.3266825 19.9999101,26.3266825 C22.8372953,26.3266825 24.9574154,25.9877965 26.3603603,25.8297195 C26.8089994,25.7792547 27.2007307,25.5960651 27.5358241,25.2798811 C27.8706777,24.9640567 28.088749,24.5755918 28.1897685,24.1137971 C28.2845848,23.7032163 28.3555771,23.2369565 28.4031051,22.715587 C28.4503933,22.1942175 28.4773938,21.7628396 28.483597,21.4219026 C28.4898601,21.0805462 28.4931266,20.6064649 28.4931266,19.9999885 C28.4931266,19.3931226 28.4898601,18.9192211 28.483597,18.5781044 C28.4773938,18.2365981 28.4503933,17.8052501 28.4031051,17.2840304 Z" id="path-1"></path>
        <filter x="-70.0%" y="-50.0%" width="240.0%" height="240.0%" filterUnits="objectBoundingBox" id="filter-2">
            <feOffset dx="0" dy="8" in="SourceAlpha" result="shadowOffsetOuter1"></feOffset>
            <feGaussianBlur stdDeviation="8" in="shadowOffsetOuter1" result="shadowBlurOuter1"></feGaussianBlur>
            <feColorMatrix values="0 0 0 0 0.352731718   0 0 0 0 0.352731718   0 0 0 0 0.352731718  0 0 0 0.1 0" type="matrix" in="shadowBlurOuter1"></feColorMatrix>
        </filter>
        <path d="M23.3555782,20.5116487 L18.5022988,23.5448996 C18.4137158,23.6081604 18.3064032,23.6397158 18.1800614,23.6397158 C18.0852452,23.6397158 17.9873123,23.6146033 17.8862629,23.5638089 C17.6777511,23.4500833 17.5733753,23.2734866 17.5733753,23.0332395 L17.5733753,16.9665578 C17.5733753,16.7266703 17.6775413,16.5493244 17.8862629,16.4356288 C18.1010379,16.3219332 18.3064332,16.3287058 18.5022988,16.4545081 L23.3555782,19.487759 C23.5452107,19.595611 23.640027,19.7661544 23.640027,19.9998087 C23.6398472,20.2340025 23.5450309,20.4045459 23.3555782,20.5116487 Z" id="path-3"></path>
        <filter x="-461.5%" y="-274.5%" width="1023.1%" height="868.7%" filterUnits="objectBoundingBox" id="filter-4">
            <feOffset dx="0" dy="8" in="SourceAlpha" result="shadowOffsetOuter1"></feOffset>
            <feGaussianBlur stdDeviation="8" in="shadowOffsetOuter1" result="shadowBlurOuter1"></feGaussianBlur>
            <feColorMatrix values="0 0 0 0 0.352731718   0 0 0 0 0.352731718   0 0 0 0 0.352731718  0 0 0 0.1 0" type="matrix" in="shadowBlurOuter1"></feColorMatrix>
        </filter>
    </defs>
    <g id="Symbols" stroke="none" stroke-width="1" fill="none" fill-rule="evenodd">
        <g id="youtube">
            <g>
                <g id="Combined-Shape">
                    <use fill="black" fill-opacity="1" filter="url(#filter-2)" xlink:href="#path-1"></use>
                    <use fill="#FFFFFF" fill-rule="evenodd" xlink:href="#path-1"></use>
                </g>
                <g id="Shape">
                    <use fill="black" fill-opacity="1" filter="url(#filter-4)" xlink:href="#path-3"></use>
                    <use fill="#FFFFFF" fill-rule="evenodd" xlink:href="#path-3"></use>
                </g>
            </g>
        </g>
    </g>
</svg>