<?xml version="1.0" encoding="UTF-8"?>
<svg width="40px" height="40px" viewBox="0 0 40 40" version="1.1" xmlns="http://www.w3.org/2000/svg" xmlns:xlink="http://www.w3.org/1999/xlink">
    <!-- Generator: Sketch 50.2 (55047) - http://www.bohemiancoding.com/sketch -->
    <title>fb</title>
    <desc>Created with Sketch.</desc>
    <defs>
        <path d="M20,0 C31.045695,-2.02906125e-15 40,8.954305 40,20 C40,31.045695 31.045695,40 20,40 C8.954305,40 1.3527075e-15,31.045695 0,20 C-1.3527075e-15,8.954305 8.954305,2.02906125e-15 20,0 Z M23.446381,11.3333333 L21.640902,11.3333333 C20.2595536,11.3333333 19.2673691,11.6612189 18.6643804,12.3167682 C18.0612015,12.9725394 17.7598815,13.9383168 17.7598815,15.2145123 L17.7598815,16.4309828 C17.7598815,16.7524648 17.4993293,17.013017 17.1778473,17.013017 L16.5539042,17.013017 C16.2324222,17.013017 15.97187,17.2735692 15.97187,17.5950512 L15.97187,19.4179658 C15.97187,19.7394478 16.2324222,20 16.5539042,20 L17.1778473,20 C17.4993293,20 17.7598815,20.2605522 17.7598815,20.5820342 L17.7598815,28.0846325 C17.7598815,28.4061144 18.0204338,28.6666667 18.3419157,28.6666667 L20.7643319,28.6666667 C21.0858139,28.6666667 21.3463661,28.4060827 21.3463661,28.0846325 L21.3463661,20.5820659 C21.3463661,20.2605522 21.60695,20.0000317 21.9284003,20.0000317 L23.1518133,20.0000317 C23.473327,20.0000317 23.7612374,19.7408426 23.7949992,19.4212944 L23.988218,17.5917543 C24.0219798,17.2720476 23.7887857,17.013017 23.4672721,17.013017 L21.9282101,17.013017 C21.6067281,17.013017 21.3461759,16.7524648 21.3461759,16.4309828 L21.3461759,15.5195097 C21.3461759,15.2952236 21.356669,15.1215961 21.377782,14.9987856 C21.3987365,14.8761653 21.4460664,14.7552886 21.5198034,14.6359653 C21.5933185,14.5168638 21.7126419,14.434409 21.8773613,14.3887909 C22.0420491,14.3432046 22.2612947,14.3203163 22.5346542,14.3203163 L23.4461274,14.3203163 C23.7676093,14.3203163 24.0281299,14.0597641 24.0281299,13.7382821 L24.0281299,11.9153675 C24.0283835,11.5938856 23.7678312,11.3333333 23.446381,11.3333333 Z" id="path-1"></path>
        <filter x="-70.0%" y="-50.0%" width="240.0%" height="240.0%" filterUnits="objectBoundingBox" id="filter-2">
            <feOffset dx="0" dy="8" in="SourceAlpha" result="shadowOffsetOuter1"></feOffset>
            <feGaussianBlur stdDeviation="8" in="shadowOffsetOuter1" result="shadowBlurOuter1"></feGaussianBlur>
            <feColorMatrix values="0 0 0 0 0.352731718   0 0 0 0 0.352731718   0 0 0 0 0.352731718  0 0 0 0.1 0" type="matrix" in="shadowBlurOuter1"></feColorMatrix>
        </filter>
    </defs>
    <g id="Symbols" stroke="none" stroke-width="1" fill="none" fill-rule="evenodd">
        <g id="fb">
            <g id="Combined-Shape">
                <g>
                    <use fill="black" fill-opacity="1" filter="url(#filter-2)" xlink:href="#path-1"></use>
                    <use fill="#FFFFFF" fill-rule="evenodd" xlink:href="#path-1"></use>
                </g>
            </g>
        </g>
    </g>
</svg>